<?xml version="1.0" encoding="UTF-8" standalone="no"?>
<!-- Created with Inkscape (http://www.inkscape.org/) -->

<svg
   version="1.1"
   id="svg179"
   width="787.5813"
   height="438.76965"
   viewBox="0 0 787.5813 438.76965"
   sodipodi:docname="BEE.svg"
   inkscape:version="1.2.2 (732a01da63, 2022-12-09)"
   xmlns:inkscape="http://www.inkscape.org/namespaces/inkscape"
   xmlns:sodipodi="http://sodipodi.sourceforge.net/DTD/sodipodi-0.dtd"
   xmlns="http://www.w3.org/2000/svg"
   xmlns:svg="http://www.w3.org/2000/svg">
  <defs
     id="defs183" />
  <sodipodi:namedview
     id="namedview181"
     pagecolor="#ffffff"
     bordercolor="#000000"
     borderopacity="0.25"
     inkscape:showpageshadow="2"
     inkscape:pageopacity="0.0"
     inkscape:pagecheckerboard="0"
     inkscape:deskcolor="#d1d1d1"
     showgrid="false"
     inkscape:zoom="0.4986053"
     inkscape:cx="395.1021"
     inkscape:cy="23.064336"
     inkscape:window-width="1920"
     inkscape:window-height="1129"
     inkscape:window-x="1912"
     inkscape:window-y="-8"
     inkscape:window-maximized="1"
     inkscape:current-layer="g185" />
  <g
     inkscape:groupmode="layer"
     inkscape:label="Image"
     id="g185"
     transform="translate(-144.20934,-161.34801)">
    <g
       id="g2055"
       transform="translate(0.91533649,22.232839)">
      <path
         style="fill:#df9000;fill-opacity:1"
         d="m 515.05511,577.39722 c -22.57712,-1.5273 -48.75912,-8.948 -73,-20.69 -43.56221,-21.1012 -77.09036,-54.0735 -94.68079,-93.1112 -6.3047,-13.9918 -10.81871,-32.4095 -10.81904,-44.143 -1.9e-4,-6.7702 -0.52601,-7.357 -6.59272,-7.357 -10.64852,0 -39.13428,-6.5166 -52.36716,-11.9798 -48.39492,-19.9799 -91.18633,-64.35953 -114.76093,-119.02021 -12.9052,-29.92232 -21.41159,-72.92585 -19.18727,-97 2.16376,-23.41859 8.87046,-36.77747 21.40791,-42.64175 7.65243,-3.57937 12.65217,-3.15666 23.67943,2.002 17.53466,8.20289 37.53423,24.91374 55.55219,46.41721 27.65381,33.00336 44.20955,64.6745 51.34471,98.22254 2.9372,13.81009 3.17679,36.64462 0.50627,48.25 -2.01298,8.74785 -1.62153,8.53627 -11.48953,6.21022 -18.11242,-4.26941 -31.99794,-17.96306 -41.25458,-40.68456 -2.97145,-7.29376 -7.06456,-20.77566 -6.30749,-20.77566 0.22196,0 2.97048,4.3875 6.10782,9.75 11.57727,19.78849 21.27125,30.55043 32.63276,36.22784 l 6.17548,3.08593 1.2341,-5.28189 c 1.75557,-7.51375 1.62156,-23.40729 -0.26099,-30.95111 -1.99683,-8.00183 -10.54113,-26.00404 -17.52964,-36.93367 -10.30883,-16.12241 -32.2069,-47.47142 -39.74406,-56.8971 -15.0703,-18.84635 -28.27078,-29.76544 -38.84547,-32.13195 -9.78451,-2.18968 -15.56266,1.32104 -19.9675,12.13195 -1.57854,3.87425 -1.82685,7.35064 -1.78571,25 0.0501,21.48953 0.37655,23.98305 5.93889,45.36426 5.64944,21.71601 17.97945,49.20149 30.23474,67.39786 17.86182,26.52083 37.02524,43.10079 66.77858,57.77609 18.88278,9.3136 43.63485,17.2735 59.09107,19.0027 l 6.09107,0.6815 0.61516,-11.3612 c 2.04832,-37.82989 19.53133,-82.77612 43.70581,-112.36121 22.64487,-27.71313 58.14099,-47.19672 109.63346,-60.1771 14.15804,-3.569 26.81925,-3.86251 31.04401,-0.71965 3.38021,2.51458 4.0416,5.64562 1.88713,8.93376 -3.20543,4.89209 -6.20153,5.55155 -23.8303,5.24518 -14.98728,-0.26046 -16.73785,-0.0996 -22.73741,2.089 -9.0996,3.31953 -24.72658,11.43488 -34.89602,18.1221 -8.53238,5.61071 -21.54904,15.89499 -20.91745,16.52657 0.18077,0.18077 5.05025,-1.01293 10.82107,-2.65267 32.45718,-9.22245 59.27076,-10.77486 77.7919,-4.50386 10.71418,3.62768 12.55582,5.05969 11.87808,9.23611 -1.59756,9.84457 -25.28696,35.77437 -43.97817,48.13735 -41.43775,27.4083 -79.28632,34.75384 -101.53313,19.70525 -2.93355,-1.98437 -5.45925,-3.45811 -5.61267,-3.27499 -1.14406,1.36549 -5.55361,14.16785 -5.55361,16.12392 0,2.26554 0.84641,2.68994 11.25,5.64084 26.59961,7.5448 33.75,12.958 33.75,25.5506 0,7.1647 -1.81219,11.3871 -7.18124,16.7322 -5.69377,5.6684 -15.5355,10.593 -30.68731,15.3554 l -12.36854,3.8875 0.61854,5.9179 c 0.3402,3.2549 0.62544,7.0895 0.63386,8.5213 0.008,1.4318 0.39745,3.2062 0.86449,3.943 1.61133,2.5423 12.26006,-1.5458 25.60244,-9.8287 16.40208,-10.1824 32.50353,-16.0911 56.01776,-20.5567 12.46848,-2.3679 38.78468,-2.365 50.97509,0.01 22.1421,4.306 40.75862,14.5041 56.03116,30.6938 13.6469,14.4664 24.03663,33.8268 30.81232,57.4162 2.47566,8.619 3.0279,11.3623 6.22645,30.93 0.80913,4.95 1.75985,18.9284 2.11272,31.0631 l 0.64158,22.0631 -6.89966,1.2062 c -3.79481,0.6634 -10.27466,1.6439 -14.39966,2.179 -4.125,0.535 -10.425,1.4173 -14,1.9606 -6.07982,0.9239 -25.16458,1.0961 -36.5,0.3292 z m 54.72254,-14.1957 c 2.14785,-0.8166 2.76844,-1.8626 3.33099,-5.6139 1.24914,-8.3299 -1.60462,-23.4916 -4.42159,-23.4916 -0.53356,0 -4.16785,3.4875 -8.07619,7.75 -6.8578,7.4792 -11.20473,14.5742 -12.65802,20.6601 l -0.69492,2.9101 9.94005,-0.6056 c 5.46702,-0.333 11.12788,-1.0572 12.57968,-1.6091 z m -42.87553,-3.6043 c 2.93597,-7.1393 8.56939,-15.0437 20.66907,-29.0012 17.2774,-19.9303 18.36635,-22.1243 15.88071,-31.9956 -1.28201,-5.0913 -4.02331,-8.0942 -6.24824,-6.8443 -2.60938,1.4657 -42.9847,43.6588 -46.94552,49.059 -4.20488,5.733 -10.70303,17.7039 -10.70303,19.7172 0,0.9069 3.04939,1.5826 10.25,2.2712 16.50939,1.5788 15.01381,1.8593 17.09701,-3.2063 z m -42.46985,-13.2937 c 6.8971,-11.6519 24.86856,-32.7939 47.77417,-56.2025 20.74774,-21.2034 19.79158,-19.2837 13.37534,-26.8547 l -2.83879,-3.3497 -23.84394,20.9433 c -27.88823,24.4956 -47.53078,44.376 -55.59821,56.2714 -3.16486,4.6666 -5.75236,8.9496 -5.75,9.5178 0.003,0.8007 18.37616,8.1234 21.09058,8.4059 0.32248,0.034 2.92836,-3.8956 5.79085,-8.7315 z m -42.75452,-15.4575 c 1.56203,-1.7875 6.91255,-8.0626 11.89004,-13.9447 5.60459,-6.6232 18.45437,-19.1866 33.75242,-33 31.3079,-28.2698 38.56999,-35.1944 40.30042,-38.4277 1.30475,-2.438 1.20527,-2.7513 -1.58675,-4.9974 -1.63832,-1.318 -4.53564,-2.8325 -6.43848,-3.3656 -4.33832,-1.2153 -10.69899,1.5276 -19.54029,8.4264 -3.3,2.575 -12.92145,9.8925 -21.38099,16.261 -18.28773,13.7675 -30.04247,23.5448 -39.76047,33.0717 -7.32982,7.1857 -16.86701,19.2302 -19.7527,24.9455 -1.61953,3.2077 -1.61462,3.2249 1.35479,4.7604 1.6391,0.8476 5.54311,3.3365 8.67556,5.5308 3.13246,2.1943 6.58436,3.9896 7.67089,3.9896 1.08653,0 3.25354,-1.4625 4.81556,-3.25 z m -33.84584,-35.0328 c 3.17725,-2.4681 13.97725,-11.9164 24,-20.9964 19.05236,-17.2602 38.97099,-34.0964 51.4571,-43.4942 4.33643,-3.2639 6.98815,-5.9046 6.4598,-6.4329 -1.56616,-1.5662 -11.49792,-3.7695 -17.04677,-3.7818 -4.90549,-0.011 -5.75239,0.3471 -10.12883,4.2819 -2.62667,2.3616 -11.69279,9.1921 -20.14693,15.1788 -31.52011,22.3208 -43.14366,33.4998 -51.2675,49.3068 -1.8171,3.5356 -1.73317,3.8365 2.63818,9.458 2.77898,3.5737 3.02341,3.6767 5.58219,2.3523 1.47178,-0.7618 5.27552,-3.4044 8.45276,-5.8725 z m -18.19412,-36.8842 c 13.1643,-15.1817 23.1909,-23.6405 34.15278,-28.8124 5.96377,-2.8138 7.46395,-3.9212 6.55,-4.8352 -0.652,-0.652 -1.77761,-1.1854 -2.50134,-1.1854 -2.7653,0 -31.14947,11.3708 -45.40756,18.1904 l -14.90706,7.1301 0.62964,3.5897 c 1.0716,6.1096 7.50741,19.0598 9.48354,19.083 0.32048,0 5.72048,-5.9184 12,-13.1602 z m -19.81535,-69.8318 c 14.86706,-5.5625 21.13944,-16.0823 13.72096,-23.0122 -3.83397,-3.5814 -13.86108,-6.989 -20.56583,-6.989 -6.48027,0 -6.42372,-0.1497 -7.14121,18.9038 l -0.54241,14.4038 4.49069,-0.6155 c 2.46988,-0.3385 6.98689,-1.5495 10.0378,-2.6909 z m 46.2588,-86.09067 c 15.18885,-2.80782 25.44873,-13.29988 25.46829,-26.04464 l 0.006,-3.6341 -9.75,2.3044 c -13.10847,3.09817 -20.03478,5.8045 -27.33949,10.68239 -6.29016,4.20041 -12.58063,11.51129 -11.14223,12.94969 1.28727,1.28727 11.47613,4.67831 14.29806,4.75865 1.41149,0.0402 5.21839,-0.41719 8.45979,-1.01639 z"
         id="path851"
         sodipodi:nodetypes="cssssssssssssssssscssssssssssscsssssssssssssssssssscscssscsssscsssccssssscssssssssssssscssccssssssssssssssssssssssssssssssscscscssscsccccsssscc" />
      <g
         id="g1082"
         transform="translate(-1039.9164,-715.7605)"
         style="fill:#0151a1;fill-opacity:1">
        <text
           xml:space="preserve"
           style="font-weight:bold;font-size:93.3333px;font-family:Quicksand;-inkscape-font-specification:'Quicksand Bold';text-align:center;text-anchor:middle;fill:#0151a1;fill-opacity:1;stroke-linecap:square;stroke-miterlimit:6.9;paint-order:markers stroke fill"
           x="1857.1833"
           y="1287.3251"
           id="text1025"><tspan
             sodipodi:role="line"
             id="tspan1023"
             x="1857.1833"
             y="1287.3251">®</tspan></text>
        <path
           style="fill:#0151a1;fill-opacity:1"
           d="m 1771.3088,1272.5923 c -4.7043,-1.274 -9.2589,-5.4868 -15.2947,-14.147 -35.261,-50.5923 -100.4117,-114.2198 -154.8903,-151.269 -13.3387,-9.0713 -19.9582,-14.8231 -21.9924,-19.1099 -3.4945,-7.3641 -0.6292,-10.7407 24.4054,-28.76 35.4407,-25.5092 51.635,-39.2461 83.5867,-70.90253 26.2059,-25.96386 32.8648,-33.31891 55.4179,-61.21215 18.9931,-23.49021 21.2413,-26.01624 25.4267,-28.56827 7.0454,-4.296 13.735,-1.72777 21.3861,8.21039 26.7282,34.71798 44.5985,55.11009 71.8647,82.00617 31.1986,30.77509 49.3506,46.10659 83.9049,70.86769 13.7368,9.8436 22.6826,16.9398 23.8174,18.8929 3.6283,6.2445 1.8687,12.5905 -4.8174,17.3746 -2.2,1.5742 -10.5268,7.4419 -18.504,13.0393 -23.4943,16.4855 -51.7307,39.5707 -75.6546,61.853 -13.0639,12.1675 -66.1019,71.3799 -77.5018,86.5241 -9.8717,13.1142 -15.0691,16.8489 -21.1546,15.2007 z m 13.315,-49.9824 c 23.8249,-10.7896 79.8175,-60.6382 114.1756,-101.6474 13.935,-16.6325 20.7748,-28.5719 20.7787,-36.2708 0,-7.3213 -5.6599,-16.2638 -24.7001,-39 -23.1122,-27.5985 -50.8177,-55.24342 -74.4932,-74.33047 -23.8738,-19.24687 -30.8175,-23.57004 -41.3521,-25.74592 -7.1607,-1.47902 -12.5352,-0.0626 -22.2781,5.87114 -21.984,13.38894 -70.9911,57.50035 -99.4587,89.52305 -17.4032,19.5766 -21.1417,24.4459 -24.9274,32.4677 -2.5754,5.4569 -2.9162,7.173 -2.5859,13.019 0.3416,6.0459 0.8562,7.4464 5.0388,13.7145 12.5744,18.8443 35.0896,43.5355 64.428,70.6548 27.4617,25.3845 49.9375,43.1949 63.1149,50.0139 8.7207,4.5128 15.0324,5.0035 22.2595,1.7305 z m -17.5,-8.8972 c -10.9437,-4.3382 -48.0435,-34.9951 -76.5,-63.2149 -20.5028,-20.3323 -43.2421,-46.2441 -48.589,-55.3678 -5.6622,-9.6617 -2.8931,-19.3532 9.9202,-34.7206 25.3813,-30.4404 53.1799,-57.5711 85.6688,-83.61043 15.1539,-12.14561 23.2678,-17.6265 30.364,-20.51059 5.3291,-2.16594 6.2773,-2.26584 10.9843,-1.15737 9.6356,2.26912 10.7185,3.0186 42.1517,29.17482 26.348,21.92467 45.331,40.40317 64.5582,62.84227 20.96,24.4615 24.9241,31.3602 23.5945,41.0611 -1.3224,9.648 -8.052,18.759 -35.9817,48.7152 -22.3592,23.9816 -46.8008,46.2771 -69.064,63.0001 -20.2449,15.2069 -27.1012,17.7545 -37.107,13.7882 z m 19.8184,-46.7709 c -0.2216,-5.3625 -0.8339,-15.8505 -1.3607,-23.3066 -0.5267,-7.4562 -0.9577,-16.3437 -0.9577,-19.75 v -6.1935 h -11 -11 v 12.25 c 0,6.7375 -0.2975,20.0125 -0.6574,29.5001 l -0.6543,17.25 h 13.018 13.0181 l -0.403,-9.75 z m 5.1816,-53.7509 c 29.1114,-3.3179 44.4463,-8.3502 53.7275,-17.6314 4.2398,-4.2398 4.7725,-5.2601 4.7725,-9.1402 0,-5.3056 -4.1162,-10.6686 -12.1405,-15.8177 l -5.1907,-3.3309 2.7899,-1.1404 2.7899,-1.1403 -2.3743,-0.6504 c -1.3058,-0.3576 -8.2243,-2.0224 -15.3743,-3.6995 -7.15,-1.6771 -13.781,-3.2798 -14.7356,-3.5616 -1.4428,-0.426 -1.17,0.8056 1.6172,7.3004 3.6057,8.4023 3.1204,8.111 11.2663,6.7632 3.4529,-0.5713 5.0168,-0.2135 9.3327,2.1356 2.8517,1.552 6.2726,4.1147 7.6021,5.6947 3.628,4.3116 3.1388,7.3709 -1.9601,12.2565 -10.2249,9.7971 -41.8079,16.5618 -67.1226,14.3768 -13.129,-1.1332 -29.869,-4.3318 -37.3817,-7.1427 -5.751,-2.1517 -11.5865,-6.9368 -12.5301,-10.2746 -1.5331,-5.423 8.3079,-13.5059 22.7206,-18.6614 l 8.8221,-3.1558 -4.3866,-2.7302 c -2.4125,-1.5016 -6.8295,-4.095 -9.8154,-5.763 l -5.4289,-3.0327 -8.1923,2.775 c -15.4859,5.2455 -28.4732,14.9828 -31.2645,23.4407 -1.0901,3.303 -0.9699,4.2081 1.1177,8.4159 4.1612,8.3874 15.2687,14.3769 36.5593,19.7139 20.3612,5.104 42.8881,6.495 64.7798,4.0001 z m -8.871,-18.2492 c -0.3157,-3.7125 -0.8615,-16.9875 -1.2128,-29.5 l -0.6388,-22.75 h 7.7183 c 6.9456,0 7.6496,-0.1752 7.0317,-1.75 -0.3776,-0.9625 -5.45,-14.4633 -11.2719,-30.0018 -5.8219,-15.53844 -10.7581,-28.07892 -10.9693,-27.86769 -0.3561,0.35612 -19.895,54.15689 -20.9614,57.71769 -0.3935,1.3138 0.7171,1.7099 6.2406,2.2257 3.6956,0.3451 6.927,0.8352 7.181,1.0891 0.502,0.5021 -1.4285,43.7947 -2.3339,52.337 l -0.5564,5.25 h 10.1735 10.1734 z"
           id="path851-9"
           sodipodi:nodetypes="ssssssssssssssssssscsssssssssssssssssssssssscsscccsscccccsssscccsssssssssssscsscssssssscsssssssscccs" />
      </g>
    </g>
  </g>
</svg>
