<?xml version="1.0" encoding="UTF-8" standalone="no"?>
<!-- Generator: Adobe Illustrator 28.1.0, SVG Export Plug-In . SVG Version: 6.00 Build 0)  -->

<svg
   version="1.1"
   id="Layer_1"
   x="0px"
   y="0px"
   viewBox="0 0 757.68316 218.47053"
   xml:space="preserve"
   sodipodi:docname="cass.svg"
   inkscape:version="1.2.2 (732a01da63, 2022-12-09)"
   width="757.68317"
   height="218.47052"
   xmlns:inkscape="http://www.inkscape.org/namespaces/inkscape"
   xmlns:sodipodi="http://sodipodi.sourceforge.net/DTD/sodipodi-0.dtd"
   xmlns="http://www.w3.org/2000/svg"
   xmlns:svg="http://www.w3.org/2000/svg"><defs
   id="defs11667" /><sodipodi:namedview
   id="namedview11665"
   pagecolor="#ffffff"
   bordercolor="#000000"
   borderopacity="0.25"
   inkscape:showpageshadow="2"
   inkscape:pageopacity="0.0"
   inkscape:pagecheckerboard="0"
   inkscape:deskcolor="#d1d1d1"
   showgrid="false"
   inkscape:zoom="0.48398262"
   inkscape:cx="-33.059039"
   inkscape:cy="151.86496"
   inkscape:window-width="1920"
   inkscape:window-height="1009"
   inkscape:window-x="-8"
   inkscape:window-y="-8"
   inkscape:window-maximized="1"
   inkscape:current-layer="Layer_1" />
<style
   type="text/css"
   id="style10549">
	.st0{fill-rule:evenodd;clip-rule:evenodd;fill:#FFFFFF;}
	.st1{fill:#FFFFFF;}
	.st2{opacity:0.5;}
	.st3{clip-path:url(#SVGID_00000155860669988972014370000002100703184730410130_);}
	.st4{clip-path:url(#SVGID_00000006670469456151031110000014280042088773626506_);}
	.st5{clip-path:url(#SVGID_00000062881756654051046550000005632501890102531218_);fill:#FFFFFF;}
	.st6{clip-path:url(#SVGID_00000060743490087118225600000008478116019890795933_);fill:#FFFFFF;}
	.st7{fill-rule:evenodd;clip-rule:evenodd;}
	.st8{clip-path:url(#SVGID_00000170963928186786060080000001300878254036231558_);}
	.st9{clip-path:url(#SVGID_00000119098496677086366070000018074916900843943353_);}
	.st10{clip-path:url(#SVGID_00000103972118116391585780000013597479626550776712_);}
	.st11{clip-path:url(#SVGID_00000173155332837594105380000017633581182191048596_);}
	.st12{fill-rule:evenodd;clip-rule:evenodd;fill:url(#SVGID_00000062166775041492417430000017520699121629651876_);}
	.st13{fill-rule:evenodd;clip-rule:evenodd;fill:#5F6062;}
	.st14{fill:#58595B;}
	.st15{fill:url(#SVGID_00000078005972118340853040000008987695450625376403_);}
	.st16{fill:url(#SVGID_00000119811931697541488010000012248227749571038394_);}
	.st17{clip-path:url(#SVGID_00000159427428053968674330000003403754865616328596_);}
	.st18{fill:#CEA36F;}
	.st19{fill:url(#SVGID_00000042706646450145252590000001594939885521223820_);}
	.st20{fill:url(#SVGID_00000092435764656652759040000010079504892268722362_);}
	.st21{fill:url(#SVGID_00000080915697560272423210000015490543212564989613_);}
	.st22{fill:url(#SVGID_00000047751620830600947160000012744822715970547082_);}
	.st23{fill:url(#SVGID_00000152943633024704918360000014777833002582974881_);}
	.st24{fill:url(#SVGID_00000054966210924213879460000003415334735059467432_);}
	.st25{fill:url(#SVGID_00000167376764607086305330000005881209966275324835_);}
	.st26{fill:url(#SVGID_00000034797269908376667010000017316143309191730580_);}
	.st27{fill:url(#SVGID_00000025432193815937748020000003959717956107689913_);}
	.st28{fill:url(#SVGID_00000132065458927108803540000011935335239197839768_);}
	.st29{fill:url(#SVGID_00000014605410221027435100000006598967213137613696_);}
	.st30{fill:url(#SVGID_00000062190981691595718860000008572244992426177926_);}
	.st31{fill:url(#SVGID_00000171688669444219535530000007766940076648897412_);}
	.st32{clip-path:url(#SVGID_00000157290247523915578140000003745093307053941660_);}
	.st33{fill:url(#SVGID_00000034793480197016304050000007802357447593970081_);}
	.st34{fill:url(#SVGID_00000159439533608799355950000011263072456888525494_);}
	.st35{fill:url(#SVGID_00000116923050094322521720000003690015690464888976_);}
	.st36{fill:url(#SVGID_00000114054779169801553500000004450618830434025603_);}
	.st37{fill:url(#SVGID_00000160165181768463034350000006499327312420064957_);}
	.st38{fill:url(#SVGID_00000098218001722723200850000001106164045300838038_);}
	.st39{fill:url(#SVGID_00000176765674826341907220000012930142464666261120_);}
	.st40{fill:url(#SVGID_00000028303604009314885530000002135870405573507206_);}
	.st41{fill:url(#SVGID_00000056404465829761682760000000202626109910959755_);}
	.st42{fill:url(#SVGID_00000132775214318355291700000016682293493504482692_);}
	.st43{fill:url(#SVGID_00000106126693698573234180000013968567947337681590_);}
	.st44{fill:url(#SVGID_00000149381193833377393310000005667237656713037226_);}
	.st45{fill:url(#SVGID_00000175318506596136161050000008109963088374412216_);}
	.st46{fill-rule:evenodd;clip-rule:evenodd;fill:url(#SVGID_00000039093838976312436200000014697072329894611602_);}
	.st47{fill:url(#SVGID_00000016068210876813181050000014777776563319001526_);}
	.st48{fill:url(#SVGID_00000152972428809337481210000016505504542152105603_);}
	.st49{fill:url(#SVGID_00000077300315374316801380000004768868950015488406_);}
	.st50{fill:url(#SVGID_00000182504335121752748210000013100127753298864316_);}
	.st51{fill:url(#SVGID_00000031890458204896083060000011966516063578347158_);}
	.st52{fill:url(#SVGID_00000150068849177698889130000005596798650903723414_);}
	.st53{fill:url(#SVGID_00000029029013303376175320000015036968372167276207_);}
	.st54{fill:url(#SVGID_00000083783468454894762970000003606574648371046062_);}
	.st55{fill:url(#SVGID_00000036933153166671983930000011177487117243635846_);}
	.st56{fill:url(#SVGID_00000076599849946626537620000007360565970780095632_);}
	.st57{clip-path:url(#SVGID_00000158727694872734932660000010222707481560202386_);}
	.st58{fill:url(#SVGID_00000124872804145170523980000004476944933331971215_);}
	.st59{fill:url(#SVGID_00000009554525494375064120000003054372825181350077_);}
	.st60{fill:url(#SVGID_00000011738327969704687710000004320713867986594957_);}
	.st61{fill:url(#SVGID_00000009581842537943575210000010685154807789680300_);}
	.st62{fill:url(#SVGID_00000026162238598788237790000008733479301417579450_);}
	.st63{fill:url(#SVGID_00000074429939175858174280000012397936988523022978_);}
	.st64{fill:url(#SVGID_00000088129385819272612660000015289934169530808736_);}
	.st65{fill:url(#SVGID_00000054245555863888923660000016914067830166291113_);}
	.st66{fill:url(#SVGID_00000060029074183496612340000000712726226068160929_);}
	.st67{fill:url(#SVGID_00000067947272267987628270000001385298397593145230_);}
	.st68{fill:url(#SVGID_00000052083524969372377530000003554555233217639353_);}
	.st69{fill:url(#SVGID_00000119102579323515602260000016447532519948812684_);}
	.st70{fill:url(#SVGID_00000096763658512932420090000013831642236576693890_);}
	.st71{clip-path:url(#SVGID_00000039844671756547650750000003767859209381193112_);}
	.st72{fill:url(#SVGID_00000057838625608717318970000011104319844299991714_);}
	.st73{fill:url(#SVGID_00000009578680251654768200000015078082287639229604_);}
	.st74{fill:url(#SVGID_00000153679881938076053330000015027350190212929941_);}
	.st75{fill:url(#SVGID_00000097495355575127328960000000942448973745057951_);}
	.st76{fill:url(#SVGID_00000176010646813026501680000015406410858395417728_);}
	.st77{fill:url(#SVGID_00000028320211307006956040000008866430966786722974_);}
	.st78{fill:url(#SVGID_00000010298932298712522420000009606753863525590702_);}
	.st79{fill:url(#SVGID_00000154408629460004533910000001807804049655114664_);}
	.st80{fill:url(#SVGID_00000031927528485106507620000014827674449142937998_);}
	.st81{fill:url(#SVGID_00000074403798554567376600000007623240983861126823_);}
	.st82{fill:url(#SVGID_00000116235789980670786000000016380810506072883600_);}
	.st83{fill:url(#SVGID_00000167377306550432038020000006546152356883496853_);}
	.st84{fill:url(#SVGID_00000178893069198784456900000001153033616150201249_);}
	.st85{fill-rule:evenodd;clip-rule:evenodd;fill:url(#SVGID_00000173873361654516130600000010270996866655383440_);}
	.st86{fill:url(#SVGID_00000133501787204930828850000004899085690762896262_);}
	.st87{fill:url(#SVGID_00000073713670069467034140000001170612041181618868_);}
	.st88{fill:url(#SVGID_00000058559183624106789080000008382747339301503380_);}
	.st89{fill:url(#SVGID_00000021087952087825960360000008881678612050778240_);}
	.st90{fill:url(#SVGID_00000062163974996177540340000012271022317414961042_);}
	.st91{fill:url(#SVGID_00000159435520817863052950000011592160692256442510_);}
	.st92{fill:url(#SVGID_00000105387513604570177330000012400297234789420459_);}
	.st93{fill:url(#SVGID_00000068666974873607418900000013376641025650159780_);}
	.st94{fill:url(#SVGID_00000160895929009356703280000000269014606627346570_);}
	.st95{fill:url(#SVGID_00000038409202611020770500000006629999648796221870_);}
	.st96{fill:url(#SVGID_00000122712794444611025140000014550376884669370301_);}
	.st97{fill:url(#SVGID_00000169516486638192119870000008812030389362890123_);}
	.st98{fill:url(#SVGID_00000126299060976871168840000004691083913533819313_);}
	.st99{fill:url(#SVGID_00000102531999492027044500000017039652719625995417_);}
	.st100{fill:url(#SVGID_00000147908248390993733750000006142678793637438125_);}
	.st101{fill:url(#SVGID_00000153691160733431793640000000332174069661773479_);}
	.st102{fill:url(#SVGID_00000116941112615461747740000004178941259728085423_);}
	.st103{fill:url(#SVGID_00000121239999645273641190000008116587741464178341_);}
	.st104{fill:url(#SVGID_00000070840950138623543490000009331920557935672985_);}
	.st105{fill:url(#SVGID_00000016038363564048655750000016868148755848859807_);}
	.st106{fill:url(#SVGID_00000095336563078550459350000013550265292745970578_);}
	.st107{fill:url(#SVGID_00000002380332179706334890000014721092099672667536_);}
	.st108{fill:url(#SVGID_00000020374816352137310060000017722549356646011266_);}
	.st109{fill:url(#SVGID_00000075843414430275423830000000769645853223900839_);}
	.st110{fill:url(#SVGID_00000007411396338670468200000017130758386952337035_);}
	.st111{fill:url(#SVGID_00000164484486498446793150000011176198047592471687_);}
	.st112{fill:none;stroke:url(#SVGID_00000018228924241557931420000008597425402519337857_);stroke-miterlimit:10;}
	.st113{fill:url(#SVGID_00000023982749681892555130000006249343219064295314_);}
	.st114{fill:url(#SVGID_00000019661196484951912720000000135005235874063536_);}
</style>


<g
   id="g11584"
   transform="translate(-418.77683,-69.81)">
	
		<linearGradient
   id="SVGID_00000179646197378749806340000001727527554794982283_"
   gradientUnits="userSpaceOnUse"
   x1="419.83279"
   y1="215.2581"
   x2="612.38953"
   y2="215.2581">
		<stop
   offset="0"
   style="stop-color:#7AC143"
   id="stop11507" />
		<stop
   offset="1"
   style="stop-color:#008752"
   id="stop11509" />
	</linearGradient>
	<path
   style="clip-rule:evenodd;fill:url(#SVGID_00000179646197378749806340000001727527554794982283_);fill-rule:evenodd"
   d="m 419.83,222.18 11.38,38.52 c 12.54,42.46 154.01,43.32 181.18,-50.68 l -22.78,-67.77 c -0.89,3.32 -2.04,6.63 -3.41,9.88 -20.42,61.08 -127.04,107.58 -166.37,70.05"
   id="path11512" />
	<path
   class="st13"
   d="m 583.72,130.02 -12.4,-57.5 c 2.98,-2.21 -68.67,11.24 -128.49,61.42 -20.74,32.93 -35.8,72.69 18.32,85.29 34.58,8.05 83.32,-18.65 108.5,-58.21 -4.84,3.32 -9.49,6.47 -12.13,10.02 -45.58,61.27 -144.33,44.73 -74.21,-17.13 22.55,-19.91 71.23,-31.42 100.41,-23.89"
   id="path11514" />
	<path
   class="st7"
   d="M 579.61,126.2 566.98,69.81 c -68.37,13.1 -147.5,66.21 -148.19,104.45 -0.53,27.98 14.98,43.65 38.2,48.86 41.17,9.25 114.37,-32.01 127,-83.59 l -11.2,-0.79 c -27.32,97.4 -173.05,83.41 -93.42,12.09 22.41,-20.06 71,-31.94 100.24,-24.63"
   id="path11516" />
	<path
   class="st7"
   d="m 1039.55,145.59 h 113.89 v -0.04 h 22.79 v 33.76 l 0.21,11.62 c 0,22.78 -13.32,34.19 -39.88,34.19 h -39.91 -79.75 l -0.25,-22.55 h 106.21 15.49 c 10.06,0 15.07,-5.81 15.07,-17.34 v -17.1 h -113.98 v 0 h -22.55 V 134.4 l -0.25,-11.62 c 0,-22.78 13.28,-34.2 39.88,-34.2 h 39.87 79.82 l 0.21,22.57 h -106.21 -15.49 c -10.05,0 -15.11,5.75 -15.15,17.2 z"
   id="path11518" />
	<path
   class="st7"
   d="m 938.64,111.38 c -4.01,-8 -7.22,-13.29 -9.56,-15.95 -3.49,-3.95 -7.91,-6.23 -13.24,-6.85 -5.22,0.62 -9.66,2.94 -13.21,6.96 -2.42,2.81 -5.63,8.1 -9.58,15.84 L 836.1,225.13 h 22.54 1.04 l 10.34,-22.82 6.34,-12.5 h 78.6 l 5.26,10.52 13.32,24.8 h 22.09 z m -50.75,55.71 22.49,-44.31 c 2.19,-4.32 4.05,-6.49 5.59,-6.49 1.52,0 3.38,2.17 5.6,6.49 l 22.09,44.31 z"
   id="path11520" />
	<path
   class="st7"
   d="m 791.78,111.15 h -7.16 -8.18 v 0.05 l -41.54,0.08 c -38.08,-0.08 -57.08,15.06 -57.08,45.46 0,30.39 19,45.57 56.95,45.57 h 79.8 v 22.82 l -79.68,0.1 c -53.1,0.06 -79.62,-22.65 -79.62,-68.28 0,-45.57 26.34,-68.43 79.08,-68.57 h 80.22 v 17.05 5.72 z"
   id="path11522" />
	<g
   id="g11582">
		<rect
   x="655.28003"
   y="249.92999"
   width="2.55"
   height="19.389999"
   id="rect11524" />
		<polygon
   points="676.44,249.91 676.44,252.21 664.98,252.21 664.98,258.14 675.69,258.14 675.69,260.43 664.98,260.43 664.98,267.03 676.88,267.03 676.88,269.33 662.41,269.33 662.41,249.91 "
   id="polygon11526" />
		<polygon
   points="694.52,249.91 694.52,252.21 683.04,252.21 683.04,258.14 693.77,258.14 693.77,260.43 683.04,260.43 683.04,267.03 694.94,267.03 694.94,269.33 680.49,269.33 680.49,249.91 "
   id="polygon11528" />
		<polygon
   points="712.56,249.91 712.56,252.21 701.12,252.21 701.12,258.14 711.85,258.14 711.85,260.43 701.12,260.43 701.12,267.03 713.02,267.03 713.02,269.33 698.57,269.33 698.57,249.91 "
   id="polygon11530" />
		<path
   d="m 737.94,262.51 2.57,0.67 c -0.52,2.08 -1.5,3.69 -2.89,4.8 -1.42,1.1 -3.11,1.67 -5.14,1.67 -2.09,0 -3.8,-0.41 -5.09,-1.29 -1.32,-0.83 -2.34,-2.09 -3,-3.67 -0.67,-1.63 -1,-3.36 -1,-5.22 0,-2.01 0.38,-3.78 1.13,-5.28 0.79,-1.5 1.88,-2.65 3.32,-3.43 1.42,-0.76 2.99,-1.16 4.7,-1.16 1.94,0 3.56,0.48 4.88,1.47 1.33,1 2.25,2.38 2.77,4.18 l -2.52,0.57 c -0.47,-1.41 -1.09,-2.43 -1.97,-3.08 -0.84,-0.63 -1.92,-0.97 -3.21,-0.97 -1.5,0 -2.76,0.36 -3.76,1.09 -1,0.69 -1.71,1.68 -2.09,2.86 -0.42,1.22 -0.63,2.45 -0.63,3.74 0,1.63 0.26,3.09 0.73,4.29 0.48,1.26 1.23,2.17 2.23,2.78 1,0.6 2.13,0.89 3.3,0.89 1.44,0 2.65,-0.41 3.67,-1.25 0.96,-0.79 1.63,-2.02 2,-3.66"
   id="path11532" />
		<rect
   x="744.12"
   y="249.92999"
   width="2.55"
   height="19.389999"
   id="rect11534" />
		<path
   d="m 751.24,269.33 v -19.42 h 8.61 c 1.73,0 3.03,0.22 3.94,0.54 0.89,0.34 1.59,0.97 2.15,1.85 0.53,0.87 0.8,1.86 0.8,2.92 0,1.37 -0.44,2.54 -1.31,3.45 -0.9,0.97 -2.3,1.55 -4.13,1.82 0.66,0.31 1.19,0.66 1.54,0.98 0.75,0.68 1.46,1.55 2.13,2.58 l 3.38,5.28 h -3.23 l -2.57,-4.06 c -0.75,-1.15 -1.38,-2.04 -1.86,-2.66 -0.48,-0.61 -0.9,-1.05 -1.28,-1.3 -0.42,-0.25 -0.8,-0.41 -1.17,-0.51 -0.33,-0.05 -0.79,-0.1 -1.46,-0.1 h -2.97 v 8.63 z m 2.57,-10.87 h 5.51 c 1.17,0 2.09,-0.08 2.76,-0.33 0.66,-0.26 1.17,-0.67 1.5,-1.18 0.33,-0.53 0.52,-1.13 0.52,-1.74 0,-0.92 -0.31,-1.68 -1,-2.26 -0.66,-0.59 -1.73,-0.88 -3.15,-0.88 h -6.14 z"
   id="path11536" />
		<path
   d="m 784.6,262.51 2.56,0.67 c -0.54,2.08 -1.5,3.69 -2.9,4.8 -1.39,1.1 -3.11,1.67 -5.13,1.67 -2.09,0 -3.77,-0.41 -5.12,-1.29 -1.3,-0.83 -2.29,-2.09 -2.96,-3.67 -0.71,-1.63 -1.04,-3.36 -1.04,-5.22 0,-2.01 0.41,-3.78 1.17,-5.28 0.77,-1.5 1.88,-2.65 3.3,-3.43 1.42,-0.76 2.97,-1.16 4.68,-1.16 1.96,0 3.59,0.48 4.92,1.47 1.32,1 2.26,2.38 2.75,4.18 l -2.5,0.57 c -0.49,-1.41 -1.13,-2.43 -1.97,-3.08 -0.87,-0.63 -1.94,-0.97 -3.23,-0.97 -1.52,0 -2.74,0.36 -3.73,1.09 -1,0.69 -1.72,1.68 -2.13,2.86 -0.39,1.22 -0.59,2.45 -0.59,3.74 0,1.63 0.23,3.09 0.72,4.29 0.5,1.26 1.23,2.17 2.25,2.78 1,0.6 2.11,0.89 3.28,0.89 1.44,0 2.65,-0.41 3.65,-1.25 1,-0.79 1.67,-2.02 2.02,-3.66"
   id="path11538" />
		<path
   d="m 803.05,249.93 h 2.57 v 11.21 c 0,1.91 -0.22,3.46 -0.66,4.63 -0.43,1.14 -1.22,2.09 -2.38,2.8 -1.17,0.71 -2.67,1.08 -4.55,1.08 -1.8,0 -3.28,-0.33 -4.43,-0.96 -1.17,-0.61 -2.01,-1.52 -2.49,-2.72 -0.48,-1.16 -0.73,-2.79 -0.73,-4.83 v -11.21 h 2.55 v 11.17 c 0,1.7 0.17,2.94 0.48,3.76 0.31,0.79 0.86,1.39 1.61,1.82 0.75,0.42 1.71,0.63 2.79,0.63 1.88,0 3.22,-0.41 4.05,-1.27 0.79,-0.86 1.19,-2.49 1.19,-4.94 z"
   id="path11540" />
		<rect
   x="810.32001"
   y="249.92999"
   width="2.5699999"
   height="19.389999"
   id="rect11542" />
		<polygon
   points="815.98,252.21 815.98,249.91 831.34,249.91 831.34,252.21 824.91,252.21 824.91,269.33 822.36,269.33 822.36,252.21 "
   id="polygon11544" />
		<path
   d="m 833.1,263.08 2.42,-0.19 c 0.12,0.96 0.37,1.75 0.79,2.36 0.42,0.62 1.09,1.14 1.97,1.51 0.87,0.38 1.87,0.54 2.97,0.54 1,0 1.86,-0.12 2.61,-0.41 0.75,-0.29 1.31,-0.67 1.67,-1.19 0.36,-0.53 0.56,-1.06 0.56,-1.64 0,-0.63 -0.18,-1.16 -0.54,-1.61 -0.36,-0.44 -0.91,-0.84 -1.76,-1.15 -0.5,-0.2 -1.65,-0.51 -3.46,-0.94 -1.76,-0.43 -3.01,-0.83 -3.72,-1.22 -0.94,-0.48 -1.63,-1.08 -2.09,-1.81 -0.46,-0.71 -0.66,-1.51 -0.66,-2.43 0,-0.96 0.26,-1.87 0.83,-2.71 0.54,-0.87 1.35,-1.51 2.42,-1.96 1.09,-0.41 2.26,-0.67 3.57,-0.67 1.44,0 2.69,0.25 3.82,0.7 1.08,0.47 1.93,1.13 2.5,2.05 0.59,0.89 0.93,1.92 0.96,3.05 l -2.46,0.18 c -0.13,-1.23 -0.59,-2.15 -1.34,-2.78 -0.77,-0.63 -1.88,-0.93 -3.38,-0.93 -1.55,0 -2.67,0.29 -3.4,0.85 -0.71,0.56 -1.07,1.25 -1.07,2.04 0,0.71 0.26,1.3 0.75,1.74 0.51,0.44 1.77,0.89 3.89,1.38 2.08,0.48 3.5,0.89 4.3,1.23 1.11,0.54 1.94,1.21 2.48,2.01 0.55,0.79 0.82,1.7 0.82,2.75 0,1.02 -0.3,2 -0.88,2.9 -0.61,0.89 -1.46,1.6 -2.57,2.14 -1.1,0.51 -2.35,0.76 -3.71,0.76 -1.78,0 -3.24,-0.25 -4.41,-0.77 -1.21,-0.52 -2.13,-1.27 -2.8,-2.32 -0.67,-0.97 -1.04,-2.15 -1.08,-3.46"
   id="path11546" />
		<path
   d="m 855.95,269.33 7.45,-19.39 h 2.76 l 7.93,19.39 h -2.92 l -2.25,-5.88 h -8.1 l -2.15,5.88 z m 5.58,-7.98 h 6.6 l -2.02,-5.34 c -0.62,-1.68 -1.06,-2.99 -1.38,-4.06 -0.27,1.26 -0.61,2.49 -1.05,3.72 z"
   id="path11548" />
		<polygon
   points="878.75,249.91 888.95,265.14 888.95,249.91 891.42,249.91 891.42,269.33 888.77,269.33 878.58,254.08 878.58,269.33 876.14,269.33 876.14,249.91 "
   id="polygon11550" />
		<path
   d="m 895.72,269.33 v -19.42 h 6.68 c 1.5,0 2.65,0.12 3.44,0.29 1.13,0.25 2.07,0.71 2.84,1.38 1.02,0.87 1.82,1.96 2.29,3.33 0.52,1.34 0.77,2.88 0.77,4.6 0,1.46 -0.16,2.79 -0.52,3.93 -0.35,1.11 -0.78,2.08 -1.32,2.81 -0.54,0.73 -1.13,1.34 -1.78,1.75 -0.65,0.44 -1.4,0.78 -2.32,0.98 -0.9,0.21 -1.92,0.35 -3.12,0.35 z m 2.57,-2.3 h 4.13 c 1.27,0 2.3,-0.13 3.01,-0.35 0.73,-0.23 1.31,-0.57 1.75,-1.01 0.6,-0.6 1.06,-1.44 1.42,-2.46 0.35,-1.02 0.52,-2.27 0.52,-3.73 0,-2.03 -0.35,-3.59 -1,-4.68 -0.69,-1.08 -1.5,-1.8 -2.45,-2.17 -0.68,-0.29 -1.79,-0.41 -3.31,-0.41 h -4.07 z"
   id="path11552" />
		<path
   d="m 921.94,263.08 2.39,-0.19 c 0.15,0.96 0.4,1.75 0.82,2.36 0.41,0.62 1.08,1.14 1.96,1.51 0.87,0.38 1.87,0.54 2.97,0.54 0.96,0 1.83,-0.12 2.58,-0.41 0.76,-0.29 1.3,-0.67 1.68,-1.19 0.37,-0.53 0.54,-1.06 0.54,-1.64 0,-0.63 -0.17,-1.16 -0.5,-1.61 -0.38,-0.44 -0.96,-0.84 -1.75,-1.15 -0.54,-0.2 -1.67,-0.51 -3.46,-0.94 -1.8,-0.43 -3.01,-0.83 -3.72,-1.22 -0.96,-0.48 -1.62,-1.08 -2.09,-1.81 -0.46,-0.71 -0.69,-1.51 -0.69,-2.43 0,-0.96 0.28,-1.87 0.84,-2.71 0.56,-0.87 1.35,-1.51 2.44,-1.96 1.05,-0.41 2.26,-0.67 3.56,-0.67 1.44,0 2.71,0.25 3.82,0.7 1.09,0.47 1.94,1.13 2.52,2.05 0.59,0.89 0.92,1.92 0.97,3.05 l -2.47,0.18 c -0.17,-1.23 -0.59,-2.15 -1.36,-2.78 -0.77,-0.63 -1.9,-0.93 -3.38,-0.93 -1.54,0 -2.67,0.29 -3.41,0.85 -0.71,0.56 -1.04,1.25 -1.04,2.04 0,0.71 0.25,1.3 0.75,1.74 0.48,0.44 1.8,0.89 3.87,1.38 2.08,0.48 3.52,0.89 4.27,1.23 1.15,0.54 1.98,1.21 2.51,2.01 0.54,0.79 0.84,1.7 0.84,2.75 0,1.02 -0.29,2 -0.92,2.9 -0.58,0.89 -1.42,1.6 -2.55,2.14 -1.09,0.51 -2.34,0.76 -3.71,0.76 -1.76,0 -3.24,-0.25 -4.43,-0.77 -1.17,-0.52 -2.11,-1.27 -2.8,-2.32 -0.68,-0.97 -1,-2.15 -1.05,-3.46"
   id="path11554" />
		<path
   d="m 946.37,269.33 v -8.22 l -7.5,-11.2 h 3.11 l 3.84,5.84 c 0.68,1.1 1.34,2.22 1.95,3.3 0.59,-0.99 1.3,-2.15 2.14,-3.43 l 3.75,-5.71 h 2.99 l -7.74,11.2 v 8.22 z"
   id="path11556" />
		<path
   d="m 958.09,263.08 2.42,-0.19 c 0.08,0.96 0.33,1.75 0.79,2.36 0.41,0.62 1.05,1.14 1.96,1.51 0.88,0.38 1.86,0.54 2.96,0.54 0.98,0 1.84,-0.12 2.57,-0.41 0.77,-0.29 1.32,-0.67 1.7,-1.19 0.37,-0.53 0.54,-1.06 0.54,-1.64 0,-0.63 -0.17,-1.16 -0.54,-1.61 -0.34,-0.44 -0.92,-0.84 -1.71,-1.15 -0.54,-0.2 -1.7,-0.51 -3.46,-0.94 -1.78,-0.43 -3.03,-0.83 -3.77,-1.22 -0.92,-0.48 -1.6,-1.08 -2.06,-1.81 -0.43,-0.71 -0.64,-1.51 -0.64,-2.43 0,-0.96 0.25,-1.87 0.79,-2.71 0.56,-0.87 1.37,-1.51 2.46,-1.96 1.05,-0.41 2.26,-0.67 3.55,-0.67 1.41,0 2.7,0.25 3.8,0.7 1.09,0.47 1.96,1.13 2.55,2.05 0.58,0.89 0.9,1.92 0.96,3.05 l -2.46,0.18 c -0.17,-1.23 -0.61,-2.15 -1.36,-2.78 -0.77,-0.63 -1.9,-0.93 -3.36,-0.93 -1.59,0 -2.71,0.29 -3.42,0.85 -0.71,0.56 -1.05,1.25 -1.05,2.04 0,0.71 0.25,1.3 0.76,1.74 0.5,0.44 1.75,0.89 3.83,1.38 2.09,0.48 3.53,0.89 4.31,1.23 1.16,0.54 1.96,1.21 2.5,2.01 0.54,0.79 0.8,1.7 0.8,2.75 0,1.02 -0.27,2 -0.88,2.9 -0.58,0.89 -1.43,1.6 -2.54,2.14 -1.08,0.51 -2.34,0.76 -3.71,0.76 -1.75,0 -3.25,-0.25 -4.42,-0.77 -1.19,-0.52 -2.11,-1.27 -2.8,-2.32 -0.69,-0.97 -1.02,-2.15 -1.07,-3.46"
   id="path11558" />
		<polygon
   points="975.59,252.21 975.59,249.91 990.95,249.91 990.95,252.21 984.53,252.21 984.53,269.33 981.98,269.33 981.98,252.21 "
   id="polygon11560" />
		<polygon
   points="1007.65,249.91 1007.65,252.21 996.19,252.21 996.19,258.14 1006.9,258.14 1006.9,260.43 996.19,260.43 996.19,267.03 1008.11,267.03 1008.11,269.33 993.62,269.33 993.62,249.91 "
   id="polygon11562" />
		<path
   d="m 1011.56,269.33 v -19.42 h 3.86 l 4.59,13.74 c 0.42,1.29 0.75,2.25 0.92,2.88 0.23,-0.71 0.57,-1.76 1.04,-3.14 l 4.63,-13.48 h 3.47 v 19.42 h -2.48 v -16.24 l -5.62,16.24 h -2.34 l -5.6,-16.52 v 16.52 z"
   id="path11564" />
		<path
   d="m 1033.33,263.08 2.43,-0.19 c 0.12,0.96 0.37,1.75 0.81,2.36 0.42,0.62 1.07,1.14 1.94,1.51 0.88,0.38 1.89,0.54 2.97,0.54 1,0 1.85,-0.12 2.58,-0.41 0.77,-0.29 1.32,-0.67 1.69,-1.19 0.36,-0.53 0.57,-1.06 0.57,-1.64 0,-0.63 -0.19,-1.16 -0.54,-1.61 -0.33,-0.44 -0.94,-0.84 -1.75,-1.15 -0.5,-0.2 -1.67,-0.51 -3.44,-0.94 -1.78,-0.43 -3.03,-0.83 -3.74,-1.22 -0.92,-0.48 -1.63,-1.08 -2.09,-1.81 -0.46,-0.71 -0.67,-1.51 -0.67,-2.43 0,-0.96 0.27,-1.87 0.84,-2.71 0.54,-0.87 1.38,-1.51 2.42,-1.96 1.07,-0.41 2.25,-0.67 3.55,-0.67 1.46,0 2.71,0.25 3.84,0.7 1.09,0.47 1.92,1.13 2.5,2.05 0.61,0.89 0.92,1.92 0.96,3.05 l -2.46,0.18 c -0.13,-1.23 -0.59,-2.15 -1.34,-2.78 -0.77,-0.63 -1.88,-0.93 -3.38,-0.93 -1.55,0 -2.67,0.29 -3.4,0.85 -0.71,0.56 -1.06,1.25 -1.06,2.04 0,0.71 0.25,1.3 0.75,1.74 0.51,0.44 1.8,0.89 3.89,1.38 2.06,0.48 3.51,0.89 4.29,1.23 1.13,0.54 1.96,1.21 2.51,2.01 0.52,0.79 0.79,1.7 0.79,2.75 0,1.02 -0.29,2 -0.88,2.9 -0.63,0.89 -1.46,1.6 -2.56,2.14 -1.09,0.51 -2.34,0.76 -3.73,0.76 -1.77,0 -3.24,-0.25 -4.41,-0.77 -1.19,-0.52 -2.11,-1.27 -2.79,-2.32 -0.67,-0.97 -1.05,-2.15 -1.09,-3.46"
   id="path11566" />
		<path
   d="m 1058.93,263.08 2.42,-0.19 c 0.12,0.96 0.38,1.75 0.81,2.36 0.4,0.62 1.07,1.14 1.95,1.51 0.87,0.38 1.88,0.54 2.98,0.54 0.98,0 1.86,-0.12 2.56,-0.41 0.78,-0.29 1.34,-0.67 1.71,-1.19 0.34,-0.53 0.55,-1.06 0.55,-1.64 0,-0.63 -0.17,-1.16 -0.55,-1.61 -0.33,-0.44 -0.91,-0.84 -1.72,-1.15 -0.53,-0.2 -1.69,-0.51 -3.47,-0.94 -1.77,-0.43 -3.02,-0.83 -3.74,-1.22 -0.92,-0.48 -1.62,-1.08 -2.09,-1.81 -0.43,-0.71 -0.66,-1.51 -0.66,-2.43 0,-0.96 0.29,-1.87 0.83,-2.71 0.54,-0.87 1.38,-1.51 2.42,-1.96 1.08,-0.41 2.27,-0.67 3.55,-0.67 1.46,0 2.73,0.25 3.84,0.7 1.09,0.47 1.92,1.13 2.53,2.05 0.56,0.89 0.9,1.92 0.94,3.05 l -2.47,0.18 c -0.12,-1.23 -0.57,-2.15 -1.33,-2.78 -0.76,-0.63 -1.88,-0.93 -3.39,-0.93 -1.55,0 -2.67,0.29 -3.38,0.85 -0.72,0.56 -1.09,1.25 -1.09,2.04 0,0.71 0.26,1.3 0.76,1.74 0.52,0.44 1.79,0.89 3.88,1.38 2.08,0.48 3.52,0.89 4.28,1.23 1.15,0.54 1.99,1.21 2.51,2.01 0.57,0.79 0.81,1.7 0.81,2.75 0,1.02 -0.29,2 -0.87,2.9 -0.59,0.89 -1.45,1.6 -2.55,2.14 -1.13,0.51 -2.36,0.76 -3.74,0.76 -1.78,0 -3.24,-0.25 -4.41,-0.77 -1.21,-0.52 -2.13,-1.27 -2.8,-2.32 -0.68,-0.97 -1.03,-2.15 -1.07,-3.46"
   id="path11568" />
		<path
   d="m 1077.09,259.89 c 0,-3.24 0.87,-5.77 2.61,-7.55 1.73,-1.84 3.94,-2.76 6.7,-2.76 1.78,0 3.4,0.42 4.84,1.29 1.42,0.83 2.53,2.03 3.28,3.56 0.75,1.53 1.12,3.27 1.12,5.2 0,1.96 -0.4,3.73 -1.19,5.3 -0.8,1.55 -1.93,2.72 -3.39,3.51 -1.43,0.8 -3.02,1.21 -4.69,1.21 -1.82,0 -3.45,-0.47 -4.91,-1.34 -1.41,-0.88 -2.5,-2.09 -3.25,-3.61 -0.75,-1.51 -1.12,-3.15 -1.12,-4.81 m 2.67,0.04 c 0,2.32 0.63,4.18 1.88,5.51 1.25,1.33 2.84,2 4.72,2 1.96,0 3.51,-0.67 4.75,-2.02 1.26,-1.35 1.9,-3.31 1.9,-5.79 0,-1.58 -0.27,-2.96 -0.81,-4.14 -0.55,-1.16 -1.31,-2.09 -2.34,-2.75 -1.05,-0.63 -2.19,-0.97 -3.46,-0.97 -1.8,0 -3.38,0.64 -4.68,1.88 -1.31,1.26 -1.96,3.35 -1.96,6.28"
   id="path11570" />
		<path
   d="m 1112.78,262.51 2.59,0.67 c -0.54,2.08 -1.5,3.69 -2.92,4.8 -1.38,1.1 -3.09,1.67 -5.12,1.67 -2.1,0 -3.82,-0.41 -5.12,-1.29 -1.28,-0.83 -2.29,-2.09 -2.97,-3.67 -0.67,-1.63 -1.03,-3.36 -1.03,-5.22 0,-2.01 0.4,-3.78 1.17,-5.28 0.75,-1.5 1.86,-2.65 3.3,-3.43 1.42,-0.76 2.97,-1.16 4.67,-1.16 1.97,0 3.6,0.48 4.94,1.47 1.3,1 2.21,2.38 2.76,4.18 l -2.55,0.57 c -0.42,-1.41 -1.09,-2.43 -1.94,-3.08 -0.86,-0.63 -1.94,-0.97 -3.24,-0.97 -1.48,0 -2.73,0.36 -3.71,1.09 -1.03,0.69 -1.71,1.68 -2.14,2.86 -0.4,1.22 -0.62,2.45 -0.62,3.74 0,1.63 0.25,3.09 0.75,4.29 0.46,1.26 1.22,2.17 2.22,2.78 1.04,0.6 2.13,0.89 3.32,0.89 1.44,0 2.64,-0.41 3.65,-1.25 0.98,-0.79 1.66,-2.02 1.99,-3.66"
   id="path11572" />
		<rect
   x="1118.96"
   y="249.92999"
   width="2.55"
   height="19.389999"
   id="rect11574" />
		<polygon
   points="1140.13,249.91 1140.13,252.21 1128.67,252.21 1128.67,258.14 1139.38,258.14 1139.38,260.43 1128.67,260.43 1128.67,267.03 1140.59,267.03 1140.59,269.33 1126.1,269.33 1126.1,249.91 "
   id="polygon11576" />
		<polygon
   points="1142.68,252.21 1142.68,249.91 1158.04,249.91 1158.04,252.21 1151.61,252.21 1151.61,269.33 1149.07,269.33 1149.07,252.21 "
   id="polygon11578" />
		<path
   d="m 1166.12,269.33 v -8.22 l -7.45,-11.2 h 3.1 l 3.83,5.84 c 0.7,1.1 1.38,2.22 1.96,3.3 0.59,-0.99 1.3,-2.15 2.14,-3.43 l 3.75,-5.71 h 3.01 l -7.77,11.2 v 8.22 z"
   id="path11580" />
	</g>
</g>


<linearGradient
   id="SVGID_00000005967460944562206050000016315129611754158494_"
   gradientUnits="userSpaceOnUse"
   x1="401.90311"
   y1="286.55099"
   x2="554.47449"
   y2="62.665298">
	<stop
   offset="0"
   style="stop-color:#7AC143"
   id="stop11636" />
	<stop
   offset="1"
   style="stop-color:#008752"
   id="stop11638" />
</linearGradient>

<linearGradient
   id="SVGID_00000054233622889066318580000005242850352023502515_"
   gradientUnits="userSpaceOnUse"
   x1="211.6405"
   y1="276.85059"
   x2="357.69769"
   y2="65.650703">
	<stop
   offset="0"
   style="stop-color:#008752"
   id="stop11643" />
	<stop
   offset="1"
   style="stop-color:#7AC143"
   id="stop11645" />
</linearGradient>

<linearGradient
   id="SVGID_00000012463287484670671970000016143007382355303845_"
   gradientUnits="userSpaceOnUse"
   x1="381.75961"
   y1="272.8237"
   x2="534.33099"
   y2="48.938">
	<stop
   offset="0"
   style="stop-color:#7AC143"
   id="stop11650" />
	<stop
   offset="1"
   style="stop-color:#008752"
   id="stop11652" />
</linearGradient>

<linearGradient
   id="SVGID_00000085962996361840429990000006394372396079503240_"
   gradientUnits="userSpaceOnUse"
   x1="180.827"
   y1="255.54131"
   x2="326.88419"
   y2="44.341301">
	<stop
   offset="0"
   style="stop-color:#008752"
   id="stop11657" />
	<stop
   offset="1"
   style="stop-color:#7AC143"
   id="stop11659" />
</linearGradient>

</svg>
