<svg version="1.1" width="196" height="52" xmlns="http://www.w3.org/2000/svg" xmlns:xlink="http://www.w3.org/1999/xlink" overflow="hidden"><g transform="matrix(1,0,0,1,615,-208)"><path d=" M 64.6027 35.7185 L 61.1189 35.7185 L 61.1189 36.7714 C 61.1189 37.2619 61.0734 37.5739 60.983 37.7083 C 60.8932 37.8426 60.7428 37.9101 60.5331 37.9101 C 60.3045 37.9101 60.1322 37.8195 60.0145 37.64 C 59.8975 37.4592 59.8385 37.1861 59.8385 36.8209 C 59.8385 36.3494 59.9048 35.9946 60.0378 35.7564 C 60.1641 35.5184 60.5186 35.2292 61.0998 34.8908 C 62.7697 33.914 63.8203 33.1129 64.2559 32.4901 C 64.6894 31.8665 64.9066 30.8613 64.9066 29.4748 C 64.9066 28.4656 64.7865 27.723 64.5455 27.2458 C 64.3051 26.7668 63.8394 26.3669 63.1498 26.0438 C 62.4607 25.7194 61.6578 25.5583 60.742 25.5583 C 59.7371 25.5583 58.8801 25.7445 58.1693 26.1176 C 57.4589 26.4914 56.9942 26.9671 56.7743 27.544 C 56.5538 28.1207 56.4441 28.9405 56.4441 30.0025 L 56.4441 30.9296 L 59.9279 30.9296 L 59.9279 29.2042 C 59.9279 28.6732 59.9763 28.3318 60.0748 28.1804 C 60.1724 28.0288 60.3469 27.9524 60.5954 27.9524 C 60.8444 27.9524 61.03 28.0479 61.1515 28.2409 C 61.2735 28.4332 61.334 28.7191 61.334 29.0975 C 61.334 29.9314 61.218 30.4757 60.9865 30.733 C 60.7496 30.9896 60.1644 31.4181 59.2325 32.0181 C 58.3006 32.6234 57.6838 33.0637 57.3806 33.3373 C 57.0773 33.6115 56.8265 33.9908 56.6279 34.4741 C 56.4286 34.9576 56.3294 35.5752 56.3294 36.3273 C 56.3294 37.4108 56.4718 38.2029 56.7537 38.7047 C 57.0371 39.2057 57.4936 39.5971 58.1239 39.8798 C 58.7538 40.163 59.5157 40.3041 60.4084 40.3041 C 61.3842 40.3041 62.2159 40.1492 62.9025 39.8414 C 63.5901 39.5316 64.0448 39.1412 64.2678 38.6718 C 64.4908 38.2023 64.6027 37.404 64.6027 36.2786 L 64.6027 35.7185" fill="#5D6369" transform="matrix(1.00513,0,0,-1,-615,259.909)"/><path d=" M 70.9375 36.3714 C 70.9375 37.0297 70.8996 37.4507 70.8244 37.635 C 70.7485 37.818 70.5949 37.9101 70.3604 37.9101 C 70.1618 37.9101 70.0095 37.8351 69.9047 37.6869 C 69.7993 37.5388 69.746 37.0995 69.746 36.3714 L 69.746 29.7625 C 69.746 28.9398 69.7813 28.4332 69.8501 28.2409 C 69.9195 28.0479 70.0795 27.9524 70.3334 27.9524 C 70.5917 27.9524 70.7575 28.0637 70.8295 28.2851 C 70.9015 28.5058 70.9375 29.0335 70.9375 29.8674 Z M 74.6868 31.7204 C 74.6868 30.2984 74.6534 29.292 74.584 28.7008 C 74.5165 28.1094 74.3019 27.5684 73.942 27.0791 C 73.5821 26.5888 73.0956 26.2143 72.4825 25.9514 C 71.8706 25.6893 71.156 25.5583 70.3411 25.5583 C 69.5686 25.5583 68.8739 25.6815 68.2582 25.9298 C 67.6425 26.1773 67.147 26.5489 66.7723 27.044 C 66.3976 27.5395 66.1746 28.078 66.1039 28.6617 C 66.0326 29.2438 65.9966 30.2635 65.9966 31.7204 L 65.9966 34.1422 C 65.9966 35.5633 66.0313 36.5705 66.0988 37.162 C 66.1676 37.7534 66.3822 38.2939 66.7415 38.7838 C 67.1014 39.2728 67.5872 39.6489 68.2003 39.911 C 68.8128 40.173 69.5268 40.3041 70.3411 40.3041 C 71.1149 40.3041 71.8096 40.1808 72.4246 39.9325 C 73.0409 39.6852 73.5358 39.3135 73.9111 38.8179 C 74.2858 38.3226 74.5088 37.7846 74.5808 37.2012 C 74.6521 36.6185 74.6868 35.599 74.6868 34.1422 L 74.6868 31.7204" fill="#5D6369" transform="matrix(1.00513,0,0,-1,-615,259.909)"/><path d=" M 79.8468 40.0129 L 79.8468 28.6878 L 82.1399 28.6878 L 82.1399 25.8495 L 76.0975 25.8495 L 76.0975 40.0129 L 79.8468 40.0129" fill="#5D6369" transform="matrix(1.00513,0,0,-1,-615,259.909)"/><path d=" M 86.7639 40.0129 L 86.7639 25.8495 L 83.0133 25.8495 L 83.0133 40.0129 L 86.7639 40.0129" fill="#E2293A" transform="matrix(1.00513,0,0,-1,-615,259.909)"/><path d=" M 92.2228 37.5935 L 92.2228 28.2688 C 92.771 28.2688 93.1097 28.3757 93.2356 28.5889 C 93.3629 28.802 93.4258 29.3817 93.4258 30.3263 L 93.4258 35.8342 C 93.4258 36.4754 93.4046 36.8879 93.3629 37.0678 C 93.3198 37.2489 93.2241 37.3811 93.073 37.4667 C 92.922 37.5509 92.6386 37.5935 92.2228 37.5935 Z M 88.4728 40.0129 L 91.2838 40.0129 C 93.0994 40.0129 94.3275 39.9313 94.9663 39.7686 C 95.6064 39.6049 96.0929 39.3365 96.4258 38.9633 C 96.7594 38.5899 96.9676 38.1742 97.0505 37.7165 C 97.1341 37.2581 97.1758 36.3586 97.1758 35.0178 L 97.1758 30.0572 C 97.1758 28.7859 97.1148 27.9359 96.9933 27.5078 C 96.8712 27.0788 96.6579 26.7434 96.3552 26.5014 C 96.0505 26.2589 95.6758 26.0907 95.2298 25.9938 C 94.7832 25.8977 94.1116 25.8495 93.2118 25.8495 L 88.4728 25.8495 L 88.4728 40.0129" fill="#5D6369" transform="matrix(1.00513,0,0,-1,-615,259.909)"/><path d=" M 103.09 32.8815 L 103.09 30.4355 L 98.3397 30.4355 L 98.3397 32.8815 L 103.09 32.8815" fill="#5D6369" transform="matrix(1.00513,0,0,-1,-615,259.909)"/><path d=" M 112.32 35.7185 L 108.834 35.7185 L 108.834 36.7714 C 108.834 37.2619 108.791 37.5739 108.7 37.7083 C 108.61 37.8426 108.461 37.9101 108.25 37.9101 C 108.021 37.9101 107.848 37.8195 107.73 37.64 C 107.614 37.4592 107.554 37.1861 107.554 36.8209 C 107.554 36.3494 107.621 35.9946 107.754 35.7564 C 107.88 35.5184 108.234 35.2292 108.817 34.8908 C 110.486 33.914 111.537 33.1129 111.971 32.4901 C 112.406 31.8665 112.622 30.8613 112.622 29.4748 C 112.622 28.4656 112.503 27.723 112.261 27.2458 C 112.022 26.7668 111.556 26.3669 110.866 26.0438 C 110.176 25.7194 109.375 25.5583 108.459 25.5583 C 107.453 25.5583 106.595 25.7445 105.885 26.1176 C 105.175 26.4914 104.711 26.9671 104.489 27.544 C 104.27 28.1207 104.16 28.9405 104.16 30.0025 L 104.16 30.9296 L 107.644 30.9296 L 107.644 29.2042 C 107.644 28.6732 107.694 28.3318 107.791 28.1804 C 107.889 28.0288 108.063 27.9524 108.312 27.9524 C 108.561 27.9524 108.747 28.0479 108.867 28.2409 C 108.989 28.4332 109.051 28.7191 109.051 29.0975 C 109.051 29.9314 108.935 30.4757 108.702 30.733 C 108.466 30.9896 107.881 31.4181 106.949 32.0181 C 106.017 32.6234 105.399 33.0637 105.097 33.3373 C 104.795 33.6115 104.545 33.9908 104.344 34.4741 C 104.145 34.9576 104.047 35.5752 104.047 36.3273 C 104.047 37.4108 104.187 38.2029 104.471 38.7047 C 104.752 39.2057 105.21 39.5971 105.84 39.8798 C 106.471 40.163 107.232 40.3041 108.125 40.3041 C 109.1 40.3041 109.931 40.1492 110.619 39.8414 C 111.306 39.5316 111.76 39.1412 111.984 38.6718 C 112.207 38.2023 112.32 37.404 112.32 36.2786 L 112.32 35.7185" fill="#5D6369" transform="matrix(1.00513,0,0,-1,-615,259.909)"/><path d=" M 121.573 40.0129 L 121.573 37.1758 L 119.331 37.1758 L 119.331 25.8495 L 115.581 25.8495 L 115.581 37.1758 L 113.351 37.1758 L 113.351 40.0129 L 121.573 40.0129" fill="#5D6369" transform="matrix(1.00513,0,0,-1,-615,259.909)"/><path d=" M 126.369 30.9045 C 126.179 32.5087 125.987 34.4934 125.793 36.8583 C 125.415 34.1434 125.177 32.1577 125.076 30.9045 Z M 128.354 40.0129 L 130.506 25.8495 L 126.665 25.8495 L 126.462 28.3958 L 125.117 28.3958 L 124.896 25.8495 L 121.011 25.8495 L 122.927 40.0129 L 128.354 40.0129" fill="#5D6369" transform="matrix(1.00513,0,0,-1,-615,259.909)"/><path d=" M 137.902 40.0129 L 137.902 37.1758 L 135.661 37.1758 L 135.661 25.8495 L 131.91 25.8495 L 131.91 37.1758 L 129.682 37.1758 L 129.682 40.0129 L 137.902 40.0129" fill="#5D6369" transform="matrix(1.00513,0,0,-1,-615,259.909)"/><path d=" M 138.95 40.0129 L 145.221 40.0129 L 145.221 37.1758 L 142.7 37.1758 L 142.7 34.4899 L 145.056 34.4899 L 145.056 31.7912 L 142.7 31.7912 L 142.7 28.6878 L 145.462 28.6878 L 145.462 25.8495 L 138.95 25.8495 L 138.95 40.0129" fill="#5D6369" transform="matrix(1.00513,0,0,-1,-615,259.909)"/><path d=" M 65.602 17.5593 L 61.8519 17.5593 L 61.8519 20.021 C 61.8519 20.7359 61.812 21.1826 61.7309 21.3591 C 61.6503 21.5378 61.4733 21.6259 61.1992 21.6259 C 60.8892 21.6259 60.6926 21.5182 60.6095 21.3021 C 60.5254 21.0869 60.4837 20.6207 60.4837 19.905 L 60.4837 13.3297 C 60.4837 12.6408 60.5254 12.1939 60.6095 11.9833 C 60.6926 11.7747 60.8796 11.6685 61.1721 11.6685 C 61.4527 11.6685 61.6353 11.7747 61.7228 11.9833 C 61.8095 12.1939 61.8519 12.688 61.8519 13.4635 L 61.8519 15.2411 L 65.602 15.2411 L 65.602 14.6901 C 65.602 13.2252 65.496 12.1869 65.2858 11.5756 C 65.0744 10.9623 64.6072 10.4259 63.8863 9.96469 C 63.1641 9.50454 62.2739 9.27433 61.217 9.27433 C 60.1175 9.27433 59.2119 9.46938 58.499 9.85897 C 57.7862 10.2501 57.3125 10.7906 57.0813 11.4815 C 56.8493 12.1703 56.7333 13.2097 56.7333 14.5977 L 56.7333 18.7326 C 56.7333 19.7511 56.7698 20.517 56.8413 21.0259 C 56.9116 21.5368 57.124 22.0276 57.4779 22.4996 C 57.8314 22.9715 58.321 23.3423 58.9483 23.6139 C 59.5752 23.885 60.2959 24.0209 61.109 24.0209 C 62.2144 24.0209 63.1275 23.81 63.8462 23.3918 C 64.5647 22.9728 65.0371 22.4501 65.264 21.8248 C 65.4889 21.1989 65.602 20.2256 65.602 18.9039 L 65.602 17.5593" fill="#5D6369" transform="matrix(1.00513,0,0,-1,-615,259.909)"/><path d=" M 70.4985 23.7294 L 70.4985 9.56604 L 66.7485 9.56604 L 66.7485 23.7294 L 70.4985 23.7294" fill="#5D6369" transform="matrix(1.00513,0,0,-1,-615,259.909)"/><path d=" M 75.5602 21.3088 L 75.5602 18.1547 C 75.987 18.1547 76.2858 18.212 76.4574 18.3259 C 76.6271 18.4402 76.7138 18.8082 76.7138 19.4343 L 76.7138 20.2151 C 76.7138 20.6639 76.6309 20.9589 76.4657 21.0977 C 76.3012 21.2386 75.9985 21.3088 75.5602 21.3088 Z M 71.8102 23.7294 L 74.4696 23.7294 C 76.2421 23.7294 77.442 23.6611 78.0699 23.5281 C 78.6971 23.3933 79.2087 23.0511 79.6039 22.4996 C 79.9998 21.9487 80.1977 21.0691 80.1977 19.8616 C 80.1977 18.7593 80.0576 18.0169 79.7781 17.6391 C 79.4985 17.259 78.9484 17.0328 78.1277 16.9568 C 78.8719 16.7748 79.3713 16.5338 79.6264 16.2307 C 79.8822 15.9272 80.0409 15.6488 80.1039 15.395 C 80.1663 15.1407 80.1977 14.4428 80.1977 13.3003 L 80.1977 9.56604 L 76.7138 9.56604 L 76.7138 14.2706 C 76.7138 15.0288 76.6515 15.4982 76.5294 15.6792 C 76.4053 15.8602 76.0827 15.9501 75.5602 15.9501 L 75.5602 9.56604 L 71.8102 9.56604 L 71.8102 23.7294" fill="#5D6369" transform="matrix(1.00513,0,0,-1,-615,259.909)"/><path d=" M 90.2344 17.5593 L 86.4844 17.5593 L 86.4844 20.021 C 86.4844 20.7359 86.4439 21.1826 86.3629 21.3591 C 86.2838 21.5378 86.1052 21.6259 85.8314 21.6259 C 85.521 21.6259 85.325 21.5182 85.2408 21.3021 C 85.1579 21.0869 85.1161 20.6207 85.1161 19.905 L 85.1161 13.3297 C 85.1161 12.6408 85.1579 12.1939 85.2408 11.9833 C 85.325 11.7747 85.512 11.6685 85.8051 11.6685 C 86.0846 11.6685 86.2678 11.7747 86.3545 11.9833 C 86.4407 12.1939 86.4844 12.688 86.4844 13.4635 L 86.4844 15.2411 L 90.2344 15.2411 L 90.2344 14.6901 C 90.2344 13.2252 90.1283 12.1869 89.9182 11.5756 C 89.7067 10.9623 89.2408 10.4259 88.5184 9.96469 C 87.7967 9.50454 86.9072 9.27433 85.85 9.27433 C 84.7504 9.27433 83.8436 9.46938 83.1315 9.85897 C 82.4169 10.2501 81.9452 10.7906 81.7138 11.4815 C 81.4812 12.1703 81.3661 13.2097 81.3661 14.5977 L 81.3661 18.7326 C 81.3661 19.7511 81.4015 20.517 81.4728 21.0259 C 81.5441 21.5368 81.7569 22.0276 82.111 22.4996 C 82.4638 22.9715 82.9548 23.3423 83.5808 23.6139 C 84.208 23.885 84.9284 24.0209 85.7421 24.0209 C 86.8468 24.0209 87.7601 23.81 88.4779 23.3918 C 89.1971 22.9728 89.6694 22.4501 89.895 21.8248 C 90.1212 21.1989 90.2344 20.2256 90.2344 18.9039 L 90.2344 17.5593" fill="#E2293A" transform="matrix(1.00513,0,0,-1,-615,259.909)"/><path d=" M 99.9258 23.7294 L 99.9258 14.2668 C 99.9258 13.1939 99.8911 12.442 99.8198 12.0067 C 99.7491 11.5719 99.5377 11.1255 99.1861 10.6681 C 98.8352 10.2107 98.3725 9.86424 97.7992 9.62755 C 97.2253 9.39278 96.5486 9.27433 95.7703 9.27433 C 94.9072 9.27433 94.1463 9.41411 93.4863 9.69329 C 92.8269 9.9735 92.3333 10.3375 92.0055 10.7874 C 91.6784 11.2349 91.4856 11.7094 91.4265 12.2075 C 91.3661 12.7066 91.3372 13.7542 91.3372 15.3513 L 91.3372 23.7294 L 95.0878 23.7294 L 95.0878 13.112 C 95.0878 12.4932 95.1212 12.0986 95.1913 11.9263 C 95.26 11.7551 95.3989 11.6685 95.6096 11.6685 C 95.8494 11.6685 96.0042 11.7626 96.073 11.952 C 96.1418 12.1417 96.1765 12.5896 96.1765 13.2953 L 96.1765 23.7294 L 99.9258 23.7294" fill="#5D6369" transform="matrix(1.00513,0,0,-1,-615,259.909)"/><path d=" M 104.926 23.7294 L 104.926 9.56604 L 101.176 9.56604 L 101.176 23.7294 L 104.926 23.7294" fill="#5D6369" transform="matrix(1.00513,0,0,-1,-615,259.909)"/><path d=" M 113.815 23.7294 L 113.815 20.8909 L 111.571 20.8909 L 111.571 9.56604 L 107.822 9.56604 L 107.822 20.8909 L 105.592 20.8909 L 105.592 23.7294 L 113.815 23.7294" fill="#5D6369" transform="matrix(1.00513,0,0,-1,-615,259.909)"/><path d=" M 122.426 19.4343 L 118.942 19.4343 L 118.942 20.4865 C 118.942 20.9772 118.898 21.2893 118.807 21.4246 C 118.716 21.5594 118.567 21.6259 118.356 21.6259 C 118.129 21.6259 117.957 21.5361 117.838 21.3558 C 117.721 21.1755 117.663 20.9021 117.663 20.5366 C 117.663 20.0654 117.729 19.7109 117.862 19.4737 C 117.988 19.2337 118.342 18.946 118.924 18.6076 C 120.594 17.6293 121.644 16.83 122.079 16.2069 C 122.514 15.5831 122.73 14.5779 122.73 13.1898 C 122.73 12.1822 122.61 11.4383 122.37 10.9613 C 122.129 10.4828 121.664 10.0811 120.972 9.75884 C 120.283 9.435 119.482 9.27433 118.565 9.27433 C 117.561 9.27433 116.703 9.46135 115.994 9.83339 C 115.282 10.2074 114.817 10.6819 114.598 11.2598 C 114.378 11.8374 114.268 12.6564 114.268 13.7178 L 114.268 14.6457 L 117.752 14.6457 L 117.752 12.9202 C 117.752 12.3905 117.801 12.0473 117.899 11.8957 C 117.996 11.7451 118.17 11.6685 118.419 11.6685 C 118.668 11.6685 118.854 11.7647 118.976 11.9557 C 119.096 12.1485 119.158 12.4342 119.158 12.814 C 119.158 13.6468 119.042 14.1917 118.811 14.4478 C 118.573 14.7049 117.988 15.1329 117.056 15.7332 C 116.124 16.3389 115.507 16.7787 115.205 17.0544 C 114.901 17.327 114.651 17.7059 114.453 18.1891 C 114.254 18.6724 114.153 19.2904 114.153 20.0426 C 114.153 21.1271 114.295 21.9196 114.577 22.4207 C 114.86 22.9213 115.317 23.3139 115.948 23.5966 C 116.579 23.8791 117.34 24.0209 118.232 24.0209 C 119.209 24.0209 120.039 23.8657 120.727 23.5564 C 121.414 23.2469 121.869 22.8578 122.091 22.3881 C 122.314 21.9181 122.426 21.1193 122.426 19.9934 L 122.426 19.4343" fill="#5D6369" transform="matrix(1.00513,0,0,-1,-615,259.909)"/><path d=" M 136.219 19.4343 L 132.734 19.4343 L 132.734 20.4865 C 132.734 20.9772 132.692 21.2893 132.6 21.4246 C 132.511 21.5594 132.36 21.6259 132.149 21.6259 C 131.922 21.6259 131.748 21.5361 131.632 21.3558 C 131.514 21.1755 131.455 20.9021 131.455 20.5366 C 131.455 20.0654 131.522 19.7109 131.655 19.4737 C 131.781 19.2337 132.137 18.946 132.717 18.6076 C 134.386 17.6293 135.437 16.83 135.872 16.2069 C 136.306 15.5831 136.523 14.5779 136.523 13.1898 C 136.523 12.1822 136.403 11.4383 136.162 10.9613 C 135.922 10.4828 135.457 10.0811 134.766 9.75884 C 134.077 9.435 133.275 9.27433 132.358 9.27433 C 131.355 9.27433 130.496 9.46135 129.786 9.83339 C 129.076 10.2074 128.61 10.6819 128.392 11.2598 C 128.171 11.8374 128.061 12.6564 128.061 13.7178 L 128.061 14.6457 L 131.545 14.6457 L 131.545 12.9202 C 131.545 12.3905 131.593 12.0473 131.691 11.8957 C 131.79 11.7451 131.963 11.6685 132.212 11.6685 C 132.461 11.6685 132.646 11.7647 132.769 11.9557 C 132.89 12.1485 132.951 12.4342 132.951 12.814 C 132.951 13.6468 132.834 14.1917 132.604 14.4478 C 132.367 14.7049 131.782 15.1329 130.849 15.7332 C 129.917 16.3389 129.299 16.7787 128.998 17.0544 C 128.694 17.327 128.443 17.7059 128.245 18.1891 C 128.045 18.6724 127.947 19.2904 127.947 20.0426 C 127.947 21.1271 128.087 21.9196 128.37 22.4207 C 128.653 22.9213 129.111 23.3139 129.741 23.5966 C 130.371 23.8791 131.132 24.0209 132.026 24.0209 C 133 24.0209 133.831 23.8657 134.52 23.5564 C 135.207 23.2469 135.662 22.8578 135.885 22.3881 C 136.107 21.9181 136.219 21.1193 136.219 19.9934 L 136.219 19.4343" fill="#5D6369" transform="matrix(1.00513,0,0,-1,-615,259.909)"/><path d=" M 142.519 20.088 C 142.519 20.7463 142.481 21.1667 142.405 21.3503 C 142.33 21.534 142.176 21.6259 141.941 21.6259 C 141.742 21.6259 141.59 21.5516 141.484 21.4032 C 141.379 21.2544 141.327 20.8163 141.327 20.088 L 141.327 13.4773 C 141.327 12.6564 141.361 12.1485 141.432 11.9557 C 141.5 11.7647 141.662 11.6685 141.914 11.6685 C 142.173 11.6685 142.338 11.7784 142.41 11.9989 C 142.481 12.2213 142.519 12.749 142.519 13.5827 Z M 146.269 15.4362 C 146.269 14.0147 146.233 13.0088 146.165 12.4164 C 146.097 11.8246 145.883 11.2844 145.523 10.7944 C 145.164 10.3061 144.676 9.93005 144.064 9.66842 C 143.451 9.40537 142.737 9.27433 141.923 9.27433 C 141.149 9.27433 140.453 9.39831 139.84 9.64458 C 139.223 9.89239 138.727 10.2647 138.353 10.761 C 137.979 11.255 137.755 11.7941 137.683 12.3767 C 137.613 12.9599 137.577 13.9794 137.577 15.4362 L 137.577 17.8575 C 137.577 19.2809 137.611 20.2868 137.68 20.8778 C 137.748 21.469 137.963 22.0102 138.322 22.4996 C 138.682 22.9886 139.168 23.3649 139.78 23.627 C 140.394 23.8893 141.108 24.0209 141.923 24.0209 C 142.696 24.0209 143.39 23.8961 144.005 23.6496 C 144.622 23.4005 145.117 23.0295 145.491 22.5345 C 145.867 22.0389 146.089 21.4996 146.16 20.9177 C 146.232 20.3348 146.269 19.314 146.269 17.8575 L 146.269 15.4362" fill="#5D6369" transform="matrix(1.00513,0,0,-1,-615,259.909)"/><path d=" M 156.409 17.5593 L 152.658 17.5593 L 152.658 20.021 C 152.658 20.7359 152.618 21.1826 152.539 21.3591 C 152.458 21.5378 152.28 21.6259 152.006 21.6259 C 151.696 21.6259 151.499 21.5182 151.416 21.3021 C 151.332 21.0869 151.291 20.6207 151.291 19.905 L 151.291 13.3297 C 151.291 12.6408 151.332 12.1939 151.416 11.9833 C 151.499 11.7747 151.686 11.6685 151.979 11.6685 C 152.259 11.6685 152.442 11.7747 152.529 11.9833 C 152.615 12.1939 152.658 12.688 152.658 13.4635 L 152.658 15.2411 L 156.409 15.2411 L 156.409 14.6901 C 156.409 13.2252 156.304 12.1869 156.092 11.5756 C 155.881 10.9623 155.415 10.4259 154.693 9.96469 C 153.971 9.50454 153.082 9.27433 152.023 9.27433 C 150.924 9.27433 150.018 9.46938 149.305 9.85897 C 148.592 10.2501 148.119 10.7906 147.888 11.4815 C 147.656 12.1703 147.54 13.2097 147.54 14.5977 L 147.54 18.7326 C 147.54 19.7511 147.576 20.517 147.647 21.0259 C 147.719 21.5368 147.932 22.0276 148.284 22.4996 C 148.638 22.9715 149.129 23.3423 149.755 23.6139 C 150.382 23.885 151.102 24.0209 151.917 24.0209 C 153.021 24.0209 153.934 23.81 154.652 23.3918 C 155.372 22.9728 155.844 22.4501 156.07 21.8248 C 156.295 21.1989 156.409 20.2256 156.409 18.9039 L 156.409 17.5593" fill="#5D6369" transform="matrix(1.00513,0,0,-1,-615,259.909)"/><path d=" M 161.489 23.7294 L 161.489 9.56604 L 157.739 9.56604 L 157.739 23.7294 L 161.489 23.7294" fill="#5D6369" transform="matrix(1.00513,0,0,-1,-615,259.909)"/><path d=" M 162.984 23.7294 L 169.253 23.7294 L 169.253 20.8909 L 166.734 20.8909 L 166.734 18.2059 L 169.09 18.2059 L 169.09 15.507 L 166.734 15.507 L 166.734 12.4025 L 169.494 12.4025 L 169.494 9.56604 L 162.984 9.56604 L 162.984 23.7294" fill="#5D6369" transform="matrix(1.00513,0,0,-1,-615,259.909)"/><path d=" M 178.133 23.7294 L 178.133 20.8909 L 175.89 20.8909 L 175.89 9.56604 L 172.14 9.56604 L 172.14 20.8909 L 169.91 20.8909 L 169.91 23.7294 L 178.133 23.7294" fill="#5D6369" transform="matrix(1.00513,0,0,-1,-615,259.909)"/><path d=" M 187.49 23.7294 L 184.754 14.6921 L 184.754 9.56604 L 181.269 9.56604 L 181.269 14.6921 L 178.635 23.7294 L 182.077 23.7294 C 182.613 20.9619 182.918 19.0996 182.994 18.1429 C 183.213 19.6517 183.566 21.5147 184.047 23.7294 L 187.49 23.7294" fill="#5D6369" transform="matrix(1.00513,0,0,-1,-615,259.909)"/><path d=" M 14.5809 34.2963 C 14.5964 36.1084 14.5141 37.8925 13.4622 37.8925 C 12.8203 37.8925 12.4113 37.3779 12.4113 35.9997 C 12.4113 34.459 12.9024 33.8643 13.5034 33.1067 C 14.1322 32.3234 15.2923 30.8108 15.8243 29.7826 C 16.4805 28.5125 16.6843 27.2958 16.6843 25.5387 C 16.6843 21.6999 15.4013 19.7007 13.5305 19.7007 C 11.237 19.7007 10.4183 22.2402 10.4183 25.8633 L 10.4183 27.3499 L 12.329 27.3499 L 12.329 26.161 C 12.2876 24.1858 12.5881 22.7544 13.5305 22.7544 C 14.3361 22.7544 14.7187 23.5918 14.7187 25.1327 C 14.7187 26.3229 14.4451 27.133 13.954 27.8094 C 12.9579 29.3502 11.714 30.4581 10.9367 32.4853 C 10.6224 33.4039 10.4437 34.5132 10.4437 35.5943 C 10.4437 39.0539 11.4277 40.9452 13.4492 40.9452 C 16.4946 40.9452 16.4108 36.2969 16.4255 34.2963 L 14.5809 34.2963" fill="#E2293A" transform="matrix(1.00513,0,0,-1,-615,259.909)"/><path d=" M 22.1737 34.2963 C 22.188 36.1084 22.1057 37.8925 21.0548 37.8925 C 20.4124 37.8925 20.0029 37.3779 20.0029 35.9997 C 20.0029 34.459 20.4952 33.8643 21.0954 33.1067 C 21.7221 32.3234 22.8846 30.8108 23.4163 29.7826 C 24.0721 28.5125 24.2774 27.2958 24.2774 25.5387 C 24.2774 21.6999 22.9929 19.7007 21.1221 19.7007 C 18.8286 19.7007 18.0094 22.2402 18.0094 25.8633 L 18.0094 27.3499 L 19.9206 27.3499 L 19.9206 26.161 C 19.8804 24.1858 20.1809 22.7544 21.1221 22.7544 C 21.9289 22.7544 22.31 23.5918 22.31 25.1327 C 22.31 26.3229 22.0381 27.133 21.5456 27.8094 C 20.5481 29.3502 19.306 30.4581 18.5275 32.4853 C 18.214 33.4039 18.0352 34.5132 18.0352 35.5943 C 18.0352 39.0539 19.0201 40.9452 21.0408 40.9452 C 24.0854 40.9452 24.0038 36.2969 24.0176 34.2963 L 22.1737 34.2963" fill="#E2293A" transform="matrix(1.00513,0,0,-1,-615,259.909)"/><path d=" M 31.924 27.4039 C 31.9099 27.0261 31.8964 26.6191 31.8828 26.2396 C 31.7869 22.5375 31.1593 19.7007 29.0282 19.7007 C 25.8877 19.7007 25.683 23.6468 25.683 29.053 L 25.683 31.9441 C 25.7641 37.1083 25.9695 40.9452 29.0282 40.9452 C 30.7363 40.8925 31.6915 39.1638 31.8273 35.7022 C 31.8549 35.1883 31.8828 34.6752 31.8682 34.1615 L 29.9844 34.1615 C 29.9013 35.4586 29.9709 37.8925 29.0282 37.8925 C 27.5265 37.8925 27.6487 34.3506 27.6487 32.7833 L 27.6487 27.1604 C 27.6487 25.4847 27.7175 22.7544 29.0282 22.7544 C 30.0793 22.7544 29.9573 26.1053 29.9984 27.4039 L 31.924 27.4039" fill="#E2293A" transform="matrix(1.00513,0,0,-1,-615,259.909)"/><path d=" M 37.3586 34.2963 C 37.3716 36.1084 37.29 37.8925 36.2384 37.8925 C 35.5968 37.8925 35.1865 37.3779 35.1865 35.9997 C 35.1865 34.459 35.6778 33.8643 36.2793 33.1067 C 36.9069 32.3234 38.067 30.8108 38.6007 29.7826 C 39.2557 28.5125 39.4603 27.2958 39.4603 25.5387 C 39.4603 21.6999 38.1772 19.7007 36.3052 19.7007 C 34.0126 19.7007 33.1925 22.2402 33.1925 25.8633 L 33.1925 27.3499 L 35.1049 27.3499 L 35.1049 26.161 C 35.063 24.1858 35.3633 22.7544 36.3052 22.7544 C 37.1115 22.7544 37.4949 23.5918 37.4949 25.1327 C 37.4949 26.3229 37.2207 27.133 36.7297 27.8094 C 35.7326 29.3502 34.4904 30.4581 33.7122 32.4853 C 33.3963 33.4039 33.2209 34.5132 33.2209 35.5943 C 33.2209 39.0539 34.2032 40.9452 36.2248 40.9452 C 39.2698 40.9452 39.1882 36.2969 39.2002 34.2963 L 37.3586 34.2963" fill="#E2293A" transform="matrix(1.00513,0,0,-1,-615,259.909)"/><path d=" M 5.48506 9.06842 C 2.45621 9.06842 0 11.4998 0 14.4967 L 0 46.3901 C 0 49.3886 2.45621 51.8187 5.48506 51.8187 L 45.2479 51.8187 C 48.2757 51.8187 50.7332 49.3886 50.7332 46.3901 L 50.7332 14.4967 C 50.7332 11.4998 48.2757 9.06842 45.2479 9.06842 L 5.48506 9.06842 M 39.1917 15.4028 C 42.2218 15.4028 44.6765 17.8329 44.6765 20.8301 L 44.6765 40.0575 C 44.6765 43.0548 42.2218 45.4848 39.1917 45.4848 L 11.7689 45.4848 C 8.74034 45.4848 6.28438 43.0548 6.28438 40.0575 L 6.28438 20.8301 C 6.28438 17.8329 8.74034 15.4028 11.7689 15.4028 L 39.1917 15.4028 Z M 14.2252 46.5593 L 14.2252 50.4048 L 10.34 50.4048 L 10.34 46.5593 L 14.2252 46.5593 Z M 40.3354 46.5593 L 40.3354 50.4048 L 36.45 50.4048 L 36.45 46.5593 L 40.3354 46.5593 Z M 20.7965 46.5593 L 20.7965 50.4048 L 16.9118 50.4048 L 16.9118 46.5593 L 20.7965 46.5593 Z M 27.195 46.5882 L 27.195 50.4337 L 23.3091 50.4337 L 23.3091 46.5882 L 27.195 46.5882 Z M 33.7644 46.5882 L 33.7644 50.4337 L 29.88 50.4337 L 29.88 46.5882 L 33.7644 46.5882 Z M 14.1975 10.3287 L 14.1975 14.1717 L 10.3119 14.1717 L 10.3119 10.3287 L 14.1975 10.3287 Z M 40.3061 10.3287 L 40.3061 14.1717 L 36.4204 14.1717 L 36.4204 10.3287 L 40.3061 10.3287 Z M 20.7676 10.3287 L 20.7676 14.1717 L 16.8829 14.1717 L 16.8829 10.3287 L 20.7676 10.3287 Z M 27.1664 10.3543 L 27.1664 14.1985 L 23.2818 14.1985 L 23.2818 10.3543 L 27.1664 10.3543 Z M 33.7367 10.3543 L 33.7367 14.1985 L 29.8504 14.1985 L 29.8504 10.3543 L 33.7367 10.3543 Z M 5.27016 19.417 L 1.38576 19.417 L 1.38576 15.5712 L 5.27016 15.5712 L 5.27016 19.417 Z M 5.27016 45.2599 L 1.38576 45.2599 L 1.38576 41.4135 L 5.27016 41.4135 L 5.27016 45.2599 Z M 5.27016 25.92 L 1.38576 25.92 L 1.38576 22.0745 L 5.27016 22.0745 L 5.27016 25.92 Z M 5.2428 32.2538 L 1.35689 32.2538 L 1.35689 28.4081 L 5.2428 28.4081 L 5.2428 32.2538 Z M 5.2428 38.7554 L 1.35689 38.7554 L 1.35689 34.9112 L 5.2428 34.9112 L 5.2428 38.7554 Z M 49.4915 19.4732 L 45.6043 19.4732 L 45.6043 15.6275 L 49.4915 15.6275 L 49.4915 19.4732 Z M 49.4915 45.3156 L 45.6043 45.3156 L 45.6043 41.4699 L 49.4915 41.4699 L 49.4915 45.3156 Z M 49.4915 25.9758 L 45.6043 25.9758 L 45.6043 22.1307 L 49.4915 22.1307 L 49.4915 25.9758 Z M 49.4619 32.3098 L 45.5767 32.3098 L 45.5767 28.4654 L 49.4619 28.4654 L 49.4619 32.3098 Z M 49.4619 38.8134 L 45.5767 38.8134 L 45.5767 34.9669 L 49.4619 34.9669 L 49.4619 38.8134 L 49.4619 38.8134" fill="#E2293A" transform="matrix(1.00513,0,0,-1,-615,259.909)"/><path d=" M 136.325 6.2648 C 136.298 5.67986 136.281 4.98949 136.281 3.48624 C 136.281 1.80877 136.298 1.09279 136.351 0.19255 L 136.298 0.131296 C 135.914 0.122509 135.791 0.122509 135.329 0.104936 L 135.276 0.166442 C 135.294 0.699156 135.311 1.16233 135.311 2.28952 C 135.311 3.60875 135.311 4.9192 135.25 6.2304 L 135.294 6.29994 C 135.678 6.29994 135.818 6.29994 136.263 6.3263 L 136.325 6.2648" fill="#5D6369" transform="matrix(1.00513,0,0,-1,-615,259.909)"/><path d=" M 142.189 1.3112 C 142.153 0.899991 142.146 0.777736 142.128 0.445602 L 142.075 0.38485 C 141.857 0.271127 141.306 0 140.424 0 C 138.51 0 137.383 1.26727 137.383 3.21587 C 137.383 3.6439 137.418 4.70079 138.178 5.53125 C 138.921 6.34387 139.865 6.43122 140.485 6.43122 C 141.289 6.43122 141.796 6.25601 142.084 6.15132 L 142.119 6.08153 C 142.075 5.76723 142.066 5.67986 142.04 5.30405 L 141.962 5.26891 C 141.787 5.38238 141.342 5.66229 140.572 5.66229 C 139.174 5.66229 138.414 4.70079 138.414 3.23344 C 138.414 1.58158 139.314 0.812877 140.52 0.812877 C 141.342 0.812877 141.857 1.15354 142.128 1.34559 L 142.189 1.3112" fill="#5D6369" transform="matrix(1.00513,0,0,-1,-615,259.909)"/><path d=" M 146.671 6.2648 C 146.644 5.67986 146.626 4.98949 146.626 3.48624 C 146.626 1.80877 146.644 1.09279 146.696 0.19255 L 146.644 0.131296 C 146.259 0.122509 146.137 0.122509 145.674 0.104936 L 145.622 0.166442 C 145.639 0.699156 145.657 1.16233 145.657 2.28952 C 145.657 3.60875 145.657 4.9192 145.595 6.2304 L 145.639 6.29994 C 146.023 6.29994 146.164 6.29994 146.609 6.3263 L 146.671 6.2648" fill="#5D6369" transform="matrix(1.00513,0,0,-1,-615,259.909)"/><path d=" M 151.788 0.140083 C 151.368 0.131296 151.315 0.131296 150.913 0.104936 L 150.852 0.166442 C 150.852 0.262341 150.861 0.358239 150.861 0.454389 C 150.87 0.882922 150.87 1.3112 150.87 1.73923 C 150.87 3.08457 150.861 3.17194 150.818 3.3552 C 150.651 4.01921 150.154 4.01921 150.031 4.01921 C 149.507 4.01921 149.105 3.71344 148.869 3.53043 C 148.86 2.0096 148.878 1.21505 148.939 0.19255 L 148.887 0.140083 C 148.458 0.131296 148.388 0.131296 147.969 0.104936 L 147.925 0.166442 C 147.934 0.655725 147.951 1.12719 147.951 1.77438 C 147.951 3.17194 147.89 3.91428 147.847 4.49996 L 147.899 4.56147 C 148.336 4.64004 148.415 4.65762 148.825 4.73594 L 148.887 4.67494 L 148.878 4.2208 C 149.105 4.37745 149.647 4.7623 150.415 4.7623 C 150.634 4.7623 150.905 4.72715 151.141 4.59611 C 151.368 4.46482 151.551 4.26398 151.647 4.028 C 151.761 3.76641 151.77 3.50407 151.779 2.96232 L 151.779 1.94007 C 151.805 0.917562 151.814 0.524681 151.84 0.19255 L 151.788 0.140083" fill="#5D6369" transform="matrix(1.00513,0,0,-1,-615,259.909)"/><path d=" M 156.817 0.140083 C 156.397 0.131296 156.345 0.131296 155.943 0.104936 L 155.882 0.166442 C 155.882 0.262341 155.89 0.358239 155.89 0.454389 C 155.899 0.882922 155.899 1.3112 155.899 1.73923 C 155.899 3.08457 155.89 3.17194 155.847 3.3552 C 155.681 4.01921 155.183 4.01921 155.061 4.01921 C 154.536 4.01921 154.135 3.71344 153.899 3.53043 C 153.89 2.0096 153.907 1.21505 153.968 0.19255 L 153.916 0.140083 C 153.488 0.131296 153.418 0.131296 152.998 0.104936 L 152.955 0.166442 C 152.964 0.655725 152.981 1.12719 152.981 1.77438 C 152.981 3.17194 152.92 3.91428 152.876 4.49996 L 152.929 4.56147 C 153.366 4.64004 153.444 4.65762 153.854 4.73594 L 153.916 4.67494 L 153.907 4.2208 C 154.135 4.37745 154.676 4.7623 155.445 4.7623 C 155.663 4.7623 155.935 4.72715 156.171 4.59611 C 156.397 4.46482 156.581 4.26398 156.677 4.028 C 156.791 3.76641 156.799 3.50407 156.808 2.96232 L 156.808 1.94007 C 156.834 0.917562 156.843 0.524681 156.869 0.19255 L 156.817 0.140083" fill="#5D6369" transform="matrix(1.00513,0,0,-1,-615,259.909)"/><path d=" M 160.875 3.62633 C 160.709 3.89745 160.43 4.12465 159.94 4.12465 C 159.774 4.12465 159.285 4.10708 158.979 3.61754 C 158.743 3.2593 158.717 2.75269 158.717 2.38542 C 158.717 2.03597 158.726 1.15354 159.416 0.804092 C 159.573 0.725519 159.757 0.690371 159.931 0.690371 C 160.254 0.690371 160.674 0.795056 160.927 1.27606 C 161.128 1.66894 161.137 2.25437 161.128 2.43839 C 161.128 2.65679 161.093 3.24173 160.875 3.62633 Z M 162.002 1.62551 C 161.906 1.19748 161.723 0.85656 161.434 0.568112 C 161.05 0.184015 160.534 0.0351461 159.922 0.0351461 C 159.136 0.0351461 158.638 0.332131 158.358 0.62058 C 157.764 1.22309 157.756 2.11505 157.756 2.40324 C 157.756 2.73512 157.773 3.59118 158.358 4.17662 C 158.603 4.43042 159.109 4.78866 159.984 4.78866 C 160.577 4.78866 161.163 4.59611 161.548 4.1593 C 161.949 3.69612 162.063 3.08457 162.081 2.47278 C 162.081 2.17605 162.063 1.88785 162.002 1.62551" fill="#5D6369" transform="matrix(1.00513,0,0,-1,-615,259.909)"/><path d=" M 164.967 0.140083 C 164.478 0.131296 164.355 0.131296 163.848 0.104936 L 163.796 0.166442 C 163.368 1.65187 162.913 3.12801 162.397 4.58732 L 162.433 4.65762 C 162.861 4.68397 162.957 4.69201 163.385 4.73594 L 163.455 4.69201 C 163.779 3.39913 164.136 2.10625 164.495 0.821418 C 164.582 1.13597 165.02 2.65679 165.115 2.99746 C 165.403 4.00239 165.482 4.36013 165.552 4.65762 L 165.613 4.70079 C 166.024 4.68397 166.093 4.69201 166.435 4.70079 L 166.478 4.64004 C 165.946 3.17194 165.474 1.68626 165.02 0.19255 L 164.967 0.140083" fill="#5D6369" transform="matrix(1.00513,0,0,-1,-615,259.909)"/><path d=" M 169.359 2.56893 C 168.477 2.43839 167.656 2.31588 167.656 1.5384 C 167.656 1.49446 167.656 0.743089 168.486 0.743089 C 169.028 0.743089 169.343 1.04007 169.439 1.12719 L 169.439 2.58625 Z M 170.339 1.93128 C 170.339 0.848025 170.348 0.751875 170.391 0.184015 L 170.348 0.140083 C 169.937 0.131296 169.867 0.122509 169.465 0.104936 L 169.43 0.157404 L 169.439 0.471962 C 169.273 0.340917 168.879 0.0263596 168.215 0.0263596 C 167.341 0.0263596 166.73 0.62058 166.73 1.48543 C 166.73 2.65679 167.708 3.03211 169.281 3.21587 L 169.43 3.23344 C 169.43 3.46892 169.43 3.63511 169.352 3.77495 C 169.264 3.9321 169.063 4.09829 168.626 4.09829 C 168.058 4.09829 167.665 3.92331 167.298 3.76641 L 167.228 3.80959 C 167.245 4.21176 167.245 4.26398 167.254 4.44799 L 167.307 4.49996 C 167.796 4.67494 168.303 4.78866 168.818 4.78866 C 169.465 4.78866 170.094 4.57025 170.277 3.88867 C 170.339 3.6439 170.339 3.16315 170.339 2.79612 L 170.339 1.93128" fill="#5D6369" transform="matrix(1.00513,0,0,-1,-615,259.909)"/><path d=" M 173.58 0.821418 C 173.554 0.533468 173.554 0.471962 173.545 0.218408 L 173.501 0.166442 C 173.318 0.122509 173.169 0.0878655 172.845 0.0878655 C 172.636 0.0878655 172.086 0.0878655 171.814 0.542254 C 171.658 0.795056 171.658 1.00493 171.658 2.03597 L 171.675 3.95846 C 171.368 3.95846 171.36 3.94942 171.045 3.94088 L 171.011 3.9936 C 171.028 4.27277 171.028 4.34305 171.028 4.62247 L 171.081 4.67494 C 171.273 4.67494 171.386 4.6664 171.675 4.67494 C 171.666 4.85845 171.666 5.05049 171.666 5.23426 C 171.658 5.39995 171.649 5.56639 171.64 5.73208 L 171.684 5.79358 C 172.077 5.88948 172.172 5.91585 172.575 6.0376 L 172.636 5.99442 C 172.609 5.41752 172.6 5.30405 172.6 4.6664 C 172.968 4.67494 173.073 4.67494 173.571 4.69201 L 173.615 4.64004 C 173.597 4.4126 173.589 4.3167 173.589 4.01921 L 173.545 3.96725 C 173.108 3.97578 173.055 3.98482 172.592 3.98482 L 172.575 2.35931 C 172.584 2.25437 172.584 1.7568 172.584 1.6343 C 172.584 0.996643 172.662 0.795056 173.099 0.795056 C 173.282 0.795056 173.422 0.83924 173.518 0.874387 L 173.58 0.821418" fill="#5D6369" transform="matrix(1.00513,0,0,-1,-615,259.909)"/><path d=" M 175.345 5.95049 C 174.899 5.93292 174.803 5.92413 174.375 5.8807 L 174.322 5.93292 C 174.331 6.04639 174.331 6.1689 174.331 6.28237 C 174.331 6.43977 174.322 6.57987 174.313 6.75435 L 174.375 6.80705 C 174.829 6.84143 174.908 6.8505 175.345 6.89439 L 175.397 6.84143 C 175.388 6.48321 175.388 6.39609 175.397 6.012 Z M 175.336 0.140083 C 174.881 0.131296 174.812 0.131296 174.383 0.104936 L 174.34 0.166442 C 174.366 0.629618 174.392 1.03129 174.392 2.00157 C 174.392 3.67026 174.366 3.98482 174.305 4.49996 L 174.349 4.56147 C 174.724 4.62247 174.855 4.64004 175.292 4.73594 L 175.38 4.68397 C 175.354 4.22958 175.327 3.75763 175.327 2.63044 C 175.327 1.00493 175.345 0.786521 175.38 0.19255 L 175.336 0.140083" fill="#5D6369" transform="matrix(1.00513,0,0,-1,-615,259.909)"/><path d=" M 179.405 3.62633 C 179.239 3.89745 178.96 4.12465 178.47 4.12465 C 178.304 4.12465 177.815 4.10708 177.509 3.61754 C 177.273 3.2593 177.247 2.75269 177.247 2.38542 C 177.247 2.03597 177.256 1.15354 177.946 0.804092 C 178.103 0.725519 178.287 0.690371 178.462 0.690371 C 178.784 0.690371 179.204 0.795056 179.457 1.27606 C 179.658 1.66894 179.667 2.25437 179.658 2.43839 C 179.658 2.65679 179.624 3.24173 179.405 3.62633 Z M 180.532 1.62551 C 180.436 1.19748 180.253 0.85656 179.964 0.568112 C 179.58 0.184015 179.064 0.0351461 178.453 0.0351461 C 177.666 0.0351461 177.169 0.332131 176.888 0.62058 C 176.294 1.22309 176.286 2.11505 176.286 2.40324 C 176.286 2.73512 176.303 3.59118 176.888 4.17662 C 177.133 4.43042 177.64 4.78866 178.514 4.78866 C 179.108 4.78866 179.694 4.59611 180.078 4.1593 C 180.48 3.69612 180.593 3.08457 180.611 2.47278 C 180.611 2.17605 180.593 1.88785 180.532 1.62551" fill="#5D6369" transform="matrix(1.00513,0,0,-1,-615,259.909)"/><path d=" M 185.428 0.140083 C 185.009 0.131296 184.956 0.131296 184.555 0.104936 L 184.493 0.166442 C 184.493 0.262341 184.502 0.358239 184.502 0.454389 C 184.511 0.882922 184.511 1.3112 184.511 1.73923 C 184.511 3.08457 184.502 3.17194 184.459 3.3552 C 184.293 4.01921 183.795 4.01921 183.672 4.01921 C 183.148 4.01921 182.746 3.71344 182.51 3.53043 C 182.501 2.0096 182.519 1.21505 182.58 0.19255 L 182.528 0.140083 C 182.1 0.131296 182.029 0.131296 181.61 0.104936 L 181.566 0.166442 C 181.575 0.655725 181.593 1.12719 181.593 1.77438 C 181.593 3.17194 181.532 3.91428 181.488 4.49996 L 181.541 4.56147 C 181.977 4.64004 182.055 4.65762 182.466 4.73594 L 182.528 4.67494 L 182.519 4.2208 C 182.746 4.37745 183.287 4.7623 184.057 4.7623 C 184.275 4.7623 184.546 4.72715 184.782 4.59611 C 185.009 4.46482 185.192 4.26398 185.289 4.028 C 185.402 3.76641 185.411 3.50407 185.42 2.96232 L 185.42 1.94007 C 185.446 0.917562 185.455 0.524681 185.48 0.19255 L 185.428 0.140083" fill="#5D6369" transform="matrix(1.00513,0,0,-1,-615,259.909)"/><path d=" M 190.933 23.2921 C 190.521 23.3019 190.452 23.3019 190.03 23.3019 C 190.019 22.8109 190.019 22.732 190.019 22.2949 C 190.019 21.0616 190.039 20.5753 190.054 20.2805 L 190.025 20.2462 C 189.744 20.2462 189.73 20.2462 189.46 20.2314 L 189.435 20.2658 C 189.46 20.9536 189.465 21.6412 189.465 22.3291 C 189.465 22.8301 189.455 23.0908 189.449 23.3019 C 189.022 23.2971 188.973 23.2971 188.536 23.2825 L 188.506 23.3167 C 188.516 23.4886 188.516 23.5082 188.527 23.6805 L 188.551 23.7146 C 188.904 23.7146 189.469 23.7146 189.823 23.7196 C 190.201 23.7196 190.58 23.7246 190.958 23.7294 L 190.983 23.695 C 190.968 23.5231 190.963 23.4691 190.963 23.3265 L 190.933 23.2921" fill="#5D6369" transform="matrix(1.00513,0,0,-1,-615,259.909)"/><path d=" M 194.871 23.695 C 194.895 22.555 194.935 21.4203 194.999 20.2805 L 194.974 20.2462 C 194.728 20.2462 194.699 20.2409 194.444 20.2314 L 194.414 20.2658 C 194.419 20.8211 194.414 20.993 194.399 21.5333 L 194.39 22.0539 C 194.39 22.4029 194.384 23.1548 194.384 23.3411 C 194.306 23.0561 194.232 22.796 194.026 22.1082 L 193.8 21.396 C 193.618 20.8505 193.559 20.6586 193.446 20.2805 L 193.417 20.2462 C 193.151 20.2462 193.127 20.2462 192.847 20.2314 L 192.817 20.2658 C 192.793 20.3494 192.768 20.4327 192.743 20.5113 C 192.705 20.6636 192.488 21.396 192.439 21.5578 L 192.242 22.2458 C 192.046 22.9481 192.027 23.0267 191.958 23.3411 C 191.953 22.85 191.947 22.7418 191.933 22.2508 L 191.899 21.3711 C 191.879 20.7915 191.879 20.6636 191.874 20.2805 L 191.85 20.2462 C 191.613 20.2462 191.584 20.2462 191.377 20.2314 L 191.353 20.2658 C 191.363 20.3639 191.372 20.4674 191.383 20.5655 C 191.431 21.1502 191.451 21.7348 191.485 22.3193 C 191.535 23.1939 191.54 23.2479 191.54 23.6805 L 191.57 23.7146 C 191.928 23.7146 192.016 23.7196 192.326 23.7294 L 192.361 23.695 C 192.449 23.3019 192.532 23.017 192.63 22.6828 L 193.166 20.6981 L 193.79 22.7468 C 193.987 23.3855 193.996 23.4101 194.07 23.6805 L 194.1 23.7146 C 194.458 23.7146 194.503 23.7196 194.841 23.7294 L 194.871 23.695" fill="#5D6369" transform="matrix(1.00513,0,0,-1,-615,259.909)"/><path d=" M 60.0474 41.7509 C 58.7181 41.7646 58.3998 41.7509 57.2229 41.7094 L 57.1536 41.7784 C 57.1812 43.7723 57.195 45.7663 57.195 47.76 C 57.195 49.4772 57.1674 50.4605 57.126 51.4436 L 57.2091 51.5265 C 58.4415 51.5127 58.7319 51.5127 60.0198 51.5681 L 60.1029 51.485 C 60.075 50.7372 60.0336 49.5744 60.0336 47.4972 C 60.0336 45.6003 60.0474 43.717 60.1169 41.8201 L 60.0474 41.7509" fill="#5D6369" transform="matrix(1.00513,0,0,-1,-615,259.909)"/><path d=" M 66.3694 45.8079 C 65.7878 45.8217 64.6387 45.8217 63.9182 45.8217 L 63.9182 43.828 C 64.5969 43.828 66.0506 43.8418 66.8816 43.9111 L 66.9645 43.828 C 66.8951 42.9418 66.8816 42.6784 66.8539 41.834 L 66.771 41.7509 L 63.6966 41.7509 C 62.2704 41.7509 62.0628 41.7509 61.1907 41.7094 L 61.1214 41.7922 C 61.1489 42.8308 61.1766 43.9801 61.1766 46.1956 C 61.1766 47.9403 61.1766 49.7958 61.0797 51.4436 L 61.1628 51.5265 C 61.7721 51.5265 61.9383 51.5265 63.4752 51.5403 C 65.746 51.5541 66.0088 51.5541 66.7016 51.5681 L 66.771 51.485 C 66.7016 50.5988 66.7016 50.3358 66.674 49.6296 L 66.5904 49.5462 C 66.3694 49.5462 65.2614 49.56 65.012 49.56 C 64.8597 49.56 64.7768 49.56 63.9182 49.5462 C 63.9044 48.702 63.9044 48.5079 63.9182 47.7325 C 64.7074 47.7325 65.8572 47.76 66.4658 47.7877 L 66.5493 47.7048 C 66.4934 46.9434 66.4934 46.6525 66.4523 45.8908 L 66.3694 45.8079" fill="#5D6369" transform="matrix(1.00513,0,0,-1,-615,259.909)"/><path d=" M 72.9471 45.8079 C 72.3661 45.8217 71.217 45.8217 70.4966 45.8217 L 70.4966 43.828 C 71.1753 43.828 72.629 43.8418 73.46 43.9111 L 73.5429 43.828 C 73.4735 42.9418 73.46 42.6784 73.4323 41.834 L 73.3488 41.7509 L 70.2749 41.7509 C 68.8488 41.7509 68.6412 41.7509 67.7685 41.7094 L 67.6997 41.7922 C 67.7273 42.8308 67.755 43.9801 67.755 46.1956 C 67.755 47.9403 67.755 49.7958 67.6579 51.4436 L 67.7408 51.5265 C 68.3507 51.5265 68.5165 51.5265 70.0532 51.5403 C 72.3244 51.5541 72.5872 51.5541 73.2794 51.5681 L 73.3488 51.485 C 73.2794 50.5988 73.2794 50.3358 73.2524 49.6296 L 73.1688 49.5462 C 72.9471 49.5462 71.8398 49.56 71.5904 49.56 C 71.4381 49.56 71.3552 49.56 70.4966 49.5462 C 70.4825 48.702 70.4825 48.5079 70.4966 47.7325 C 71.2858 47.7325 72.4355 47.76 73.0442 47.7877 L 73.1277 47.7048 C 73.0718 46.9434 73.0718 46.6525 73.0307 45.8908 L 72.9471 45.8079" fill="#5D6369" transform="matrix(1.00513,0,0,-1,-615,259.909)"/><path d=" M 79.5262 45.8079 C 78.9445 45.8217 77.7954 45.8217 77.075 45.8217 L 77.075 43.828 C 77.7537 43.828 79.2074 43.8418 80.0384 43.9111 L 80.1213 43.828 C 80.0525 42.9418 80.0384 42.6784 80.0107 41.834 L 79.9278 41.7509 L 76.8539 41.7509 C 75.4272 41.7509 75.2196 41.7509 74.3475 41.7094 L 74.2781 41.7922 C 74.3057 42.8308 74.3334 43.9801 74.3334 46.1956 C 74.3334 47.9403 74.3334 49.7958 74.237 51.4436 L 74.3199 51.5265 C 74.9291 51.5265 75.0949 51.5265 76.6322 51.5403 C 78.9028 51.5541 79.1662 51.5541 79.8584 51.5681 L 79.9278 51.485 C 79.8584 50.5988 79.8584 50.3358 79.8308 49.6296 L 79.7472 49.5462 C 79.5262 49.5462 78.4182 49.56 78.1688 49.56 C 78.0172 49.56 77.9336 49.56 77.075 49.5462 C 77.0615 48.702 77.0615 48.5079 77.075 47.7325 C 77.8642 47.7325 79.0139 47.76 79.6232 47.7877 L 79.7061 47.7048 C 79.6508 46.9434 79.6508 46.6525 79.609 45.8908 L 79.5262 45.8079" fill="#5D6369" transform="matrix(1.00513,0,0,-1,-615,259.909)"/></g></svg>