<?xml version="1.0" encoding="UTF-8" standalone="no"?>
<!-- Generator: $$$/GeneralStr/196=Adobe Illustrator 27.6.0, SVG Export Plug-In . SVG Version: 6.00 Build 0)  -->

<svg
   version="1.1"
   id="Calque_1"
   x="0px"
   y="0px"
   viewBox="0 0 575.51227 576.013"
   xml:space="preserve"
   sodipodi:docname="CNRS.svg"
   width="575.51227"
   height="576.013"
   inkscape:version="1.2.2 (732a01da63, 2022-12-09)"
   xmlns:inkscape="http://www.inkscape.org/namespaces/inkscape"
   xmlns:sodipodi="http://sodipodi.sourceforge.net/DTD/sodipodi-0.dtd"
   xmlns="http://www.w3.org/2000/svg"
   xmlns:svg="http://www.w3.org/2000/svg"><defs
   id="defs18258" /><sodipodi:namedview
   id="namedview18256"
   pagecolor="#ffffff"
   bordercolor="#000000"
   borderopacity="0.25"
   inkscape:showpageshadow="2"
   inkscape:pageopacity="0.0"
   inkscape:pagecheckerboard="0"
   inkscape:deskcolor="#d1d1d1"
   showgrid="false"
   inkscape:zoom="0.36702955"
   inkscape:cx="-95.360169"
   inkscape:cy="290.16737"
   inkscape:window-width="1920"
   inkscape:window-height="1009"
   inkscape:window-x="-8"
   inkscape:window-y="-8"
   inkscape:window-maximized="1"
   inkscape:current-layer="Calque_1" />
<style
   type="text/css"
   id="style18194">
	.st0{fill:#FFFFFF;}
	.st1{fill:#000091;}
	.st2{fill:#E1000F;}
	.st3{fill:#9C9B9B;}
	.st4{fill:#00294B;}
</style>

<g
   id="g18253"
   transform="translate(-762.6,-33)">
	<path
   class="st4"
   d="m 1038.4,33.6 c -5.1,-0.3 -10.2,-0.6 -15.4,-0.6 -71.1,0 -135.7,30.2 -192.1,90.5 -51.2,54.6 -68.3,98.8 -68.3,151.7 0,28.5 5.1,59.5 12.5,96.2 13.9,68.9 54.9,135.5 112.4,182.7 43.8,36.1 92.8,54.4 144.3,54.9 26.8,0.3 54.1,-4.6 82,-14.2 89.9,-31 175.6,-119.8 208.9,-215.7 10.5,-30.5 15.7,-60 15.4,-88.2 C 1337.8,222 1306.5,161.7 1246.5,118.7 1173.8,66 1103.8,37.6 1038.4,33.6 Z"
   id="path18241" />
	<g
   id="g18251">
		<path
   class="st0"
   d="m 935.9,321.6 h -19.6 v 0.6 c -0.3,3.7 -2.6,37.3 -32.4,37.3 -26.8,0 -40.4,-24.2 -40.4,-71.4 0,-47.5 13.7,-71.4 40.4,-71.4 30.5,0 32.4,35.9 32.4,37.3 v 0.6 h 19.6 c 1.7,0 3.7,-0.9 4.8,-2 1.1,-1.1 1.7,-2.8 1.7,-4.6 -0.3,-9.4 -5.1,-55.8 -59.2,-55.8 -43.5,0 -66.6,33 -66.6,95.9 0,62.9 23.1,96.2 66.6,96.2 52.1,0 58.3,-42.4 59.2,-55.5 0,-1.7 -0.6,-3.4 -1.7,-4.8 -1.4,-1.6 -3.1,-2.4 -4.8,-2.4 z"
   id="path18243" />
		<path
   class="st0"
   d="m 1242.7,276.6 v 0 l -17.1,-7.4 c -16.2,-7.1 -22.2,-14.2 -22.2,-26.8 0,-16.2 12,-27.3 29.9,-27.3 10.5,0 19.1,2.3 29.6,12.8 l 0.6,0.6 9.1,-8.3 c 5.1,-4.8 3.7,-9.4 1.4,-12.2 -8.8,-10.5 -23.1,-16.2 -40.1,-16.2 -32.7,0 -56.3,21.3 -56.3,50.7 0,29 18.2,41 37.8,49.8 l 17.4,7.7 c 17.4,7.7 25.6,14.5 25.6,31.3 0,22.8 -20.8,29 -33,29 -10.5,0 -22.2,-2.3 -36.7,-18.5 l -0.6,-0.6 -9.4,8.3 c -4.8,4.3 -4.8,8 -0.3,13.9 13.1,16.8 32.2,20.2 45.8,20.2 29.6,0 59.8,-18.2 59.8,-52.9 0.5,-29.9 -16.3,-43.3 -41.3,-54.1 z"
   id="path18245" />
		<path
   class="st0"
   d="m 1075.1,247 c 0,-29.6 -23.9,-54.6 -53.8,-54.6 -13.9,0 -26.8,5.4 -36.1,13.9 v -10.2 h -17.9 c -5.4,0 -7.4,3.4 -7.4,7.7 v 173 c 0,4.8 2.8,7.4 7.4,7.4 h 17.9 v -136 c 0,-17.9 14.5,-32.4 32.4,-32.4 17.9,0 32.4,14.5 32.4,32.4 v 136 h 17.6 c 4.8,0 7.4,-2.8 7.4,-7.4 0.1,0 0.1,-129.5 0.1,-129.8 z"
   id="path18247" />
		<path
   class="st0"
   d="m 1177.2,205.2 c 0.9,-1.1 1.4,-2.6 1.4,-4.3 0,-2.8 -2,-5.4 -4.6,-6.3 -5.1,-1.7 -10.5,-2.6 -16.5,-2.6 -13.9,0 -26.8,5.4 -36.1,13.9 v -10.2 h -17.9 c -5.4,0 -7.4,3.4 -7.4,7.7 v 173 c 0,4.8 2.8,7.4 7.4,7.4 h 17.9 v -136 c 0,-17.9 14.5,-32.4 32.4,-32.4 4.6,0 9.1,1.1 13.1,2.8 z"
   id="path18249" />
	</g>
</g>
</svg>
