<?xml version="1.0" encoding="UTF-8" standalone="no"?>
<svg
   version="1.1"
   id="svg888"
   xml:space="preserve"
   width="204"
   height="39.84"
   viewBox="0 0 204 39.84"
   xmlns="http://www.w3.org/2000/svg"
   xmlns:svg="http://www.w3.org/2000/svg"><defs
     id="defs892"><clipPath
       clipPathUnits="userSpaceOnUse"
       id="clipPath904"><path
         d="M 0,792 H 612 V 0 H 0 Z"
         id="path902" /></clipPath><clipPath
       clipPathUnits="userSpaceOnUse"
       id="clipPath922"><path
         d="M 207,540 H 612 V 792 H 207 Z"
         id="path920" /></clipPath><clipPath
       clipPathUnits="userSpaceOnUse"
       id="clipPath1108"><path
         d="M 0,0 H 612 V 792 H 0 Z"
         id="path1106" /></clipPath><clipPath
       clipPathUnits="userSpaceOnUse"
       id="clipPath1116"><path
         d="M 198,809 H 630 V 539 H 198 Z"
         id="path1114" /></clipPath></defs><g
     id="g894"
     transform="matrix(1.3333333,0,0,-1.3333333,267.69067,942.64929)"><g
       id="g896"><g
         id="g898"
         transform="translate(-230.10811,-53.513515)"><g
           id="g900"
           clip-path="url(#clipPath904)"><g
             id="g908"
             transform="translate(30.4071,739.1575)"><path
               d="M 0,0 H 8.537 V -8.537 C 3.822,-8.537 0,-4.715 0,0 m 21.343,12.806 h 8.537 v 8.537 h -8.537 z m 0,-10.672 h 8.537 v 8.537 H 21.343 Z M 8.537,21.343 c -5.304,0 -9.604,-4.3 -9.604,-9.605 0,-5.304 4.3,-9.604 9.604,-9.604 z m 10.671,0 c -4.714,0 -8.537,-3.823 -8.537,-8.537 V -8.537 c 4.715,0 8.537,3.822 8.537,8.537 z M 42.095,6.248 c -1.17,0 -2.19,0.222 -3.061,0.667 -0.87,0.445 -1.546,1.069 -2.029,1.875 -0.482,0.805 -0.723,1.75 -0.723,2.836 0,1.114 0.253,2.092 0.759,2.935 0.505,0.842 1.209,1.497 2.113,1.965 0.903,0.468 1.949,0.703 3.138,0.703 0.646,0 1.289,-0.073 1.931,-0.218 0.641,-0.145 1.219,-0.354 1.734,-0.625 l -0.351,-1.755 c -0.515,0.253 -1.063,0.444 -1.643,0.576 -0.581,0.131 -1.161,0.196 -1.741,0.196 -0.758,0 -1.421,-0.154 -1.987,-0.463 -0.567,-0.309 -1.009,-0.74 -1.327,-1.292 -0.318,-0.552 -0.477,-1.198 -0.477,-1.938 0,-1.132 0.339,-2.026 1.018,-2.682 0.678,-0.655 1.603,-0.982 2.773,-0.982 0.355,0 0.695,0.023 1.018,0.07 0.323,0.046 0.643,0.117 0.962,0.21 v 2.359 h -2.121 v 1.629 h 4.086 V 7.035 C 45.559,6.772 44.908,6.576 44.216,6.445 43.523,6.314 42.816,6.248 42.095,6.248 m 7.854,10.826 H 48.011 V 6.403 h 1.938 z M 57.161,6.677 c 0.58,0.332 1.039,0.786 1.376,1.362 0.337,0.575 0.506,1.219 0.506,1.93 0,0.73 -0.167,1.381 -0.499,1.952 -0.332,0.571 -0.789,1.023 -1.369,1.355 -0.58,0.332 -1.24,0.498 -1.98,0.498 -0.73,0 -1.385,-0.166 -1.965,-0.498 -0.581,-0.332 -1.039,-0.786 -1.376,-1.362 -0.337,-0.576 -0.506,-1.224 -0.506,-1.945 0,-0.721 0.166,-1.369 0.499,-1.945 0.332,-0.575 0.788,-1.027 1.369,-1.355 0.58,-0.327 1.24,-0.491 1.979,-0.491 0.731,0 1.386,0.166 1.966,0.499 M 53.833,8.495 C 53.478,8.879 53.3,9.37 53.3,9.969 c 0,0.609 0.178,1.105 0.533,1.489 0.356,0.383 0.81,0.575 1.362,0.575 0.553,0 1.007,-0.192 1.362,-0.575 0.356,-0.384 0.534,-0.88 0.534,-1.489 0,-0.599 -0.178,-1.09 -0.534,-1.474 -0.355,-0.384 -0.809,-0.576 -1.362,-0.576 -0.552,0 -1.006,0.192 -1.362,0.576 M 66.411,6.684 c 0.51,0.337 0.914,0.793 1.214,1.369 0.3,0.575 0.449,1.223 0.449,1.944 0,0.74 -0.14,1.393 -0.421,1.959 -0.281,0.566 -0.669,1.011 -1.165,1.334 -0.497,0.323 -1.063,0.484 -1.699,0.484 -1.058,0 -1.845,-0.407 -2.359,-1.221 v 4.521 H 60.492 V 6.403 h 1.853 l 0.029,1.081 C 62.608,7.063 62.926,6.74 63.328,6.515 63.731,6.29 64.185,6.178 64.69,6.178 c 0.637,0 1.21,0.169 1.721,0.506 m -3.56,1.811 c -0.356,0.384 -0.534,0.875 -0.534,1.474 0,0.609 0.178,1.105 0.534,1.489 0.356,0.383 0.814,0.575 1.376,0.575 0.552,0 1.006,-0.192 1.362,-0.575 0.356,-0.384 0.534,-0.88 0.534,-1.489 0,-0.599 -0.178,-1.09 -0.534,-1.474 -0.356,-0.384 -0.81,-0.576 -1.362,-0.576 -0.562,0 -1.02,0.192 -1.376,0.576 M 74.885,7.498 74.913,6.403 h 1.853 v 7.147 h -1.853 l -0.028,-1.096 c -0.234,0.422 -0.555,0.747 -0.962,0.976 -0.407,0.23 -0.859,0.344 -1.355,0.344 -0.637,0 -1.21,-0.168 -1.72,-0.505 -0.511,-0.337 -0.915,-0.793 -1.215,-1.369 -0.3,-0.576 -0.449,-1.224 -0.449,-1.945 0,-0.73 0.14,-1.381 0.421,-1.952 0.281,-0.571 0.667,-1.018 1.158,-1.341 0.492,-0.323 1.056,-0.484 1.692,-0.484 1.124,0 1.933,0.44 2.43,1.32 m -3.216,0.997 c -0.356,0.384 -0.534,0.875 -0.534,1.474 0,0.609 0.178,1.105 0.534,1.489 0.356,0.383 0.81,0.575 1.362,0.575 0.552,0 1.006,-0.192 1.362,-0.575 0.356,-0.384 0.534,-0.88 0.534,-1.489 0,-0.599 -0.178,-1.09 -0.534,-1.474 -0.356,-0.384 -0.81,-0.576 -1.362,-0.576 -0.552,0 -1.006,0.192 -1.362,0.576 m 8.893,8.579 H 78.624 V 6.403 h 1.938 z M 84.731,6.403 v 4.254 h 4.114 v 1.727 h -4.114 v 2.963 h 4.76 v 1.727 H 82.638 V 6.403 Z m 10.884,0.274 c 0.58,0.332 1.039,0.786 1.376,1.362 0.337,0.575 0.506,1.219 0.506,1.93 0,0.73 -0.167,1.381 -0.499,1.952 -0.332,0.571 -0.789,1.023 -1.369,1.355 -0.58,0.332 -1.24,0.498 -1.98,0.498 -0.73,0 -1.385,-0.166 -1.965,-0.498 -0.581,-0.332 -1.04,-0.786 -1.377,-1.362 -0.336,-0.576 -0.505,-1.224 -0.505,-1.945 0,-0.721 0.166,-1.369 0.498,-1.945 0.333,-0.575 0.789,-1.027 1.369,-1.355 0.581,-0.327 1.241,-0.491 1.98,-0.491 0.731,0 1.386,0.166 1.966,0.499 m -3.328,1.818 c -0.355,0.384 -0.533,0.875 -0.533,1.474 0,0.609 0.178,1.105 0.533,1.489 0.356,0.383 0.81,0.575 1.362,0.575 0.553,0 1.006,-0.192 1.362,-0.575 0.356,-0.384 0.534,-0.88 0.534,-1.489 0,-0.599 -0.178,-1.09 -0.534,-1.474 -0.356,-0.384 -0.809,-0.576 -1.362,-0.576 -0.552,0 -1.006,0.192 -1.362,0.576 m 10.451,-1.987 c 0.393,0.22 0.683,0.527 0.871,0.92 l 0.028,-1.025 h 1.895 v 7.147 h -1.951 V 9.703 c 0,-0.562 -0.127,-1.002 -0.379,-1.32 -0.253,-0.319 -0.614,-0.478 -1.082,-0.478 -0.449,0 -0.774,0.126 -0.975,0.379 -0.202,0.253 -0.302,0.665 -0.302,1.236 v 4.03 H 98.891 V 9.085 c 0,-0.937 0.211,-1.655 0.632,-2.156 0.421,-0.501 1.029,-0.751 1.825,-0.751 0.534,0 0.997,0.11 1.39,0.33 m 6.585,-0.105 v 3.847 c 0,0.571 0.131,1.013 0.393,1.327 0.262,0.314 0.627,0.47 1.095,0.47 0.861,0 1.292,-0.557 1.292,-1.671 V 6.403 h 1.938 v 4.338 c 0,0.974 -0.218,1.723 -0.653,2.247 -0.436,0.524 -1.065,0.786 -1.889,0.786 -0.505,0 -0.952,-0.11 -1.341,-0.33 -0.388,-0.22 -0.676,-0.531 -0.863,-0.933 l -0.028,1.039 h -1.882 V 6.403 Z m 10.822,0.112 c 0.411,0.225 0.744,0.548 0.996,0.969 l 0.029,-1.081 h 1.853 v 10.671 h -1.952 v -4.507 c -0.243,0.393 -0.561,0.693 -0.955,0.898 -0.393,0.206 -0.823,0.309 -1.291,0.309 -0.637,0 -1.21,-0.168 -1.72,-0.505 -0.511,-0.337 -0.915,-0.793 -1.215,-1.369 -0.3,-0.576 -0.449,-1.224 -0.449,-1.945 0,-0.73 0.14,-1.381 0.421,-1.952 0.281,-0.571 0.667,-1.018 1.158,-1.341 0.492,-0.323 1.056,-0.484 1.692,-0.484 0.543,0 1.021,0.112 1.433,0.337 m -2.219,1.98 c -0.356,0.384 -0.533,0.875 -0.533,1.474 0,0.609 0.177,1.105 0.533,1.489 0.356,0.383 0.81,0.575 1.362,0.575 0.552,0 1.006,-0.192 1.362,-0.575 0.356,-0.384 0.534,-0.88 0.534,-1.489 0,-0.599 -0.178,-1.09 -0.534,-1.474 -0.356,-0.384 -0.81,-0.576 -1.362,-0.576 -0.552,0 -1.006,0.192 -1.362,0.576 m 8.893,-2.092 V 9.66 c 0,0.712 0.145,1.257 0.436,1.636 0.29,0.379 0.702,0.569 1.235,0.569 0.141,0 0.295,-0.019 0.464,-0.057 0.168,-0.037 0.313,-0.079 0.435,-0.126 l 0.168,1.84 c -0.093,0.046 -0.217,0.084 -0.372,0.112 -0.154,0.028 -0.306,0.042 -0.456,0.042 -0.459,0 -0.859,-0.133 -1.201,-0.4 -0.341,-0.267 -0.596,-0.648 -0.765,-1.145 l -0.014,1.419 h -1.867 V 6.403 Z m 5.703,8.929 c 0.22,0.22 0.33,0.489 0.33,0.807 0,0.328 -0.11,0.597 -0.33,0.808 -0.22,0.21 -0.494,0.316 -0.822,0.316 -0.327,0 -0.601,-0.106 -0.821,-0.316 -0.22,-0.211 -0.33,-0.48 -0.33,-0.808 0,-0.318 0.11,-0.587 0.33,-0.807 0.22,-0.22 0.494,-0.33 0.821,-0.33 0.328,0 0.602,0.11 0.822,0.33 m 0.147,-1.782 h -1.938 V 6.403 h 1.938 z m 7.086,-7.217 c 0.487,0.102 0.913,0.247 1.278,0.435 l -0.197,1.46 C 140.49,8.06 140.111,7.931 139.699,7.842 139.287,7.753 138.88,7.708 138.477,7.708 c -1.451,0 -2.274,0.595 -2.471,1.784 h 5.097 c 0.028,0.253 0.042,0.496 0.042,0.73 0,0.721 -0.138,1.348 -0.414,1.881 -0.276,0.534 -0.667,0.946 -1.173,1.236 -0.505,0.29 -1.104,0.435 -1.797,0.435 -0.711,0 -1.343,-0.161 -1.895,-0.484 -0.553,-0.323 -0.983,-0.77 -1.292,-1.341 -0.309,-0.571 -0.464,-1.231 -0.464,-1.98 0,-0.777 0.167,-1.451 0.499,-2.022 0.332,-0.571 0.81,-1.009 1.432,-1.313 0.623,-0.304 1.364,-0.456 2.226,-0.456 0.505,0 1.001,0.052 1.488,0.155 m -0.976,5.658 c 0.276,-0.243 0.447,-0.59 0.513,-1.039 0.018,-0.084 0.028,-0.178 0.028,-0.281 h -3.314 c 0.075,0.543 0.262,0.96 0.562,1.25 0.299,0.29 0.678,0.435 1.137,0.435 0.44,0 0.798,-0.122 1.074,-0.365 m 8.261,-5.223 c 0.552,0.393 0.828,0.931 0.828,1.615 0,0.598 -0.19,1.076 -0.569,1.432 -0.379,0.355 -1.013,0.66 -1.902,0.912 -0.506,0.15 -0.848,0.291 -1.025,0.422 -0.178,0.131 -0.267,0.299 -0.267,0.505 0,0.449 0.365,0.674 1.095,0.674 0.337,0 0.688,-0.047 1.053,-0.14 0.365,-0.094 0.711,-0.234 1.039,-0.422 l 0.239,1.447 c -0.29,0.159 -0.655,0.292 -1.095,0.4 -0.44,0.107 -0.88,0.161 -1.32,0.161 -0.899,0 -1.606,-0.194 -2.12,-0.582 -0.515,-0.389 -0.773,-0.929 -0.773,-1.622 0,-0.581 0.178,-1.044 0.534,-1.39 0.356,-0.347 0.959,-0.642 1.811,-0.885 0.375,-0.103 0.66,-0.199 0.857,-0.288 0.196,-0.089 0.33,-0.182 0.4,-0.28 0.07,-0.099 0.105,-0.223 0.105,-0.373 0,-0.486 -0.421,-0.73 -1.263,-0.73 -0.384,0 -0.787,0.064 -1.208,0.19 -0.421,0.126 -0.796,0.302 -1.123,0.527 l -0.239,-1.475 c 0.29,-0.206 0.681,-0.372 1.172,-0.498 0.492,-0.127 0.99,-0.19 1.496,-0.19 0.964,0 1.722,0.197 2.275,0.59 m 4.893,10.306 h -0.529 l -0.621,-1.524 -0.62,1.524 h -0.529 V 14.94 h 0.345 v 1.739 l 0.623,-1.53 h 0.363 l 0.623,1.547 V 14.94 h 0.345 z m -4.402,0 v -0.326 h 0.695 V 14.94 h 0.344 v 1.808 h 0.695 v 0.326 z"
               style="fill:#ff6012;fill-opacity:1;fill-rule:nonzero;stroke:none"
               id="path910" /></g></g></g></g></g></svg>
