<?xml version="1.0" encoding="UTF-8" standalone="no"?>
<!-- Created with Inkscape (http://www.inkscape.org/) -->

<svg
   version="1.1"
   id="svg179"
   width="894"
   height="469"
   viewBox="0 0 894 469"
   sodipodi:docname="IEEE_Advanced_Technology_Logo.svg"
   inkscape:version="1.2.2 (732a01da63, 2022-12-09)"
   xmlns:inkscape="http://www.inkscape.org/namespaces/inkscape"
   xmlns:sodipodi="http://sodipodi.sourceforge.net/DTD/sodipodi-0.dtd"
   xmlns="http://www.w3.org/2000/svg"
   xmlns:svg="http://www.w3.org/2000/svg">
  <defs
     id="defs183">
    <clipPath
       clipPathUnits="userSpaceOnUse"
       id="clipEmfPath1">
      <path
         d="M 0,0 L 299.98442,0 L 299.98442,167.99127 L 0,167.99127 z"
         id="path3657" />
    </clipPath>
    <pattern
       id="EMFhbasepattern"
       patternUnits="userSpaceOnUse"
       width="6"
       height="6"
       x="0"
       y="0" />
  </defs>
  <sodipodi:namedview
     id="namedview181"
     pagecolor="#ffffff"
     bordercolor="#000000"
     borderopacity="0.25"
     inkscape:showpageshadow="2"
     inkscape:pageopacity="0.0"
     inkscape:pagecheckerboard="0"
     inkscape:deskcolor="#d1d1d1"
     showgrid="false"
     inkscape:zoom="0.898516"
     inkscape:cx="644.39587"
     inkscape:cy="137.44886"
     inkscape:window-width="1920"
     inkscape:window-height="1009"
     inkscape:window-x="-8"
     inkscape:window-y="-8"
     inkscape:window-maximized="1"
     inkscape:current-layer="g185" />
  <g
     inkscape:groupmode="layer"
     inkscape:label="Image"
     id="g185">
    <path
       style="fill:#006699;fill-opacity:1"
       d="m 769.01508,465.62788 c 1.09848,-1.7875 4.02976,-6.555 6.51397,-10.5944 2.4842,-4.0394 4.33303,-7.8644 4.10851,-8.5 -0.22452,-0.6356 -1.53539,-8.5806 -2.91304,-17.6556 -1.37766,-9.075 -2.75893,-17.9625 -3.0695,-19.75 l -0.56467,-3.25 h 5.04532 5.04531 v 3.9656 c 0,3.9599 2.86859,26.2363 3.4539,26.8216 0.17004,0.17 3.12665,-4.775 6.57026,-10.989 12.03744,-21.7217 10.57838,-19.7982 15.01799,-19.7982 2.17682,0 3.95785,0.2312 3.95785,0.5139 0,0.2826 -5.41982,9.5714 -12.04403,20.6419 -6.62422,11.0704 -14.78028,25.0141 -18.12458,30.9861 l -6.08053,10.8581 h -4.45699 -4.45699 z m -402.7113,-16.8415 c -7.7202,-1.6184 -11.58774,-7.1297 -11.51471,-16.4085 0.12536,-15.9275 9.7533,-27.4889 22.89191,-27.4889 8.66553,0 15.70275,5.3105 16.96898,12.8052 0.96295,5.6997 -1.23201,15.3807 -4.85259,21.4027 -4.72515,7.8592 -13.99238,11.6813 -23.49359,9.6895 z m 10.59208,-6.8762 c 4.62607,-2.8207 8.46762,-10.9601 9.06146,-19.1993 0.44371,-6.1563 0.28265,-6.8649 -2.10245,-9.25 -3.00599,-3.006 -7.25184,-3.3698 -11.81144,-1.0119 -4.13695,2.1393 -8.14256,10.9716 -8.68115,19.1417 -0.38483,5.8378 -0.22624,6.3961 2.62765,9.25 3.52544,3.5254 6.41353,3.8086 10.90593,1.0695 z m -46.3567,5.263 c 0.28695,-0.9874 1.47923,-6.5203 2.64951,-12.2953 1.17028,-5.775 2.50217,-12.075 2.95976,-14 2.28989,-9.6332 2.36128,-9 -1.01482,-9 -2.77601,0 -3.05374,-0.2758 -2.76905,-2.75 0.26215,-2.2783 0.90049,-2.8358 3.72165,-3.25 3.3124,-0.4864 3.45111,-0.6957 5.08816,-7.6786 2.76124,-11.778 5.43792,-14.3214 15.07171,-14.3214 4.1981,0 4.9349,0.2864 4.9349,1.9182 0,3.6285 -1.10218,5.0942 -3.39754,4.5181 -3.5922,-0.9016 -7.27912,2.8287 -8.5215,8.6218 -1.50364,7.0112 -1.53193,6.9419 2.83256,6.9419 3.77961,0 3.88853,0.094 3.18343,2.75 -0.62677,2.3609 -1.31192,2.793 -4.84223,3.054 -4.67929,0.3459 -3.89646,-1.653 -8.3009,21.196 -3.04201,15.781 -2.92564,15.5483 -7.92203,15.8431 -3.62109,0.2137 -4.12393,0 -3.67361,-1.5478 z m 68.31616,1.0457 c -0.24573,-0.2457 0.12529,-2.3476 0.82447,-4.6708 0.69919,-2.3232 2.74027,-11.4119 4.53574,-20.1971 1.79548,-8.7852 3.3467,-16.0851 3.44716,-16.222 0.10046,-0.1368 2.29581,-0.6436 4.87855,-1.1261 5.07959,-0.949 4.99524,-1.0949 2.8183,4.875 -0.30084,0.825 1.33721,-0.1875 3.64011,-2.25 2.82754,-2.5324 5.14109,-3.75 7.12519,-3.75 3.88306,0 4.13761,0.7217 2.00178,5.6754 -1.45904,3.384 -2.19007,4.0734 -3.8569,3.6375 -6.67165,-1.7446 -10.05289,3.4442 -13.94306,21.3969 l -2.7715,12.7902 -4.12654,0.1439 c -2.26959,0.079 -4.32758,-0.057 -4.5733,-0.3029 z m 53.32566,-0.6915 c 0,-0.7427 1.75473,-8.9552 3.89939,-18.25 2.14467,-9.2947 4.89283,-21.6872 6.10702,-27.5388 l 2.20761,-10.6393 3.95366,-0.6322 c 2.17452,-0.3478 4.31639,-0.4081 4.75971,-0.1341 0.44333,0.274 -0.2581,4.8962 -1.55873,10.2715 -3.52057,14.55 -4.57799,13.2734 10.99389,13.2734 h 13.36255 l 2.13745,-10.0381 c 1.1756,-5.5209 2.13745,-10.6384 2.13745,-11.3722 0,-1.513 7.86187,-3.1279 9.11707,-1.8727 0.43592,0.436 -1.88172,12.2655 -5.15032,26.2878 -3.2686,14.0223 -5.95516,26.1702 -5.97014,26.9952 -0.051,2.8118 -1.65428,4.07 -5.8274,4.573 -2.99738,0.3612 -4.16585,0.1405 -4.15726,-0.7853 0.007,-0.7082 1.3512,-6.9127 2.98805,-13.7877 1.63685,-6.875 2.98147,-12.8375 2.98805,-13.25 0.0217,-1.3619 -25.64023,-0.8817 -26.72,0.5 -0.53726,0.6875 -1.96557,6.2 -3.17402,12.25 -3.03463,15.1925 -3.19474,15.5 -8.07259,15.5 -2.71002,0 -4.02144,-0.4404 -4.02144,-1.3505 z m 65.01971,0.066 c -5.88778,-2.979 -6.21741,-7.9507 -1.821,-27.4655 l 3.21032,-14.25 h 4.2068 4.20679 l -1.47165,6.25 c -5.36801,22.7975 -5.51973,27.4396 -0.9678,29.6113 2.27334,1.0845 3.68048,1.1366 6.65283,0.246 7.11093,-2.1305 7.73115,-3.2303 11.33894,-20.1073 l 3.31343,-15.5 4.15581,-0.3075 c 2.40598,-0.178 4.15582,0.1301 4.15582,0.7318 0,2 -8.14353,38.5899 -8.91933,40.0757 -0.43077,0.825 -2.42515,1.6396 -4.43195,1.8103 -3.09186,0.263 -3.64872,0 -3.64872,-1.7011 0,-2.0024 -0.0192,-2.0027 -4.25,-0.082 -4.86564,2.2086 -12.1003,2.5253 -15.73029,0.6887 z m 39.98029,0.9154 c 0,-0.1099 1.53315,-7.1593 3.407,-15.6654 1.87385,-8.506 3.72577,-17.6086 4.11539,-20.2278 0.79486,-5.3436 1.22538,-5.7773 6.73616,-6.785 3.55797,-0.6506 3.8662,-0.5378 3.40003,1.2449 -0.40153,1.5354 -0.14913,1.8056 1.16438,1.2463 9.76532,-4.1579 13.5613,-4.351 18.57994,-0.9453 l 3.68199,2.4987 3.95436,-2.0173 c 5.68511,-2.9004 11.7546,-3.5108 16.24634,-1.6341 6.73002,2.812 6.88127,6.1662 1.42744,31.6541 l -2.24677,10.5 -4.23313,0.1388 c -2.32822,0.076 -4.23313,-0.2324 -4.23313,-0.6863 0,-0.4538 1.37015,-6.5913 3.04478,-13.6388 3.65665,-15.3887 3.62377,-20.3681 -0.14319,-21.6849 -6.47366,-2.2629 -14.83211,2.5193 -14.98471,8.5734 -0.0457,1.8138 -1.28322,8.6978 -2.75,15.2978 l -2.66688,12 -4.34395,0.1924 c -4.24942,0.1882 -4.32906,0.1338 -3.65949,-2.5 1.85594,-7.3005 5.48852,-25.9987 5.49551,-28.2874 0.0167,-5.4597 -5.75921,-7.4143 -12.46291,-4.2175 -4.03335,1.9233 -4.17594,2.2982 -8.10393,21.3075 -1.42005,6.8722 -2.76876,12.6818 -2.99713,12.9102 -0.4144,0.4144 -8.4281,1.1044 -8.4281,0.7257 z m 81.21818,-1.294 c -9.69855,-4.7802 -10.74743,-19.4039 -2.23461,-31.1556 1.82386,-2.5177 4.9659,-4.988 8.6157,-6.7737 5.08713,-2.4889 7.11527,-2.8596 17.71342,-3.2374 l 11.96851,-0.4268 -0.63201,2.5182 c -1.69619,6.7581 -7.55624,34.5996 -7.83359,37.2178 -0.2768,2.6131 -0.74593,3.014 -3.8156,3.2608 -2.23855,0.1799 -3.90164,-0.2652 -4.61437,-1.2351 -0.99397,-1.3526 -1.5037,-1.3537 -4.71788,-0.011 -4.65104,1.9433 -10.31249,1.8817 -14.44957,-0.1574 z m 17.9976,-6.7427 c 2.11702,-1.3871 2.89113,-3.4771 5.13837,-13.8732 1.45522,-6.7321 2.64585,-12.7983 2.64585,-13.4806 0,-2.2048 -9.20231,-1.4955 -14.09272,1.0863 -11.4194,6.0288 -14.9918,23.7121 -5.59898,27.7149 2.96552,1.2637 8.86407,0.5468 11.90748,-1.4474 z m 24.44625,-10.8428 c 2.38159,-10.5883 4.33191,-20.0086 4.33406,-20.934 0.004,-1.6489 0.69181,-2.0057 6.25391,-3.2435 2.29406,-0.5106 2.75,-0.2773 2.75,1.407 0,2.463 -0.19337,2.4615 5.1408,0.041 5.17816,-2.3496 9.68223,-2.5405 14.31083,-0.6066 4.17418,1.7441 5.55323,4.1794 5.5319,9.7689 -0.0158,4.1465 -5.40871,30.5743 -6.45191,31.6175 -0.81257,0.8126 -8.53218,1.1762 -8.52604,0.4016 0.003,-0.3868 0.50538,-2.5033 1.11625,-4.7033 0.61087,-2.2 2.15342,-8.9231 3.42788,-14.9401 2.3318,-11.009 2.16931,-13.7122 -0.94941,-15.7946 -3.05066,-2.037 -13.99634,0.4972 -15.15169,3.508 -0.2878,0.75 -2.01312,8.3078 -3.83404,16.7951 l -3.31078,15.4316 -4.48595,0.2514 -4.48596,0.2513 z m 43.33797,18.9451 c 0,-0.3165 1.30174,-5.9062 2.89275,-12.4217 1.59101,-6.5154 3.4442,-15.2647 4.1182,-19.4428 0.674,-4.1781 1.52083,-8.0744 1.88186,-8.6586 0.36102,-0.5841 2.60309,-1.4995 4.98237,-2.034 4.13159,-0.9284 4.30564,-0.8747 3.87338,1.1943 -0.24893,1.1914 -2.19086,10.7163 -4.31541,21.1663 -2.12455,10.45 -3.9142,19.1105 -3.97701,19.2457 -0.25826,0.5556 -9.45614,1.4804 -9.45614,0.9508 z m 27,-0.3905 c -2.63974,-0.9434 -4.00003,-3.5789 -3.99871,-7.7472 10e-4,-3.334 3.43613,-19.7935 5.59495,-26.8088 0.44149,-1.4347 -0.0887,-1.75 -2.94237,-1.75 -3.30813,0 -3.44457,-0.1365 -2.74894,-2.75 0.57681,-2.1671 1.45835,-2.856 4.15869,-3.25 3.19188,-0.4658 3.49883,-0.8406 4.47881,-5.4697 0.99978,-4.7226 1.26735,-5.0321 5.38131,-6.2232 l 4.32923,-1.2534 -0.56201,3.2231 c -0.3091,1.7728 -0.87227,4.6857 -1.25148,6.4732 l -0.68948,3.25 h 4.57298 4.57298 l -1.0458,3 c -0.94333,2.706 -1.46715,3 -5.34538,3 h -4.29957 l -3.32419,13.5369 c -3.79026,15.435 -3.55179,17.04 2.50338,16.849 3.91389,-0.1235 4.1115,0.1796 2.64035,4.049 -0.86585,2.2773 -1.51086,2.5562 -5.75,2.4861 -2.62611,-0.043 -5.44975,-0.3202 -6.27475,-0.615 z m -14.54278,-56.9458 c 0.39663,-2.1231 0.9017,-4.0434 1.12238,-4.2673 0.22067,-0.2239 2.43775,-0.7162 4.92684,-1.0939 l 4.52562,-0.6868 -0.63732,3.5939 c -0.80954,4.565 -1.01021,4.7441 -6.2767,5.6011 l -4.38197,0.7132 z m -358.28838,-24.7851 c -2.38214,-0.7766 -5.18437,-2.1842 -6.22718,-3.1279 -1.79763,-1.6269 -1.80898,-1.8633 -0.21868,-4.5554 1.44632,-2.4484 1.89079,-2.6531 3.22718,-1.4863 7.15606,6.2484 17.98571,5.9199 22.30796,-0.6767 1.83873,-2.8063 4.28041,-10.52362 3.55809,-11.24594 -0.27733,-0.27733 -2.431,0.17557 -4.78595,1.00644 -5.56979,1.96514 -8.62286,1.87888 -13.60612,-0.38443 -5.20326,-2.36322 -7.43969,-6.83474 -7.38025,-14.75602 0.0518,-6.90205 1.69658,-12.00876 5.4548,-16.93604 5.47094,-7.17277 11.59751,-9.3879 27.86226,-10.07392 9.00442,-0.3798 10.80703,-0.21905 10.3682,0.92454 -0.50312,1.31109 -5.80633,24.46595 -9.33,40.73655 -2.23991,10.34282 -5.79251,16.64982 -10.82445,19.21692 -5.08645,2.595 -14.65813,3.232 -20.40586,1.3582 z m 20.44617,-26.19672 c 1.87949,-0.89188 3.59834,-1.91459 3.81966,-2.27269 0.33984,-0.54988 6.56533,-26.91345 6.56533,-27.80274 0,-0.65881 -5.16947,-0.24551 -10.06727,0.80488 -6.86574,1.47243 -12.2521,6.32688 -14.4874,13.05675 -4.09464,12.32781 3.6599,21.20102 14.16968,16.2138 z m 376.30834,26.07222 c -2.51716,-0.7755 -5.36497,-2.2811 -6.32846,-3.3458 -1.64541,-1.8181 -1.64993,-2.0912 -0.0744,-4.4957 l 1.67738,-2.56 3.44324,2.6263 c 4.82923,3.6834 12.03642,4.305 16.67502,1.4382 5.07459,-3.1362 10.5208,-16.52575 5.9339,-14.58849 -0.9625,0.40651 -3.8901,1.1898 -6.50577,1.74064 -6.4635,1.36117 -12.7949,-0.99366 -15.81642,-5.88257 -2.82629,-4.57304 -2.90328,-14.39799 -0.16116,-20.56901 5.46204,-12.29211 13.97039,-16.35827 35.11205,-16.78012 6.73781,-0.13444 7.31779,0.01 6.67739,1.65935 -1.00173,2.58049 -5.00802,19.91702 -7.58124,32.80658 -2.78453,13.94795 -5.26314,20.56682 -9.11028,24.32812 -5.05975,4.9469 -14.83977,6.4267 -23.94122,3.6225 z m 20.7373,-26.38369 c 3.90331,-1.7723 4.23393,-2.25026 5.34559,-7.72803 0.65173,-3.2114 1.99236,-9.35955 2.9792,-13.66256 2.03761,-8.88484 1.82422,-9.24712 -4.89337,-8.30752 -6.09277,0.85221 -10.31109,2.97766 -13.80314,6.95489 -7.05613,8.03649 -6.95878,20.16701 0.18683,23.28035 4.028,1.755 5.28242,1.68884 10.18489,-0.53713 z m 20.58319,24.68309 c 9.94653,-15.18447 11.13377,-17.38287 10.92369,-20.22718 -0.22643,-3.06555 -4.76627,-32.87653 -5.72484,-37.59231 -0.49909,-2.4553 -0.3077,-2.57927 4.30746,-2.78985 l 4.82976,-0.22038 1.27844,12.28985 c 0.70314,6.75942 1.60732,13.86485 2.00929,15.78985 l 0.73087,3.5 4.05473,-7 c 2.2301,-3.85 6.1637,-10.9042 8.7414,-15.676 l 4.6866,-8.676 3.9671,0.176 c 2.5906,0.11493 3.8106,0.58701 3.5159,1.36048 -0.2482,0.65146 -5.7911,10.10146 -12.3177,21 -6.5266,10.89854 -14.47444,24.42802 -17.66199,30.06554 l -5.79554,10.25 h -4.50952 c -4.44656,0 -4.48894,-0.031 -3.03565,-2.25 z M 280.9215,346.44855 c -4.89243,-1.74581 -6.47594,-3.13175 -8.81361,-7.71395 -1.30287,-2.55384 -1.92375,-5.81407 -1.91714,-10.0669 0.0179,-11.55095 6.68555,-21.13704 16.78876,-24.13737 7.60943,-2.25976 19.24273,-0.306 19.16603,3.21885 -0.0403,1.85225 -2.87471,7.21233 -2.92912,5.5392 -0.0522,-1.6055 -4.6208,-3.41052 -8.63215,-3.41052 -6.84547,0 -12.11489,4.41287 -14.95329,12.5226 -2.23375,6.38214 -1.36444,11.7168 2.54662,15.62786 2.31151,2.31151 3.72309,2.84954 7.47612,2.84954 2.54462,0 5.99743,-0.7089 7.67292,-1.57532 l 3.04634,-1.57533 -0.7136,3.32533 c -0.97179,4.52848 -1.04735,4.61148 -5.26453,5.78272 -4.90641,1.36265 -8.89149,1.24827 -13.47335,-0.38671 z m 212.98012,0.28123 c -5.37228,-1.51314 -9.35282,-5.88817 -10.54892,-11.59436 -2.33025,-11.11679 2.72112,-23.7663 11.55894,-28.94561 7.77634,-4.55723 20.84684,-2.93878 24.78315,3.06878 1.94671,2.97106 3.03553,13.46335 1.61419,15.55502 -0.75264,1.10758 -3.90724,1.47131 -13.80181,1.59137 -17.76608,0.21556 -16.32619,-0.18571 -16.32619,4.5498 0,9.23243 10.59141,13.12705 21.44543,7.88581 2.16999,-1.04786 4.06788,-1.78276 4.21752,-1.63311 0.14965,0.14965 -0.2253,1.89272 -0.83322,3.8735 -0.68413,2.22912 -2.06753,4.03983 -3.63056,4.752 -3.60415,1.64216 -14.03489,2.14838 -18.47853,0.8968 z m 20.27936,-29.77934 c 0,-7.18909 -7.72149,-10.36889 -14.75914,-6.07798 -2.91497,1.77727 -7.22734,7.29227 -7.23712,9.2554 -0.002,0.4125 4.94626,0.75 10.99626,0.75 h 11 z m 24.91357,29.9717 c -7.65534,-2.31996 -11.91357,-8.56311 -11.91357,-17.46693 0,-10.96248 5.70077,-20.45975 14.5,-24.15646 7.04249,-2.95867 21.5,-1.52278 21.5,2.13533 0,0.72247 -0.4453,2.48482 -0.98956,3.91633 l -0.98957,2.60276 -2.93762,-2.17188 c -2.42589,-1.79354 -3.86053,-2.0832 -8.23555,-1.66282 -4.67379,0.44909 -5.73403,1.00051 -8.99991,4.68069 -4.06292,4.57834 -6.25428,11.79627 -5.19274,17.10395 0.34044,1.70222 1.94195,4.4179 3.55889,6.03485 2.37682,2.37681 3.79659,2.9399 7.41264,2.9399 2.46001,0 5.84359,-0.7089 7.51908,-1.57532 l 3.04634,-1.57533 -0.7136,3.32533 c -0.97179,4.52848 -1.04735,4.61148 -5.26453,5.78272 -4.2627,1.18387 -8.57983,1.21436 -12.3003,0.0869 z m 129.58643,-0.55061 c -2.2,-0.7802 -4.78163,-2.37804 -5.73695,-3.55077 -5.42119,-6.65491 -4.29585,-20.84859 2.43399,-30.69935 4.03828,-5.91102 9.45602,-8.48252 17.61345,-8.36014 7.59286,0.11391 11.68752,2.09288 14.5809,7.04705 4.11694,7.04917 1.07899,23.8938 -5.54111,30.72401 -5.57521,5.75216 -15.16929,7.74047 -23.35028,4.8392 z m 14.16906,-6.74367 c 5.94396,-4.06154 10.19742,-18.8297 7.38135,-25.6283 -1.45038,-3.50154 -5.89986,-5.62308 -9.781,-4.66366 -6.66774,1.64828 -12.26941,11.74955 -12.26941,22.12493 0,4.5146 0.44267,5.95061 2.45455,7.96248 3.12793,3.12794 7.82118,3.20654 12.21451,0.20455 z m 52.79338,7.24565 c -1.67066,-0.51851 -4.30702,-2.26776 -5.85858,-3.88724 -5.39829,-5.6346 -4.61153,-21.22477 1.53977,-30.51154 7.27526,-10.98364 24.85259,-12.21867 32.25184,-2.26611 1.72462,2.31975 2.09522,4.2152 2.05298,10.5 -0.0769,11.43623 -4.81566,20.72217 -12.6396,24.76809 -3.76629,1.94762 -13.13966,2.7024 -17.34641,1.3968 z m 12.49068,-6.47141 c 3.79765,-1.96384 6.69116,-6.86061 8.32725,-14.09243 2.34726,-10.37531 0.50598,-15.81846 -5.74787,-16.99169 -7.66492,-1.43795 -15.11451,7.85865 -16.23956,20.2659 -0.48142,5.30921 -0.27767,6.15867 2.17686,9.07572 3.05644,3.63237 6.74605,4.19224 11.48332,1.7425 z m -716.660976,5.78444 c 0.26549,-0.44477 4.85493,-8.68368 10.19875,-18.30868 5.34382,-9.625 12.41059,-22.3375 15.70394,-28.25 l 5.98792,-10.75 h 5.90862 c 4.03313,0 5.92475,0.39677 5.95944,1.25 0.028,0.6875 0.24841,3.05 0.48992,5.25 0.24151,2.2 1.35157,12.775 2.4668,23.5 1.11523,10.725 2.2999,21.43941 2.63259,23.80979 l 0.60489,4.3098 -4.87251,-0.3098 -4.87251,-0.30979 -0.24932,-5.5 c -0.13712,-3.025 -0.49501,-6.9625 -0.79531,-8.75 l -0.546,-3.25 -10.20468,0.002 -10.20469,0.002 -4.5,8.74757 -4.5,8.74757 -4.84529,0.30868 c -2.6649,0.16978 -4.62806,-0.0552 -4.36256,-0.5 z m 38.15705,-31.55868 c -0.37853,-4.5375 -0.98804,-10.95 -1.35445,-14.25 l -0.6662,-6 -6.96428,13.48274 c -3.83035,7.4155 -7.11427,13.828 -7.2976,14.25 -0.18334,0.42199 3.56009,0.76726 8.31872,0.76726 h 8.65206 z m 23.97076,30.36432 c -6.3503,-3.8724 -8.22441,-14.21646 -4.41863,-24.38833 3.97879,-10.63427 11.994176,-15.77926 25.748666,-16.52781 4.5375,-0.24694 8.26494,-0.73005 8.2832,-1.07358 0.10981,-2.06576 3.8491,-19.34023 4.27965,-19.77078 0.72483,-0.72483 8.68715,-1.73563 8.68715,-1.10282 0,0.28289 -1.74404,7.87964 -3.87565,16.88167 -2.1316,9.00203 -5.35705,23.45483 -7.16766,32.11733 l -3.29202,15.75 h -3.83234 c -2.73985,0 -3.83233,-0.4276 -3.83233,-1.5 0,-1.84981 -0.10034,-1.84998 -3.63569,-0.006 -4.09606,2.13624 -13.151386,1.93342 -16.944346,-0.37952 z m 18.169896,-5.72398 c 2.51004,-1.1911 3.64316,-2.55628 4.35756,-5.25 1.52142,-5.7367 5.05258,-21.99875 5.05258,-23.26864 0,-1.94796 -11.36715,-0.35535 -15.98397,2.23945 -4.83318,2.7164 -7.504086,6.64229 -8.970426,13.18536 -2.44484,10.90938 5.696186,17.76704 15.544256,13.09383 z m 27.56834,-12.98842 c -1.26245,-11.32895 -2.13511,-20.75834 -1.93924,-20.95421 0.19587,-0.19587 2.18178,-0.64806 4.41314,-1.00487 l 4.05702,-0.64874 0.68089,8.85295 c 0.3745,4.86912 0.95395,12.67795 1.28768,17.35295 0.58949,8.25786 1.14689,10.55844 2.05944,8.5 0.24383,-0.55 4.34472,-8.41541 9.1131,-17.47869 8.41027,-15.98544 8.76745,-16.48332 11.93268,-16.63363 1.7946,-0.0852 3.49051,0.21334 3.7687,0.66346 0.27819,0.45012 -3.03086,7.03525 -7.35344,14.63363 -4.32258,7.59838 -9.52803,16.85273 -11.56765,20.56523 l -3.7084,6.75 h -5.22428 -5.22427 z m 41.15563,18.64785 c -5.67763,-3.4619 -7.89892,-10.80195 -5.87271,-19.40589 2.89245,-12.2823 9.362,-18.29068 22.10136,-20.52591 6.25776,-1.09797 20.45753,-1.15793 20.45753,-0.0864 0,0.34404 -1.79785,9.14017 -3.99523,19.54696 -2.19737,10.4068 -3.99737,19.70895 -4,20.67145 -0.004,1.41274 -0.89264,1.75 -4.61176,1.75 -3.68426,0 -4.4917,-0.30043 -4.03138,-1.5 0.31658,-0.825 0.41968,-1.5 0.22911,-1.5 -0.19057,0 -1.96199,0.675 -3.9365,1.5 -5.05974,2.1141 -12.46968,1.90993 -16.34042,-0.45023 z m 18.74392,-5.74295 c 2.4666,-1.45705 3.1374,-2.88652 4.81005,-10.25 1.06905,-4.70625 2.23752,-10.27628 2.5966,-12.37783 0.35909,-2.10156 0.89964,-4.46406 1.20123,-5.25 0.68428,-1.7832 -5.22162,-1.9519 -11.16562,-0.31895 -11.60948,3.18939 -18.71736,21.64082 -10.75056,27.90751 3.1357,2.46654 9.39226,2.60253 13.3083,0.28927 z m 20.94226,6.86788 c 0,-0.45391 1.57133,-7.76641 3.49185,-16.25 1.92052,-8.48358 3.77178,-17.51164 4.11393,-20.06235 0.59056,-4.40274 0.80625,-4.6681 4.25815,-5.23899 5.83224,-0.96456 6.33793,-0.83471 5.61535,1.44191 l -0.65549,2.06527 4.19845,-2.14189 c 3.82104,-1.94934 7.3978,-2.501 13.77321,-2.12429 1.2625,0.0746 3.4,1.24019 4.75,2.59019 3.29381,3.2938 3.19476,9.05915 -0.45604,26.54545 l -2.81854,13.5 -4.48744,0.29875 -4.48743,0.29874 3.46148,-15.55719 c 3.25876,-14.64611 3.36647,-15.70218 1.83935,-18.03287 -0.89217,-1.36162 -2.78144,-2.76664 -4.19838,-3.12227 -3.02982,-0.76044 -9.75225,1.24331 -11.81384,3.52135 -0.79437,0.87776 -2.93837,8.68091 -4.76446,17.34032 l -3.32015,15.74438 -4.25,0.004 c -2.3375,0.002 -4.25,-0.36699 -4.25,-0.82091 z m 85,0.0498 c 0,-0.42652 1.8,-8.74157 4,-18.47789 2.2,-9.73632 4,-18.58579 4,-19.66549 0,-2.42022 0.41133,-2.67016 5.88625,-3.57669 l 4.38624,-0.72627 -0.72609,2.86091 c -1.34588,5.30294 -7.36235,32.82801 -8.00247,36.61092 -0.62223,3.67716 -0.72108,3.75 -5.08924,3.75 -2.45008,10e-6 -4.45469,-0.34896 -4.45469,-0.77548 z m 20.28679,-0.52949 c 1.02239,-2.66431 6.63655,-28.37482 7.27511,-33.31697 0.86605,-6.70282 1.22773,-7.16087 6.29404,-7.97101 3.39787,-0.54334 4.22928,-0.39636 3.97682,0.703 -0.44859,1.95346 0.5986,2.0255 4.67631,0.32172 3.34096,-1.39594 6.96072,-1.85428 12.31785,-1.55971 3.62838,0.19951 8.17112,5.36245 8.18375,9.30103 0.006,1.8298 -1.42045,10.18942 -3.16959,18.57692 l -3.18025,15.25 h -4.44699 c -4.09672,0 -4.40667,-0.17722 -3.93503,-2.25 0.28158,-1.2375 1.68404,-7.38066 3.11657,-13.65148 3.12987,-13.70068 3.21801,-16.48512 0.60462,-19.09851 -2.61359,-2.61359 -6.54424,-2.53133 -11.94628,0.25 l -4.37007,2.25 -2.81314,14 c -1.54723,7.7 -3.05963,15.0125 -3.36088,16.25 -0.46905,1.9268 -1.20677,2.25 -5.13567,2.25 -3.3626,0 -4.45419,-0.34853 -4.08717,-1.30498 z m 130.71321,0.81528 c 0,-0.26934 2.44549,-10.95684 5.43443,-23.75 2.98893,-12.79316 5.57643,-24.16029 5.75,-25.26029 0.29868,-1.89293 -0.15067,-1.98128 -8.39323,-1.65024 l -8.70881,0.34976 0.95881,-3.34316 c 0.52734,-1.83874 0.9588,-3.45863 0.9588,-3.59976 0,-0.14113 9.45,-0.2566 21,-0.2566 12.35848,0 21,0.38471 21,0.9349 0,0.5142 -0.43709,2.08455 -0.97132,3.48967 -0.95481,2.51132 -1.09884,2.54399 -8.46993,1.92091 -7.25691,-0.61344 -7.52754,-0.5567 -8.39622,1.76033 -0.49368,1.3168 -2.98871,12.06919 -5.54451,23.89419 -2.55579,11.825 -4.87397,22.5125 -5.15151,23.75 -0.43139,1.92351 -1.15483,2.25 -4.98556,2.25 -2.46452,0 -4.48095,-0.22037 -4.48095,-0.48971 z m 106.02283,-0.26029 c 0.0126,-0.4125 1.79236,-7.95 3.9551,-16.75 2.16274,-8.8 5.1424,-22.3 6.62146,-30 1.47906,-7.7 2.81794,-14.51765 2.97528,-15.15034 0.27882,-1.12116 8.13503,-2.97329 8.98911,-2.11922 0.23595,0.23596 -0.77809,5.67192 -2.25344,12.0799 -1.47534,6.40799 -2.44281,11.89052 -2.14993,12.1834 0.29288,0.29288 2.22589,-0.17503 4.29557,-1.0398 5.58427,-2.33325 13.02037,-2.23279 16.32609,0.22058 4.75062,3.52571 4.90083,7.15976 1.03012,24.92211 l -3.4656,15.90337 -4.1733,0.3075 c -2.29531,0.16912 -4.17329,-0.13599 -4.17329,-0.67802 0,-0.54203 1.35,-6.82765 3,-13.96804 1.65,-7.14039 3,-14.30304 3,-15.917 0,-6.03579 -6.56353,-8.03824 -13.96713,-4.26121 -4.45201,2.27125 -3.93429,0.98426 -8.15281,20.26677 l -3.22692,14.75 h -4.32657 c -2.37961,0 -4.31629,-0.3375 -4.30374,-0.75 z m 47.97717,0.44703 c 0,-0.16663 1.31934,-6.12913 2.93187,-13.25 1.61253,-7.12087 3.49257,-16.38864 4.17787,-20.59505 l 1.24599,-7.64802 3.57214,-0.59098 c 5.51495,-0.91239 5.9329,-0.79657 5.33779,1.47913 l -0.5471,2.09212 4.16479,-2.12472 c 5.73485,-2.9257 14.23286,-3.10811 17.89068,-0.38401 2.41328,1.79724 2.75346,2.76392 2.96558,8.42731 0.1514,4.04203 -0.78044,11.18321 -2.5311,19.39719 l -2.77071,13 -4.59218,0.29962 -4.59217,0.29961 2.75061,-11.29961 c 1.51284,-6.21479 3.06486,-13.60267 3.44895,-16.41752 0.65039,-4.76659 0.51227,-5.26425 -2.0122,-7.25 -3.46367,-2.72452 -6.91867,-2.67731 -11.94081,0.16316 l -4,2.26236 -3.4263,16.22119 -3.42631,16.22119 h -4.32369 c -2.37804,0 -4.3237,-0.13634 -4.3237,-0.30297 z m 94,-0.0929 c 0,-0.21773 2.27869,-10.61103 5.06376,-23.09623 2.78507,-12.4852 5.68383,-26.53082 6.4417,-31.21249 0.75786,-4.68168 1.60694,-8.74114 1.88684,-9.02104 1.04872,-1.04873 9.91283,-1.57709 9.28,-0.55316 -0.56825,0.91945 -13.65731,61.75803 -13.66784,63.52879 -0.002,0.4125 -2.02946,0.75 -4.50446,0.75 -2.475,0 -4.5,-0.17814 -4.5,-0.39587 z M 317.65887,289.12786 c 0.38527,-2.0625 0.80841,-3.86056 0.94032,-3.9957 0.13192,-0.13513 2.30712,-0.52904 4.83378,-0.87536 l 4.59394,-0.62967 -0.85065,3.77165 c -0.99646,4.41817 -2.28245,5.44293 -6.85657,5.46377 -3.34378,0.0152 -3.35764,-0.004 -2.66082,-3.73469 z M 145.87028,243.00955 c -2.08066,-0.46762 -4.15852,-2.63074 -8,-8.32825 -22.91917,-33.99269 -63.366626,-74.3487 -102.827476,-102.59497 -13.54395,-9.69483 -13.42972,-11.8434 1.18064,-22.20768 33.23837,-23.578581 67.422046,-56.879441 95.565686,-93.097631 6.45462,-8.3064901 12.76304,-15.5708001 14.0187,-16.14292007 3.71572,-1.69299003 8.0006,0.80090997 12.33013,7.17642997 20.2741,29.8549201 61.71422,72.1727701 93.9232,95.9125611 5.70911,4.20793 12.23411,9.01989 14.5,10.69325 3.37668,2.49367 4.17655,3.72384 4.43435,6.81979 0.37459,4.49874 -0.56475,5.7768 -7.5123,10.22109 -2.90646,1.85924 -9.45097,6.61115 -14.54335,10.55979 -32.45973,25.16935 -62.64363,55.57838 -85.98374,86.62507 -8.52189,11.33569 -12.51211,15.6558 -13.95941,15.11347 -0.17366,-0.0651 -1.58055,-0.40258 -3.12643,-0.75 z m 9.02804,-32.09014 c 9.32531,-4.23336 22.91441,-15.46695 44.62862,-36.89277 24.0182,-23.6992 40.65404,-44.90949 40.65404,-51.83289 0,-7.28559 -27.61331,-41.681061 -49.76525,-61.988181 -10.96332,-10.05028 -29.11391,-24.68616 -33.44824,-26.97127 -4.93854,-2.60365 -12.60759,-2.32023 -16.83121,0.62201 -25.54629,17.79598 -70.245816,62.32969 -80.411026,80.112721 -4.6369,8.11181 -3.89319,10.89523 6.69424,25.05399 12.97472,17.35132 46.978516,50.99352 65.866406,65.16597 5.38934,4.04387 14.12692,8.65315 16.39507,8.64879 1.1,-0.002 3.89781,-0.86538 6.21735,-1.91837 z m -8.92599,-5.1138 c -12.7322,-3.44394 -75.470096,-64.66688 -81.713886,-79.74071 -2.17084,-5.24087 -0.66213,-8.9389 8.23583,-20.18704 16.19936,-20.478021 41.164936,-44.744911 62.499106,-60.750001 8.8047,-6.60537 10.08266,-7.25 14.37282,-7.25 4.1151,0 5.56667,0.64656 11.51181,5.12761 25.03678,18.87102 52.0388,46.02979 67.60694,67.999381 4.00671,5.65423 4.69603,7.32476 4.69603,11.38057 0,3.87658 -0.67656,5.69808 -3.66713,9.87301 -15.02383,20.97372 -43.62879,49.79195 -66.52123,67.0172 -8.04535,6.05365 -12.48465,7.75683 -17.02029,6.52998 z m 9.79424,-42.62622 c -0.39209,-10.28416 -0.93581,-19.05916 -1.20826,-19.5 -0.27246,-0.44084 -3.32267,-0.80153 -6.77824,-0.80153 h -6.28288 l -0.65056,18.69565 c -0.50067,14.3879 -0.36429,18.87745 0.59189,19.48468 0.68335,0.43398 4.34711,0.79594 8.14169,0.80436 l 6.89925,0.0153 z m 15.91441,-24.7414 c 9.39429,-1.93442 19.58286,-6.57872 22.46199,-10.23894 3.02895,-3.85068 2.65219,-8.55316 -0.97596,-12.18131 -1.65768,-1.65769 -3.90768,-3.29763 -5,-3.64431 -2.41116,-0.76528 -2.63259,-2.49557 -0.31936,-2.49557 0.91666,0 1.3504,-0.31626 0.96386,-0.7028 -0.94033,-0.94034 -19.80816,-5.4529 -20.38551,-4.87555 -0.24934,0.24934 0.20164,2.39397 1.00219,4.76585 1.42726,4.22872 1.53467,4.3065 5.52836,4.0035 8.16593,-0.61953 14.48485,4.81741 12.85298,11.059 -1.88901,7.22512 -27.96856,13.08292 -47.62856,10.69799 -23.93811,-2.90391 -32.36887,-9.14834 -23.56352,-17.45286 2.09503,-1.97586 5.80342,-3.95003 9.5,-5.05733 3.33494,-0.99897 6.05076,-2.06864 6.03516,-2.37705 -0.0622,-1.2288 -10.92374,-7.06075 -13.15014,-7.06075 -2.98747,0 -15.46129,6.03982 -18.91438,9.15834 -12.704576,11.47362 -1.156796,22.56356 28.59288,27.45926 10.20725,1.67974 32.3518,1.13515 43.00001,-1.05747 z m -19.77144,-5.18481 c 2.21392,-0.59345 2.22707,-0.7193 2,-19.1491 l -0.22857,-18.551731 4.5,-0.0873 c 3.45168,-0.0669 4.42333,-0.43668 4.17087,-1.58724 -0.18102,-0.825 -3.21852,-9.25725 -6.75,-18.73833 -3.53148,-9.48109 -6.42087,-17.69359 -6.42087,-18.25 0,-0.55642 -0.3375,-1.0029 -0.75,-0.99218 -0.58503,0.0152 -12.5675,34.09311 -13.53051,38.48051 -0.12072,0.55 1.58051,1.03397 3.78051,1.07548 l 4,0.0755 -0.3414,18.583601 c -0.31911,17.37013 -0.22116,18.61459 1.5,19.0585 2.78162,0.71743 5.59346,0.74608 8.06997,0.0822 z m 34.43462,100.05125 c -3.88031,-1.63155 -5.51287,-4.749 -4.7148,-9.00312 1.15822,-6.17384 8.62969,-8.50968 13.91676,-4.35087 2.0394,1.60419 2.63486,2.95134 2.63486,5.96105 0,6.47246 -5.64331,9.99711 -11.83682,7.39294 z m 7.52237,-2.60088 c 2.99279,-2.81158 2.94078,-6.29027 -0.1401,-9.37114 -2.86022,-2.86023 -4.27381,-3.03354 -7.32294,-0.89785 -1.59964,1.12044 -2.22251,2.5697 -2.22251,5.17126 0,6.65414 5.14587,9.36253 9.68555,5.09773 z m -6.74553,-4.07569 -0.45443,-4.75 h 3.18084 c 3.13386,0 3.17828,0.0672 3.00721,4.55013 -0.1681,4.40493 -0.22662,4.48471 -1.83393,2.5 -2.11321,-2.60939 -2.61345,-2.57685 -3.07293,0.19987 -0.20478,1.2375 -0.57682,0.1125 -0.82676,-2.5 z m 4.05998,-2.75 c 0,-0.55 -0.675,-1 -1.5,-1 -0.825,0 -1.5,0.45 -1.5,1 0,0.55 0.675,1 1.5,1 0.825,0 1.5,-0.45 1.5,-1 z m 113,-99.5 V 31.843519 l 25.25,0.26717 25.25,0.26717 v 92.000001 92 l -25.25,0.26717 -25.25,0.26717 z m 78,0.007 V 31.878059 h 70 70 v 18 18 h -45 -45 v 19 19.000001 h 41.5 41.5 v 18 18 h -41.5 -41.5 v 19.5 19.5 h 45.02307 45.02308 l -0.27308,17.75 -0.27307,17.75 -69.75,0.2568 -69.75,0.2568 z m 169,-0.007 V 31.877859 h 70 70 v 18 18 h -44.5 -44.5 v 19 19.000001 h 41 41 v 18 18 h -41 -41 v 19.5 19.5 h 44.5 44.5 v 18 18 h -70 -70 z m 169,0 V 31.877859 h 70 69.99994 v 18 18 h -44.49994 -44.5 v 19 19.000001 h 41 40.99994 v 18 18 h -40.99994 -41 v 19.5 19.5 h 44.5 44.49994 v 18 18 h -69.99994 -70 z"
       id="path297" />
  </g>
</svg>
