<?xml version="1.0" encoding="UTF-8" standalone="no"?>
<!-- Created with Inkscape (http://www.inkscape.org/) -->

<svg
   width="525.69073"
   height="275.06836"
   viewBox="0 0 525.69073 275.06836"
   version="1.1"
   id="svg5"
   inkscape:version="1.4 (86a8ad7, 2024-10-11)"
   sodipodi:docname="LogoLP2iB.svg"
   xmlns:inkscape="http://www.inkscape.org/namespaces/inkscape"
   xmlns:sodipodi="http://sodipodi.sourceforge.net/DTD/sodipodi-0.dtd"
   xmlns="http://www.w3.org/2000/svg"
   xmlns:svg="http://www.w3.org/2000/svg">
  <sodipodi:namedview
     id="namedview7"
     pagecolor="#ffffff"
     bordercolor="#000000"
     borderopacity="0.25"
     inkscape:showpageshadow="2"
     inkscape:pageopacity="0.0"
     inkscape:pagecheckerboard="0"
     inkscape:deskcolor="#d1d1d1"
     inkscape:document-units="px"
     showgrid="false"
     inkscape:zoom="1.1585237"
     inkscape:cx="297.79277"
     inkscape:cy="82.000909"
     inkscape:window-width="1920"
     inkscape:window-height="1009"
     inkscape:window-x="-8"
     inkscape:window-y="-8"
     inkscape:window-maximized="1"
     inkscape:current-layer="g486" />
  <defs
     id="defs2">
    <linearGradient
       id="swatch18"
       inkscape:swatch="solid"
       inkscape:label="Noir">
      <stop
         style="stop-color:#000000;stop-opacity:1;"
         offset="0"
         id="stop18" />
    </linearGradient>
    <linearGradient
       id="swatch17"
       inkscape:swatch="solid"
       inkscape:label="Blanc">
      <stop
         style="stop-color:#ffffff;stop-opacity:1;"
         offset="0"
         id="stop17" />
    </linearGradient>
    <linearGradient
       id="swatch16"
       inkscape:swatch="solid">
      <stop
         style="stop-color:#9467bd;stop-opacity:1;"
         offset="0"
         id="stop16" />
    </linearGradient>
    <linearGradient
       id="swatch15"
       inkscape:swatch="solid">
      <stop
         style="stop-color:#17becf;stop-opacity:1;"
         offset="0"
         id="stop15" />
    </linearGradient>
    <linearGradient
       id="swatch14"
       inkscape:swatch="solid">
      <stop
         style="stop-color:#d62728;stop-opacity:1;"
         offset="0"
         id="stop14" />
    </linearGradient>
    <linearGradient
       id="swatch13"
       inkscape:swatch="solid">
      <stop
         style="stop-color:#bcbd22;stop-opacity:1;"
         offset="0"
         id="stop13" />
    </linearGradient>
    <linearGradient
       id="swatch12"
       inkscape:swatch="solid">
      <stop
         style="stop-color:#2ca02c;stop-opacity:1;"
         offset="0"
         id="stop12" />
    </linearGradient>
    <linearGradient
       id="swatch11"
       inkscape:swatch="solid">
      <stop
         style="stop-color:#7f7f7f;stop-opacity:1;"
         offset="0"
         id="stop11" />
    </linearGradient>
    <linearGradient
       id="swatch10"
       inkscape:swatch="solid">
      <stop
         style="stop-color:#ff7f0e;stop-opacity:1;"
         offset="0"
         id="stop10" />
    </linearGradient>
    <linearGradient
       id="swatch9"
       inkscape:swatch="solid">
      <stop
         style="stop-color:#e377c2;stop-opacity:1;"
         offset="0"
         id="stop9" />
    </linearGradient>
    <linearGradient
       id="swatch8"
       inkscape:swatch="solid">
      <stop
         style="stop-color:#1f77b4;stop-opacity:1;"
         offset="0"
         id="stop8" />
    </linearGradient>
    <linearGradient
       id="swatch7"
       inkscape:swatch="solid">
      <stop
         style="stop-color:#8c564b;stop-opacity:1;"
         offset="0"
         id="stop7" />
    </linearGradient>
    <linearGradient
       id="swatch6"
       inkscape:swatch="solid">
      <stop
         style="stop-color:#e2e032;stop-opacity:1;"
         offset="0"
         id="stop6" />
    </linearGradient>
    <linearGradient
       id="swatch5"
       inkscape:swatch="solid">
      <stop
         style="stop-color:#199bd9;stop-opacity:1;"
         offset="0"
         id="stop5" />
    </linearGradient>
    <linearGradient
       id="swatch4"
       inkscape:swatch="solid">
      <stop
         style="stop-color:#765995;stop-opacity:1;"
         offset="0"
         id="stop4" />
    </linearGradient>
    <linearGradient
       id="swatch3"
       inkscape:swatch="solid">
      <stop
         style="stop-color:#b3a2c7;stop-opacity:1;"
         offset="0"
         id="stop3" />
    </linearGradient>
    <linearGradient
       id="swatch2"
       inkscape:swatch="solid">
      <stop
         style="stop-color:#92cddd;stop-opacity:1;"
         offset="0"
         id="stop2" />
    </linearGradient>
    <linearGradient
       id="swatch1"
       inkscape:swatch="solid">
      <stop
         style="stop-color:#e46d2d;stop-opacity:1;"
         offset="0"
         id="stop1" />
    </linearGradient>
    <pattern
       id="EMFhbasepattern"
       patternUnits="userSpaceOnUse"
       width="6"
       height="6"
       x="0"
       y="0" />
    <linearGradient
       id="swatch12-6"
       inkscape:swatch="solid"
       gradientTransform="translate(-1588.3739,1446.2115)"
       inkscape:label="M1">
      <stop
         style="stop-color:#5e00e5;stop-opacity:1;"
         offset="0"
         id="stop12-9" />
    </linearGradient>
    <linearGradient
       id="swatch43"
       inkscape:pinned="true"
       inkscape:swatch="solid"
       inkscape:label="M2">
      <stop
         style="stop-color:#03f7c7;stop-opacity:1;"
         offset="0"
         id="stop43" />
    </linearGradient>
    <linearGradient
       id="swatch107"
       inkscape:swatch="solid"
       gradientTransform="translate(-1853.1031,1750.2632)"
       inkscape:label="M3">
      <stop
         style="stop-color:#fdbdf1;stop-opacity:1;"
         offset="0"
         id="stop107" />
    </linearGradient>
    <linearGradient
       id="swatch117"
       inkscape:swatch="solid"
       gradientTransform="translate(-3706.2061,3500.5264)"
       inkscape:label="M4">
      <stop
         style="stop-color:#00da00;stop-opacity:1;"
         offset="0"
         id="stop117" />
    </linearGradient>
    <linearGradient
       id="swatch124"
       inkscape:swatch="solid"
       gradientTransform="translate(-2117.8321,2000.3008)"
       inkscape:label="M5">
      <stop
         style="stop-color:#e9ab00;stop-opacity:1;"
         offset="0"
         id="stop124" />
    </linearGradient>
    <linearGradient
       id="swatch126"
       inkscape:swatch="solid"
       gradientTransform="translate(-3706.2061,3500.5264)"
       inkscape:label="M6">
      <stop
         style="stop-color:#2e2eac;stop-opacity:1;"
         offset="0"
         id="stop126" />
    </linearGradient>
    <linearGradient
       id="swatch127"
       inkscape:swatch="solid"
       gradientTransform="translate(-264.72902,250.0376)"
       inkscape:label="IA">
      <stop
         style="stop-color:#fd7f00;stop-opacity:1;"
         offset="0"
         id="stop127" />
    </linearGradient>
    <linearGradient
       id="swatch128"
       inkscape:swatch="solid"
       inkscape:label="IB">
      <stop
         style="stop-color:#007ffe;stop-opacity:1;"
         offset="0"
         id="stop128" />
    </linearGradient>
    <linearGradient
       id="swatch171"
       inkscape:swatch="solid"
       inkscape:label="LB">
      <stop
         style="stop-color:#a9e5a9;stop-opacity:1;"
         offset="0"
         id="stop171" />
    </linearGradient>
  </defs>
  <g
     inkscape:label="Layer 1"
     inkscape:groupmode="layer"
     id="layer1"
     transform="translate(-334.20947,-346.13233)">
    <g
       id="g486"
       transform="translate(-326.25306,79.12242)">
      <path
         style="display:inline;fill:#1db5cd;stroke-width:1"
         d="m 815.3479,541.87815 c -43.91813,-2.81351 -90.9685,-31.44533 -100.55825,-61.19326 -6.63923,-20.59525 -0.56157,-39.32604 21.01278,-64.75927 1.93746,-2.28402 4.31749,-5.11008 5.2889,-6.28014 0.97142,-1.17006 5.62235,-6.34626 10.33543,-11.50268 41.00818,-44.86581 44.17422,-63.74054 14.08141,-83.94766 -33.20931,-22.29984 -73.95695,-23.25993 -83.71598,-1.97249 -4.69614,10.24374 5.18583,29.90433 28.66123,57.02267 5.12422,5.91944 5.22874,6.21334 1.19571,3.36312 -47.65727,-33.68049 -64.69732,-74.35778 -39.75556,-94.90285 28.81353,-23.73437 101.10406,-5.86183 132.97924,32.87675 1.80296,2.19117 3.844,4.40176 4.53568,4.91243 3.91882,2.89335 11.61289,15.50576 13.88193,22.75571 6.75321,21.57778 -1.20008,40.01789 -27.46501,63.67882 -6.64309,5.98449 -12.03024,11.83176 -25.46262,27.63749 -10.44092,12.2857 -15.93991,24.74051 -14.29827,32.38465 4.60999,21.4664 52.37202,42.27851 73.25276,31.91958 15.44754,-7.66355 12.91225,-20.48266 -10.39824,-52.57587 -6.38448,-8.78997 -6.4046,-8.98549 -0.48991,-4.75886 19.77572,14.13175 38.26821,33.70993 45.59997,48.27714 16.89723,33.57252 -5.50338,59.83081 -48.6812,57.06472 z m 157.03898,-52.51281 c -15.16502,-2.36401 -17.52272,-23.85064 -3.22361,-29.37774 11.22136,-4.33744 22.37472,2.7936 22.32707,14.27513 -0.0432,10.40581 -8.14499,16.81088 -19.10346,15.10261 z m 6.07729,-5.07399 c 11.58167,-3.8724 8.00288,-21.81147 -4.07997,-20.45142 -10.08859,1.13558 -11.81892,18.16272 -2.06432,20.31389 0.70114,0.15462 1.48152,0.34999 1.73415,0.43416 0.99231,0.33056 2.92266,0.20072 4.41014,-0.29663 z m 48.31373,5.11689 c -14.4181,-2.18133 -16.6357,-23.3954 -3.0772,-29.43838 4.379,-1.95172 11.3768,-1.20315 14.2885,1.52847 2.0905,1.96121 2.407,1.08329 2.5446,-7.05671 l 0.1263,-7.47308 h 2.9858 2.9858 v 21.10139 21.1014 h -2.7561 -2.7562 l -0.1439,-1.49086 c -0.1715,-1.7766 -1.1912,-1.96846 -2.9827,-0.56121 -2.6613,2.09047 -6.8611,2.94767 -11.2149,2.28898 z m 6.5034,-5.09405 c 5.1849,-1.30379 8.1949,-6.6307 7.0974,-12.56012 -2.0429,-11.03594 -18.0856,-10.32712 -19.4853,0.86092 -0.9807,7.83849 5.0587,13.54218 12.3879,11.6992 z m 31.6991,5.10907 c -19.1873,-2.96899 -17.2617,-30.46252 2.1354,-30.48958 6.767,-0.009 12.0082,3.39961 14.1933,9.23174 0.8545,2.28072 1.2377,5.17986 0.6847,5.17986 -0.1307,0 -2.1461,0.40488 -4.4787,0.89973 -2.3326,0.49485 -7.1349,1.43509 -10.6719,2.08943 -8.2428,1.52487 -8.0387,1.45496 -8.0387,2.75374 0,4.56607 9.4314,7.07258 15.5763,4.13959 l 2.8416,-1.35629 1.1099,1.35629 c 3.0358,3.70949 -5.0802,7.47543 -13.3519,6.19549 z m 2.4801,-16.72166 c 8.8757,-1.72977 9.196,-1.87982 8.3527,-3.91311 -3.0517,-7.35728 -15.0632,-6.85536 -17.654,0.73769 -1.8287,5.35962 -1.8568,5.35001 9.3013,3.17542 z m 29.4108,16.69089 c -10.913,-1.84053 -15.9391,-14.81289 -9.5003,-24.52041 4.3404,-6.5439 14.6146,-7.91754 21.6308,-2.89201 0.968,0.69332 1.6907,-0.09 1.7025,-1.84505 0.01,-1.00107 0.1512,-1.04716 2.878,-0.91745 l 2.8709,0.13657 v 14.90859 14.9086 l -2.6413,0.13757 c -2.3674,0.12331 -2.6412,0.044 -2.6412,-0.76525 0,-2.47081 -1.0874,-2.94988 -3.2328,-1.4243 -2.9328,2.08549 -7.1018,2.94183 -11.0666,2.27314 z m 8.0627,-5.57788 c 10.8983,-5.56793 4.7721,-22.83215 -6.9805,-19.67183 -8.9217,2.39908 -9.4466,18.08474 -0.6698,20.01606 0.6901,0.15186 1.4615,0.35513 1.7141,0.45171 0.7514,0.28723 4.9066,-0.26991 5.9362,-0.79594 z m 28.7084,5.58003 c -7.9675,-1.34173 -9.5614,-4.60383 -9.5897,-19.62638 l -0.02,-10.68726 2.871,0.13657 2.8709,0.13657 0.2297,10.09197 c 0.2591,11.3845 0.5239,12.36977 3.7714,14.0348 3.4805,1.78448 9.2732,0.66687 11.2431,-2.16915 1.6184,-2.32997 1.7242,-3.00447 1.9696,-12.55374 l 0.2416,-9.40388 h 2.9858 2.9858 v 14.90859 14.9086 h -2.7561 c -2.6794,0 -2.7602,-0.0359 -2.9041,-1.28859 -0.215,-1.8722 -1.1699,-1.97131 -3.5873,-0.3723 -2.7429,1.81435 -6.5717,2.51399 -10.3115,1.8842 z m -211.97404,-0.5675 c -0.12122,-0.31545 -0.16642,-9.24341 -0.10043,-19.8399 l 0.11998,-19.26635 11.22267,-0.12302 c 12.23513,-0.13413 14.57257,0.18615 18.09707,2.47972 4.37775,2.8488 4.7349,11.91227 0.57663,14.63316 -1.71551,1.12251 -1.4733,2.06768 0.99505,3.88303 6.16029,4.53056 5.65542,13.18851 -0.96738,16.58942 -4.06147,2.08562 -29.24265,3.46809 -29.94359,1.64394 z m 25.32585,-5.41017 c 4.7582,-2.30026 4.46815,-8.84117 -0.48915,-11.03103 -1.80883,-0.79904 -2.92292,-0.88325 -10.20833,-0.77157 l -8.17789,0.12537 -0.12971,5.70863 c -0.0713,3.13974 -0.0262,5.97811 0.10043,6.30748 0.42862,1.11548 16.49186,0.82754 18.90465,-0.33888 z m -2.31897,-17.68633 c 5.5627,-2.75791 4.47332,-9.84367 -1.71725,-11.1695 -3.18451,-0.68203 -13.8164,-0.63214 -14.51761,0.0681 -1.14176,1.14019 -0.72709,11.33001 0.48231,11.85238 1.88119,0.81253 13.73914,0.2472 15.75255,-0.751 z m 51.8744,23.11446 c -0.12672,-0.32981 -0.17571,-7.10021 -0.10888,-15.04531 l 0.12155,-14.44565 h 2.7561 2.75609 l 0.1459,1.51716 c 0.1932,2.00802 1.2204,2.32594 2.759,0.85387 3.0176,-2.88714 8.3058,-3.51153 8.4258,-0.99485 0.042,0.88304 0.094,1.95833 0.1148,2.38952 0.029,0.59148 -0.582,0.90983 -2.4881,1.29647 -4.1884,0.84961 -6.1913,2.29479 -7.6068,5.48852 -0.2236,0.5046 -0.5156,5.04599 -0.6489,10.09198 l -0.2423,9.17452 -2.87691,0.13672 c -2.04744,0.0973 -2.94334,-0.0362 -3.10735,-0.46295 z m 161.01556,0.0556 c 0,-0.275 2.3772,-3.55925 5.2826,-7.29833 6.3759,-8.2054 6.3406,-7.03487 0.4447,-14.76206 -6.2496,-8.19071 -6.133,-7.79266 -2.2336,-7.62311 l 3.1496,0.13696 3.5961,4.70194 c 4.4646,5.83758 4.335,5.83927 8.7696,-0.11468 l 3.5875,-4.81663 h 2.9417 c 3.6865,0 3.8568,-0.54575 -2.3567,7.55229 -6.2989,8.20942 -6.3352,6.03903 0.2455,14.67697 6.4713,8.49444 6.3595,8.12564 2.4116,7.95294 l -3.1006,-0.13564 -3.7695,-5.04599 c -4.7566,-6.36739 -4.3184,-6.36614 -9.1416,-0.026 l -4.033,5.30136 h -2.8969 c -1.7845,0 -2.897,-0.19201 -2.897,-0.50001 z"
         id="path67-5"
         sodipodi:nodetypes="sssssssscssssssssssssssssssssssssscccccccsssscssscsssssscssscssssscscccssssssssssscccsssscccccssssssscssssssssscscssssssssscccssscssscsssssscsscsssscsscsss"
         inkscape:export-filename="..\..\png\LogoLP2iB.png"
         inkscape:export-xdpi="600"
         inkscape:export-ydpi="600" />
      <path
         style="display:inline;fill:#101b20;stroke-width:1"
         d="m 810.75437,510.93627 c -31.21582,-2.84088 -63.15669,-24.21564 -72.10885,-48.25511 -8.28419,-22.24578 -0.24687,-41.46169 28.93796,-69.18584 34.53826,-32.80964 47.18691,-55.38714 42.38622,-75.65814 l -0.27162,-1.14682 1.04237,0.91745 c 7.66232,6.74415 14.00087,22.31995 14.00087,34.40445 0,18.03725 -5.64167,27.16838 -32.87718,53.21221 -21.45504,20.51632 -35.15187,39.99053 -36.4799,51.86738 -2.54263,22.73907 51.53246,49.50036 74.8059,37.0208 12.66072,-6.78884 12.23935,-18.64855 -1.406,-39.57514 -4.1292,-6.33259 -4.03139,-6.16665 -3.40875,-5.78237 2.73269,1.68661 14.80186,19.71912 18.67541,27.90289 10.50175,22.18753 -3.84608,36.95845 -33.29643,34.27824 z m 110.81638,-136.79048 0.11716,-43.69365 9.53154,-0.12399 9.53158,-0.12399 v 35.29369 c 0,19.41153 0.12544,35.62021 0.27882,36.0193 0.24888,0.64768 2.64142,0.7256 22.27855,0.7256 h 21.99976 v 7.79834 7.79835 h -31.92729 -31.92729 z m 76.13993,-0.14834 v -43.84198 l 23.08242,0.1926 c 27.9469,0.23319 30.6333,0.66354 39.6532,6.35237 18.3203,11.55457 17.1677,41.44291 -1.9846,51.46343 -7.7326,4.04568 -12.542,4.93104 -28.826,5.3065 l -12.4026,0.28595 -0.1224,12.04156 -0.1225,12.04156 h -9.6387 -9.63882 z m 45.44872,2.60064 c 15.5813,-5.4253 14.2569,-26.27917 -1.9107,-30.08572 -3.7414,-0.88089 -22.8396,-0.99571 -23.694,-0.14244 -0.8086,0.80746 -0.7868,30.21669 0.023,31.05098 1.0869,1.11978 21.9278,0.44945 25.5817,-0.82282 z m 42.1374,40.93856 c -0.17,-0.16986 -0.3092,-2.92806 -0.3092,-6.12932 v -5.82047 l 4.4787,-4.35201 c 2.4632,-2.3936 10.3699,-9.88314 17.5702,-16.64341 18.7641,-17.6173 20.9357,-20.3572 21.4775,-27.09815 1.0676,-13.281 -18.8035,-17.59215 -30.7587,-6.67331 -3.0642,2.79853 -1.9774,3.06025 -10.6147,-2.55623 l -5.8856,-3.82719 0.9542,-1.33824 c 13.3015,-18.6547 53.0511,-19.04622 62.8411,-0.61897 7.8759,14.82437 3.6251,25.0837 -19.4657,46.98046 -6.6848,6.33907 -12.077,11.75688 -11.9827,12.03958 0.1211,0.36311 5.6217,0.58133 18.7371,0.74336 l 18.5656,0.22937 v 7.56897 7.56898 l -32.6492,0.11772 c -17.9571,0.0647 -32.7884,-0.0213 -32.9586,-0.19114 z m 78.24,-33.18421 v -33.487 h 9.187 9.1871 v 33.487 33.487 h -9.1871 -9.187 z m 4.1342,-45.09897 c -4.3729,-1.38415 -7.535,-7.10333 -6.4915,-11.74107 2.7328,-12.14665 22.7985,-10.56647 22.7985,1.7954 0,8.10511 -7.5583,12.7149 -16.307,9.94567 z M 849.29054,324.54059 c -21.61956,-6.24714 -19.37752,-37.45286 2.92121,-40.65858 17.54979,-2.523 29.73733,17.46805 19.7813,32.44699 -4.56527,6.86847 -14.6842,10.52853 -22.70251,8.21159 z"
         id="path65-71" />
    </g>
  </g>
</svg>
